<svg width="18" height="18" viewBox="0 0 18 18" fill="none" xmlns="http://www.w3.org/2000/svg">
<path d="M15.5 1.125C15.7188 1 15.9688 0.96875 16.2188 1.03125C16.4688 1.09375 16.6562 1.25 16.8125 1.4375C16.9688 1.65625 17.0312 1.90625 17 2.15625L15 15.1875C14.9375 15.5 14.75 15.75 14.4688 15.9062C14.1875 16.0938 13.9062 16.0938 13.625 15.9688L9.65625 14.3125L7.78125 16.625C7.59375 16.875 7.34375 17 7.0625 17C6.75 17.0312 6.5 16.9375 6.3125 16.75C6.09375 16.5625 6 16.3125 6 16V12.8125L1.625 11C1.375 10.9062 1.1875 10.75 1.09375 10.5C0.96875 10.2812 0.96875 10.0312 1.03125 9.78125C1.09375 9.53125 1.25 9.34375 1.5 9.21875L15.5 1.125ZM7 16L8.71875 13.9375L7 13.2188V16ZM14 15.0312L16 2L2 10.0625L5.5625 11.5312L13.5312 4.75C13.5938 4.6875 13.6875 4.6875 13.7812 4.75C13.8438 4.84375 13.8438 4.9375 13.7812 5L7.5625 12.375L14 15.0312Z" fill="#636D73"/>
</svg>
