<svg width="40" height="43" viewBox="0 0 40 43" fill="none" xmlns="http://www.w3.org/2000/svg">
<circle cx="20" cy="18" r="18" fill="url(#paint0_linear_8175_1192)"/>
<g filter="url(#filter0_d_8175_1192)">
<path d="M27.1111 21.5558H28.1111C28.1111 21.0035 27.6634 20.5558 27.1111 20.5558V21.5558ZM16.4444 23.3336H17.4444C17.4444 22.7813 16.9967 22.3336 16.4444 22.3336V23.3336ZM27.1111 11.0495H28.1111C28.1111 10.7556 27.9818 10.4765 27.7575 10.2865C27.5332 10.0965 27.2366 10.0148 26.9467 10.0631L27.1111 11.0495ZM18.2222 12.531L18.0578 11.5446C17.5756 11.625 17.2222 12.0422 17.2222 12.531H18.2222ZM17.1872 10.9012L17.3516 11.8876L17.1872 10.9012ZM27.8538 9.12343L27.6894 8.13704L27.8538 9.12343ZM22.7778 22.4447C22.7778 21.5242 23.5239 20.778 24.4444 20.778V18.778C22.4194 18.778 20.7778 20.4196 20.7778 22.4447H22.7778ZM24.4444 24.1113C23.5239 24.1113 22.7778 23.3651 22.7778 22.4447H20.7778C20.7778 24.4697 22.4194 26.1113 24.4444 26.1113V24.1113ZM26.2222 24.1113H24.4444V26.1113H26.2222V24.1113ZM27.8889 22.4447C27.8889 23.3651 27.1427 24.1113 26.2222 24.1113V26.1113C28.2472 26.1113 29.8889 24.4697 29.8889 22.4447H27.8889ZM27.8889 20.6669V22.4447H29.8889V20.6669H27.8889ZM28 20.778C27.9386 20.778 27.8889 20.7283 27.8889 20.6669H29.8889C29.8889 19.6237 29.0432 18.778 28 18.778V20.778ZM24.4444 20.778H28V18.778H24.4444V20.778ZM24.4444 20.5558C23.4012 20.5558 22.5555 21.4015 22.5555 22.4447H24.5555C24.5555 22.506 24.5058 22.5558 24.4444 22.5558V20.5558ZM27.1111 20.5558H24.4444V22.5558H27.1111V20.5558ZM28.1111 22.4447V21.5558H26.1111V22.4447H28.1111ZM26.2222 24.3336C27.2654 24.3336 28.1111 23.4879 28.1111 22.4447H26.1111C26.1111 22.3833 26.1608 22.3336 26.2222 22.3336V24.3336ZM24.4444 24.3336H26.2222V22.3336H24.4444V24.3336ZM22.5555 22.4447C22.5555 23.4879 23.4012 24.3336 24.4444 24.3336V22.3336C24.5058 22.3336 24.5555 22.3833 24.5555 22.4447H22.5555ZM12.1111 24.2224C12.1111 23.302 12.8573 22.5558 13.7778 22.5558V20.5558C11.7527 20.5558 10.1111 22.1974 10.1111 24.2224H12.1111ZM13.7778 25.8891C12.8573 25.8891 12.1111 25.1429 12.1111 24.2224H10.1111C10.1111 26.2475 11.7527 27.8891 13.7778 27.8891V25.8891ZM15.5555 25.8891H13.7778V27.8891H15.5555V25.8891ZM17.2222 24.2224C17.2222 25.1429 16.476 25.8891 15.5555 25.8891V27.8891C17.5806 27.8891 19.2222 26.2475 19.2222 24.2224H17.2222ZM17.2222 22.4447V24.2224H19.2222V22.4447H17.2222ZM17.3333 22.5558C17.2719 22.5558 17.2222 22.506 17.2222 22.4447H19.2222C19.2222 21.4015 18.3765 20.5558 17.3333 20.5558V22.5558ZM13.7778 22.5558H17.3333V20.5558H13.7778V22.5558ZM13.7778 22.3336C12.7345 22.3336 11.8889 23.1792 11.8889 24.2224H13.8889C13.8889 24.2838 13.8391 24.3336 13.7778 24.3336V22.3336ZM16.4444 22.3336H13.7778V24.3336H16.4444V22.3336ZM17.4444 24.2224V23.3336H15.4444V24.2224H17.4444ZM15.5555 26.1113C16.5987 26.1113 17.4444 25.2657 17.4444 24.2224H15.4444C15.4444 24.1611 15.4942 24.1113 15.5555 24.1113V26.1113ZM13.7778 26.1113H15.5555V24.1113H13.7778V26.1113ZM11.8889 24.2224C11.8889 25.2657 12.7345 26.1113 13.7778 26.1113V24.1113C13.8391 24.1113 13.8889 24.1611 13.8889 24.2224H11.8889ZM29.8889 10.0002C29.8889 9.44498 29.6446 8.91786 29.2209 8.55896L27.9282 10.085C27.9032 10.0639 27.8889 10.0329 27.8889 10.0002H29.8889ZM29.8889 20.6669V10.0002H27.8889V20.6669H29.8889ZM28 22.5558C29.0432 22.5558 29.8889 21.7101 29.8889 20.6669H27.8889C27.8889 20.6055 27.9386 20.5558 28 20.5558V22.5558ZM26.1111 20.6669C26.1111 21.7101 26.9568 22.5558 28 22.5558V20.5558C28.0613 20.5558 28.1111 20.6055 28.1111 20.6669H26.1111ZM26.1111 11.0495V20.6669H28.1111V11.0495H26.1111ZM18.3866 13.5174L27.2755 12.0359L26.9467 10.0631L18.0578 11.5446L18.3866 13.5174ZM19.2222 22.4447V12.531H17.2222V22.4447H19.2222ZM17.3333 24.3336C18.3765 24.3336 19.2222 23.4879 19.2222 22.4447H17.2222C17.2222 22.3833 17.2719 22.3336 17.3333 22.3336V24.3336ZM15.4444 22.4447C15.4444 23.4879 16.2901 24.3336 17.3333 24.3336V22.3336C17.3947 22.3336 17.4444 22.3833 17.4444 22.4447H15.4444ZM15.4444 11.778V22.4447H17.4444V11.778H15.4444ZM17.0228 9.91481C16.112 10.0666 15.4444 10.8546 15.4444 11.778H17.4444C17.4444 11.8323 17.4051 11.8787 17.3516 11.8876L17.0228 9.91481ZM27.6894 8.13704L17.0228 9.91481L17.3516 11.8876L28.0182 10.1098L27.6894 8.13704ZM29.2209 8.55896C28.7972 8.20007 28.2371 8.04575 27.6894 8.13704L28.0182 10.1098C27.986 10.1152 27.9531 10.1061 27.9282 10.085L29.2209 8.55896Z" fill="url(#paint1_linear_8175_1192)"/>
</g>
<defs>
<filter id="filter0_d_8175_1192" x="0.111084" y="3.11133" width="39.7778" height="39.7773" filterUnits="userSpaceOnUse" color-interpolation-filters="sRGB">
<feFlood flood-opacity="0" result="BackgroundImageFix"/>
<feColorMatrix in="SourceAlpha" type="matrix" values="0 0 0 0 0 0 0 0 0 0 0 0 0 0 0 0 0 0 127 0" result="hardAlpha"/>
<feOffset dy="5"/>
<feGaussianBlur stdDeviation="5"/>
<feColorMatrix type="matrix" values="0 0 0 0 0 0 0 0 0 0.721569 0 0 0 0 0.623529 0 0 0 0.495046 0"/>
<feBlend mode="normal" in2="BackgroundImageFix" result="effect1_dropShadow_8175_1192"/>
<feBlend mode="normal" in="SourceGraphic" in2="effect1_dropShadow_8175_1192" result="shape"/>
</filter>
<linearGradient id="paint0_linear_8175_1192" x1="-20.4836" y1="23.6075" x2="26.7313" y2="59.6075" gradientUnits="userSpaceOnUse">
<stop stop-color="#00D593"/>
<stop offset="1" stop-color="#00AAA0"/>
</linearGradient>
<linearGradient id="paint1_linear_8175_1192" x1="9.38822" y1="7.24761" x2="9.38822" y2="28.4711" gradientUnits="userSpaceOnUse">
<stop stop-color="white"/>
<stop offset="1" stop-color="white" stop-opacity="0.5"/>
</linearGradient>
</defs>
</svg>
