<svg width="32" height="32" viewBox="0 0 32 32" fill="none" xmlns="http://www.w3.org/2000/svg">
<path fill-rule="evenodd" clip-rule="evenodd" d="M9.6 0H22.4C27.7019 0 32 4.29807 32 9.6V22.4C32 27.7019 27.7019 32 22.4 32H9.6C4.29807 32 0 27.7019 0 22.4V9.6C0 4.29807 4.29807 0 9.6 0Z" fill="#2574FF"/>
<path fill-rule="evenodd" clip-rule="evenodd" d="M8.8 24H23.2C23.6418 24 24 23.6418 24 23.2V13.3333H8V23.2C8 23.6418 8.35817 24 8.8 24ZM24 9.6V12L8 11.9653V9.6C8 9.15817 8.35817 8.8 8.8 8.8H12C12 8.35817 12.3582 8 12.8 8C13.2418 8 13.6 8.35817 13.6 8.8H18.4C18.4 8.35817 18.7582 8 19.2 8C19.6418 8 20 8.35817 20 8.8H23.2C23.6418 8.8 24 9.15817 24 9.6ZM14.8332 20.6621C15.1103 20.8257 15.4734 20.7886 15.7117 20.5503L19.0115 17.2338C19.2938 16.9516 19.2938 16.494 19.0116 16.2116C18.7294 15.9295 18.2717 15.9295 17.9895 16.2116L15.2004 19.0171L14.0338 17.9949C13.7515 17.7126 13.2939 17.7126 13.0116 17.9949C12.7295 18.2773 12.7295 18.7349 13.0116 19.0171L14.6893 20.5505C14.7335 20.5945 14.7818 20.6318 14.8332 20.6621Z" fill="white"/>
</svg>
