<svg width="32" height="32" viewBox="0 0 32 32" fill="none" xmlns="http://www.w3.org/2000/svg">
<path fill-rule="evenodd" clip-rule="evenodd" d="M9.6 0H22.4C27.7019 0 32 4.29807 32 9.6V22.4C32 27.7019 27.7019 32 22.4 32H9.6C4.29807 32 0 27.7019 0 22.4V9.6C0 4.29807 4.29807 0 9.6 0Z" fill="#1E2230"/>
<path fill-rule="evenodd" clip-rule="evenodd" d="M24.7085 8.51064C24.3779 8.19347 23.942 8 23.466 8H8.53268C8.05667 8 7.62079 8.19347 7.29015 8.51065L15.9993 15.0301L24.7085 8.51064ZM6.66602 10.5751V22C6.66602 23.1 7.50602 24 8.53268 24H23.466C24.4927 24 25.3327 23.1 25.3327 22V10.5751L16.5554 17.1459C16.2586 17.368 15.8745 17.3927 15.5584 17.2199L15.4433 17.1459L6.66602 10.5751Z" fill="white"/>
</svg>
