<svg width="32" height="32" viewBox="0 0 32 32" fill="none" xmlns="http://www.w3.org/2000/svg">
<path fill-rule="evenodd" clip-rule="evenodd" d="M9.6 0H22.4C27.7019 0 32 4.29807 32 9.6V22.4C32 27.7019 27.7019 32 22.4 32H9.6C4.29807 32 0 27.7019 0 22.4V9.6C0 4.29807 4.29807 0 9.6 0Z" fill="#1E2230"/>
<path fill-rule="evenodd" clip-rule="evenodd" d="M20.1327 9.33398C21.1636 9.33398 21.9993 10.1868 21.9993 11.2387V14.6397L26.666 11.2387V20.7626L21.9993 17.3616V20.7626C21.9993 21.8145 21.1636 22.6673 20.1327 22.6673H8.53268C7.50175 22.6673 6.66602 21.8145 6.66602 20.7626V11.2387C6.66602 10.1868 7.50175 9.33398 8.53268 9.33398H20.1327Z" fill="white"/>
</svg>
