<svg width="32" height="32" viewBox="0 0 32 32" fill="none" xmlns="http://www.w3.org/2000/svg">
<g opacity="0.16">
<path fill-rule="evenodd" clip-rule="evenodd" d="M9.6 0H22.4C27.7019 0 32 4.29807 32 9.6V22.4C32 27.7019 27.7019 32 22.4 32H9.6C4.29807 32 0 27.7019 0 22.4V9.6C0 4.29807 4.29807 0 9.6 0Z" fill="#1E2230"/>
</g>
<path fill-rule="evenodd" clip-rule="evenodd" d="M16 6C19.0376 6 21.5 8.46243 21.5 11.5V14.2C21.5 17.2376 19.0376 19.7 16 19.7C12.9624 19.7 10.5 17.2376 10.5 14.2V11.5C10.5 8.46243 12.9624 6 16 6ZM16 8C14.067 8 12.5 9.567 12.5 11.5V14.2C12.5 16.133 14.067 17.7 16 17.7C17.933 17.7 19.5 16.133 19.5 14.2V11.5C19.5 9.567 17.933 8 16 8ZM20.5322 18.2354C20.2757 18.7245 20.4641 19.329 20.9532 19.5855C22.8463 20.5787 23.8364 22.0149 23.9814 24H8.04111C8.24606 21.6383 9.2179 20.2442 10.9671 19.6462C11.4897 19.4676 11.7686 18.8991 11.5899 18.3765C11.4113 17.8539 10.8428 17.5751 10.3202 17.7538C7.44518 18.7366 6 21.2353 6 25V26H24.9876H25.9371L25.9862 25.0518C26.1553 21.7895 24.7577 19.323 21.8824 17.8145C21.3933 17.5579 20.7888 17.7464 20.5322 18.2354Z" fill="#1E2230"/>
</svg>
