<svg width="32" height="32" viewBox="0 0 32 32" fill="none" xmlns="http://www.w3.org/2000/svg">
<g opacity="0.16">
<path fill-rule="evenodd" clip-rule="evenodd" d="M9.6 0H22.4C27.7019 0 32 4.29807 32 9.6V22.4C32 27.7019 27.7019 32 22.4 32H9.6C4.29807 32 0 27.7019 0 22.4V9.6C0 4.29807 4.29807 0 9.6 0Z" fill="#1E2230"/>
</g>
<rect opacity="0.01" x="4" y="4" width="24" height="24" fill="black"/>
<path fill-rule="evenodd" clip-rule="evenodd" d="M25 7C25.5128 7 25.9355 7.38604 25.9933 7.88338L26 8V12C26 12.5128 25.614 12.9355 25.1166 12.9933L25 13H24V24C24 24.5128 23.614 24.9355 23.1166 24.9933L23 25H9C8.48716 25 8.06449 24.614 8.00673 24.1166L8 24V13H7C6.48716 13 6.06449 12.614 6.00673 12.1166L6 12V8C6 7.48716 6.38604 7.06449 6.88338 7.00673L7 7H25ZM22 13H10V23H22V13ZM18 15C18.5523 15 19 15.4477 19 16C19 16.5128 18.614 16.9355 18.1166 16.9933L18 17H14C13.4477 17 13 16.5523 13 16C13 15.4872 13.386 15.0645 13.8834 15.0067L14 15H18ZM24 9H8V11H24V9Z" fill="#1E2230"/>
</svg>
