<svg width="32" height="32" viewBox="0 0 32 32" fill="none" xmlns="http://www.w3.org/2000/svg">
<g opacity="0.16">
<path fill-rule="evenodd" clip-rule="evenodd" d="M9.6 0H22.4C27.7019 0 32 4.29807 32 9.6V22.4C32 27.7019 27.7019 32 22.4 32H9.6C4.29807 32 0 27.7019 0 22.4V9.6C0 4.29807 4.29807 0 9.6 0Z" fill="#1E2230"/>
</g>
<rect opacity="0.01" x="4" y="4" width="24" height="24" fill="black"/>
<path fill-rule="evenodd" clip-rule="evenodd" d="M13.3075 6.58003C13.0977 6.12544 12.5758 5.89027 12.0885 6.05003C11.5637 6.22207 11.2777 6.78698 11.4498 7.31178L12.4326 10.3098L12.4753 10.4185C12.6851 10.8731 13.207 11.1083 13.6944 10.9486C14.2192 10.7765 14.5051 10.2116 14.3331 9.6868L13.3502 6.68876L13.3075 6.58003ZM6.31432 9.87237C6.6854 9.52281 7.25321 9.51202 7.63622 9.82862L7.7279 9.91459L9.83941 12.1561C10.2181 12.5581 10.1992 13.191 9.79719 13.5697C9.42611 13.9192 8.8583 13.93 8.47529 13.6134L8.38361 13.5275L6.2721 11.286C5.89341 10.8839 5.91231 10.2511 6.31432 9.87237ZM14.1 18.1003C14.1 17.0509 14.9507 16.2003 16 16.2003C17.0493 16.2003 17.9 17.0509 17.9 18.1003C17.9 18.7827 17.5402 19.3811 17 19.7161V22.0003H21L21 18.1143C20.9919 15.2893 18.7526 13.0085 16.003 13.0003C13.3199 13.0083 11.1264 15.1708 11.0052 17.8897L11 18.1114V22.0003H15V19.7161C14.4598 19.3811 14.1 18.7827 14.1 18.1003ZM9 22.0003L9.00001 18.1085C9.0113 14.1916 12.1332 11.0118 16.003 11.0003C19.7863 11.0116 22.8583 14.0605 22.9953 17.8674L23 18.1114V22.0003H23.2C24.7713 22.0003 26 23.3655 26 25.0003V26.0003H6V25.0003C6 23.3655 7.22874 22.0003 8.8 22.0003H9ZM24.2709 9.91591C24.6488 9.51322 25.2817 9.49316 25.6844 9.87112C26.0561 10.22 26.1018 10.7861 25.8093 11.1878L25.7292 11.2846L23.6253 13.5261C23.2474 13.9288 22.6145 13.9489 22.2118 13.5709C21.8401 13.222 21.7944 12.656 22.0869 12.2542L22.167 12.1574L24.2709 9.91591ZM19.9003 6.04643C19.3735 5.88057 18.812 6.17317 18.6462 6.69996L17.7023 9.698L17.6737 9.81126C17.5794 10.303 17.8666 10.7981 18.3558 10.9522C18.8826 11.118 19.4441 10.8254 19.6099 10.2986L20.5538 7.30058L20.5824 7.18732C20.6767 6.69559 20.3895 6.20044 19.9003 6.04643Z" fill="#1E2230"/>
</svg>
