<svg width="56" height="56" viewBox="0 0 56 56" fill="none" xmlns="http://www.w3.org/2000/svg">
<g filter="url(#filter0_d_8175_662)">
<path fill-rule="evenodd" clip-rule="evenodd" d="M28 47C39.0457 47 48 38.0457 48 27C48 15.9543 39.0457 7 28 7C16.9543 7 8 15.9543 8 27C8 38.0457 16.9543 47 28 47Z" fill="white"/>
</g>
<path d="M34.9062 19.7188H34.875C35.1875 19.7812 35.4688 19.9688 35.6875 20.2188C35.875 20.4688 36 20.7812 36 21.125C36 23.6562 35.3438 26 34.0938 28.125C32.8438 30.25 31.1875 31.9062 29.125 33.0938C26.9375 34.375 24.5938 35 22.0938 35C21.75 35 21.4375 34.9062 21.1875 34.6875C20.9375 34.5 20.7812 34.2188 20.7188 33.875L20.0312 30.9375C19.9375 30.625 19.9688 30.2812 20.125 29.9688C20.2812 29.6562 20.5312 29.4375 20.875 29.3125L24.0312 27.9375C24.3125 27.8125 24.625 27.8125 24.9375 27.875C25.25 27.9688 25.5 28.125 25.7188 28.3438L26.7188 29.5938C28.4062 28.7188 29.6875 27.4062 30.625 25.7188L29.375 24.7188C29.125 24.5312 28.9375 24.25 28.875 23.9375C28.8125 23.625 28.8438 23.3438 28.9688 23.0312L30.3125 19.875C30.4375 19.5625 30.6562 19.3125 30.9688 19.1562C31.2812 19 31.5938 18.9688 31.9375 19.0312L34.9062 19.7188ZM22.1562 33.5C24.375 33.5 26.4375 32.9375 28.375 31.8125C30.2188 30.7188 31.6875 29.25 32.8125 27.375C33.9375 25.4688 34.5 23.4062 34.5 21.1562L31.6562 20.5L30.3438 23.5938L32.4688 25.3125C31.75 26.875 30.9375 28.0938 30 29C29.0625 29.9375 27.8438 30.75 26.3125 31.4688L24.5938 29.3438L21.5 30.6562L22.1562 33.5Z" fill="#1E2230"/>
<defs>
<filter id="filter0_d_8175_662" x="0" y="0" width="56" height="56" filterUnits="userSpaceOnUse" color-interpolation-filters="sRGB">
<feFlood flood-opacity="0" result="BackgroundImageFix"/>
<feColorMatrix in="SourceAlpha" type="matrix" values="0 0 0 0 0 0 0 0 0 0 0 0 0 0 0 0 0 0 127 0" result="hardAlpha"/>
<feOffset dy="1"/>
<feGaussianBlur stdDeviation="4"/>
<feColorMatrix type="matrix" values="0 0 0 0 0.0784314 0 0 0 0 0.180392 0 0 0 0 0.431373 0 0 0 0.1 0"/>
<feBlend mode="normal" in2="BackgroundImageFix" result="effect1_dropShadow_8175_662"/>
<feBlend mode="normal" in="SourceGraphic" in2="effect1_dropShadow_8175_662" result="shape"/>
</filter>
</defs>
</svg>
