<svg width="40" height="40" viewBox="0 0 40 40" fill="none" xmlns="http://www.w3.org/2000/svg">
<path d="M12 0.5H28C34.3513 0.5 39.5 5.64873 39.5 12V28C39.5 34.3513 34.3513 39.5 28 39.5H12C5.64873 39.5 0.5 34.3513 0.5 28V12C0.5 5.64873 5.64873 0.5 12 0.5Z" stroke="#1DA1F2"/>
<rect opacity="0.01" x="8" y="8" width="24" height="24" fill="black"/>
<path fill-rule="evenodd" clip-rule="evenodd" d="M29 30H11C10.4477 30 10 29.5523 10 29V12C10 11.4477 10.4477 11 11 11H15C15 10.4477 15.4477 10 16 10C16.5523 10 17 10.4477 17 11H23C23 10.4477 23.4477 10 24 10C24.5523 10 25 10.4477 25 11H29C29.5523 11 30 11.4477 30 12V29C30 29.5523 29.5523 30 29 30ZM15 13H12V16H28V13H25C25 13.5523 24.5523 14 24 14C23.4477 14 23 13.5523 23 13H17C17 13.5523 16.5523 14 16 14C15.4477 14 15 13.5523 15 13ZM12 18H28V28H12V18ZM15 22V20H17V22H15ZM15 26V24H17V26H15ZM21 20H19V22H21V20ZM19 24H21V26H19V24ZM25 22V20H23V22H25ZM23 26V24H25V26H23Z" fill="#1DA1F2"/>
</svg>
