<svg width="40" height="40" viewBox="0 0 40 40" fill="none" xmlns="http://www.w3.org/2000/svg">
<path d="M12 0.5H28C34.3513 0.5 39.5 5.64873 39.5 12V28C39.5 34.3513 34.3513 39.5 28 39.5H12C5.64873 39.5 0.5 34.3513 0.5 28V12C0.5 5.64873 5.64873 0.5 12 0.5Z" stroke="#1DA1F2"/>
<path fill-rule="evenodd" clip-rule="evenodd" d="M21 21V28C21 28.5523 20.5523 29 20 29C19.4477 29 19 28.5523 19 28V21H12C11.4477 21 11 20.5523 11 20C11 19.4477 11.4477 19 12 19H19V12C19 11.4477 19.4477 11 20 11C20.5523 11 21 11.4477 21 12V19H28C28.5523 19 29 19.4477 29 20C29 20.5523 28.5523 21 28 21H21Z" fill="#1DA1F2"/>
</svg>
