<svg width="96" height="96" viewBox="0 0 96 96" fill="none" xmlns="http://www.w3.org/2000/svg">
<g filter="url(#filter0_i_10205_1903)">
<path fill-rule="evenodd" clip-rule="evenodd" d="M46 4C71.4051 4 92 24.5949 92 50C92 75.4051 71.4051 96 46 96C20.5949 96 0 75.4051 0 50C0 24.5949 20.5949 4 46 4ZM46 16C27.2223 16 12 31.2223 12 50C12 68.7777 27.2223 84 46 84C64.7777 84 80 68.7777 80 50C80 31.2223 64.7777 16 46 16Z" fill="url(#paint0_linear_10205_1903)"/>
</g>
<path fill-rule="evenodd" clip-rule="evenodd" d="M88 16C92.4183 16 96 12.4183 96 8C96 3.58172 92.4183 0 88 0C83.5817 0 80 3.58172 80 8C80 12.4183 83.5817 16 88 16Z" fill="#00D65B"/>
<defs>
<filter id="filter0_i_10205_1903" x="0" y="4" width="92" height="93" filterUnits="userSpaceOnUse" color-interpolation-filters="sRGB">
<feFlood flood-opacity="0" result="BackgroundImageFix"/>
<feBlend mode="normal" in="SourceGraphic" in2="BackgroundImageFix" result="shape"/>
<feColorMatrix in="SourceAlpha" type="matrix" values="0 0 0 0 0 0 0 0 0 0 0 0 0 0 0 0 0 0 127 0" result="hardAlpha"/>
<feOffset dy="1"/>
<feGaussianBlur stdDeviation="4.5"/>
<feComposite in2="hardAlpha" operator="arithmetic" k2="-1" k3="1"/>
<feColorMatrix type="matrix" values="0 0 0 0 0.0705882 0 0 0 0 0.698039 0 0 0 0 0.701961 0 0 0 1 0"/>
<feBlend mode="normal" in2="shape" result="effect1_innerShadow_10205_1903"/>
</filter>
<linearGradient id="paint0_linear_10205_1903" x1="-46" y1="50" x2="46" y2="-42" gradientUnits="userSpaceOnUse">
<stop stop-color="#0364FF"/>
<stop offset="1" stop-color="#2196F3"/>
</linearGradient>
</defs>
</svg>
