<svg width="32" height="32" viewBox="0 0 32 32" fill="none" xmlns="http://www.w3.org/2000/svg">
<g opacity="0.16">
<path fill-rule="evenodd" clip-rule="evenodd" d="M9.6 0H22.4C27.7019 0 32 4.29807 32 9.6V22.4C32 27.7019 27.7019 32 22.4 32H9.6C4.29807 32 0 27.7019 0 22.4V9.6C0 4.29807 4.29807 0 9.6 0Z" fill="#1E2230"/>
</g>
<rect opacity="0.01" x="4" y="4" width="24" height="24" fill="black"/>
<path fill-rule="evenodd" clip-rule="evenodd" d="M11.1667 21H12.8333C12.925 21 13 20.9175 13 20.8167V11.1833C13 11.0825 12.925 11 12.8333 11H11.1667C11.075 11 11 11.0825 11 11.1833V20.8167C11 20.9175 11.075 21 11.1667 21ZM15.1667 21H16.8333C16.925 21 17 20.91 17 20.8V16.2C17 16.09 16.925 16 16.8333 16H15.1667C15.075 16 15 16.09 15 16.2V20.8C15 20.91 15.075 21 15.1667 21ZM19.1667 21H20.8333C20.925 21 21 20.9206 21 20.8235V15.1765C21 15.0794 20.925 15 20.8333 15H19.1667C19.075 15 19 15.0794 19 15.1765V20.8235C19 20.9206 19.075 21 19.1667 21ZM24.24 7H7.76C7.33963 7 7 7.33963 7 7.76V24.24C7 24.6604 7.33963 25 7.76 25H24.24C24.6604 25 25 24.6604 25 24.24V7.76C25 7.33963 24.6604 7 24.24 7ZM23 23H9V9H23V23Z" fill="#1E2230"/>
</svg>
