<svg width="32" height="32" viewBox="0 0 32 32" fill="none" xmlns="http://www.w3.org/2000/svg">
<g opacity="0.16">
<path fill-rule="evenodd" clip-rule="evenodd" d="M9.6 0H22.4C27.7019 0 32 4.29807 32 9.6V22.4C32 27.7019 27.7019 32 22.4 32H9.6C4.29807 32 0 27.7019 0 22.4V9.6C0 4.29807 4.29807 0 9.6 0Z" fill="#1E2230"/>
</g>
<rect opacity="0.01" x="4" y="4" width="24" height="24" fill="black"/>
<path fill-rule="evenodd" clip-rule="evenodd" d="M23.2361 17.8549C23.7008 18.1534 23.8354 18.7721 23.5369 19.2367C22.8512 20.3041 22.0341 21.3115 21.1137 22.2576C20.1145 23.2847 19.0467 24.1877 17.9782 24.9614L17.5691 25.2516L17.2051 25.4988C16.9219 25.6867 16.6904 25.8293 16.5223 25.9256C16.2113 26.1035 15.8288 26.1014 15.5197 25.9201L15.2133 25.7322L15.1031 25.6622C14.7842 25.4587 14.4303 25.2214 14.0499 24.9523C12.9644 24.1844 11.8792 23.3117 10.8629 22.3471C9.8254 21.3623 8.91717 20.3343 8.17493 19.2672C7.85955 18.8139 7.97144 18.1907 8.42482 17.8753C8.87821 17.5599 9.50141 17.6718 9.81678 18.1252C10.4754 19.072 11.2951 19.9999 12.2397 20.8965C13.181 21.7899 14.1931 22.6037 15.205 23.3196L15.7149 23.6718L16.027 23.8776L16.0821 23.8423C16.2316 23.7437 16.3891 23.6365 16.5536 23.521L16.8052 23.3415C17.7857 22.6316 18.7669 21.8018 19.6802 20.863C20.5115 20.0085 21.2449 19.1043 21.8542 18.1557C22.1528 17.6911 22.7714 17.5564 23.2361 17.8549ZM12.3583 14.0409C12.6797 14.0497 12.981 14.1906 13.1934 14.4266L13.2788 14.5335L13.3549 14.6411L14.143 16.7776L15.1582 15.2477C15.3597 14.9031 15.7213 14.6882 16.1142 14.671L16.2461 14.6727C16.5558 14.6942 16.8383 14.8373 17.0378 15.0619L17.121 15.1666L18.391 16.5466L19.187 15.7126L19.2074 15.6864C19.3977 15.458 19.6704 15.3092 19.9721 15.2742L20.103 15.2662H26C26.5523 15.2662 27 15.7139 27 16.2662C27 16.7791 26.614 17.2017 26.1166 17.2595L26 17.2662L20.469 17.2656L19.295 18.4956L19.2754 18.5243C19.0759 18.7639 18.7868 18.9155 18.4725 18.9408L18.3364 18.9438C18.0162 18.9321 17.7214 18.7902 17.5138 18.5609L17.428 18.4536L16.266 17.1906L14.9339 19.1994C14.7568 19.5036 14.4533 19.7094 14.1102 19.7644L13.9798 19.7778C13.6282 19.7941 13.2906 19.6509 13.0582 19.3926L12.9762 19.2904L12.8983 19.1812L12.051 16.8856L11.8314 17.1609C11.638 17.4031 11.3575 17.5569 11.0522 17.5919L10.92 17.5996H6C5.44772 17.5996 5 17.1518 5 16.5996C5 16.0867 5.38604 15.664 5.88338 15.6063L6 15.5996H10.518L11.4121 14.4822C11.6119 14.2303 11.9053 14.0736 12.2216 14.0451L12.3583 14.0409ZM25.9999 12.6122C25.9939 13.0876 25.9523 13.5616 25.8755 14.0302C25.7863 14.5752 25.2721 14.9447 24.727 14.8554C24.182 14.7661 23.8126 14.2519 23.9018 13.7069C23.9625 13.3368 23.9953 12.9625 24 12.5996C24 8.11751 18.0751 7.64352 16.9615 11.5409C16.6852 12.508 15.3148 12.508 15.0385 11.5409C13.9096 7.58979 8 8.18547 7.99985 12.9153C8.00503 13.2099 8.02888 13.5037 8.07118 13.7949C8.15059 14.3414 7.77189 14.8489 7.22535 14.9283C6.6788 15.0077 6.17137 14.629 6.09196 14.0824C6.03752 13.7077 6.00682 13.3296 6 12.9329C6 6.72287 12.9826 5.21537 15.9438 8.96767L16.003 9.04655L16.081 8.9474C19.0491 5.26035 25.9999 6.61167 25.9999 12.6122Z" fill="#1E2230"/>
</svg>
