<svg width="40" height="43" viewBox="0 0 40 43" fill="none" xmlns="http://www.w3.org/2000/svg">
<circle cx="20" cy="18" r="18" fill="url(#paint0_linear_8175_1185)"/>
<g filter="url(#filter0_d_8175_1185)">
<path d="M24.1841 15.5939L24.8912 14.8868L24.1841 15.5939ZM28.6285 20.0383L27.9214 20.7455V20.7455L28.6285 20.0383ZM27.3714 21.2954L26.6643 22.0025L27.3714 21.2954ZM23.5555 17.4795L24.2626 16.7724C24.0751 16.5849 23.8207 16.4795 23.5555 16.4795C23.2903 16.4795 23.036 16.5849 22.8484 16.7724L23.5555 17.4795ZM14.4063 26.6288L15.1134 27.3359H15.1134L14.4063 26.6288ZM13.1492 26.6288L12.4421 27.3359L13.1492 26.6288ZM13.7778 8.11133C11.7527 8.11133 10.1111 9.75295 10.1111 11.778H12.1111C12.1111 10.8575 12.8573 10.1113 13.7778 10.1113V8.11133ZM26.2222 8.11133H13.7778V10.1113H26.2222V8.11133ZM29.8889 11.778C29.8889 9.75295 28.2472 8.11133 26.2222 8.11133V10.1113C27.1427 10.1113 27.8889 10.8575 27.8889 11.778H29.8889ZM29.8889 24.2224V11.778H27.8889V24.2224H29.8889ZM26.2222 27.8891C28.2472 27.8891 29.8889 26.2475 29.8889 24.2224H27.8889C27.8889 25.1429 27.1427 25.8891 26.2222 25.8891V27.8891ZM13.7778 27.8891H26.2222V25.8891H13.7778V27.8891ZM10.1111 24.2224C10.1111 26.2475 11.7527 27.8891 13.7778 27.8891V25.8891C12.8573 25.8891 12.1111 25.1429 12.1111 24.2224H10.1111ZM10.1111 11.778V24.2224H12.1111V11.778H10.1111ZM13.8889 11.778C13.8889 11.8394 13.8391 11.8891 13.7778 11.8891V9.88911C12.7345 9.88911 11.8889 10.7348 11.8889 11.778H13.8889ZM13.8889 24.2224V11.778H11.8889V24.2224H13.8889ZM13.7778 24.1113C13.8391 24.1113 13.8889 24.1611 13.8889 24.2224H11.8889C11.8889 25.2656 12.7345 26.1113 13.7778 26.1113V24.1113ZM26.2222 24.1113H13.7778V26.1113H26.2222V24.1113ZM26.1111 24.2224C26.1111 24.1611 26.1608 24.1113 26.2222 24.1113V26.1113C27.2654 26.1113 28.1111 25.2656 28.1111 24.2224H26.1111ZM26.1111 11.778V24.2224H28.1111V11.778H26.1111ZM26.2222 11.8891C26.1608 11.8891 26.1111 11.8394 26.1111 11.778H28.1111C28.1111 10.7348 27.2654 9.88911 26.2222 9.88911V11.8891ZM13.7778 11.8891H26.2222V9.88911H13.7778V11.8891ZM17.4444 14.8891C17.4444 15.1959 17.1957 15.4447 16.8889 15.4447V13.4447C16.0911 13.4447 15.4444 14.0914 15.4444 14.8891H17.4444ZM16.8889 14.3336C17.1957 14.3336 17.4444 14.5823 17.4444 14.8891H15.4444C15.4444 15.6869 16.0911 16.3336 16.8889 16.3336V14.3336ZM16.3333 14.8891C16.3333 14.5823 16.582 14.3336 16.8889 14.3336V16.3336C17.6866 16.3336 18.3333 15.6869 18.3333 14.8891H16.3333ZM16.8889 15.4447C16.582 15.4447 16.3333 15.1959 16.3333 14.8891H18.3333C18.3333 14.0914 17.6866 13.4447 16.8889 13.4447V15.4447ZM16.8889 11.6669C15.1093 11.6669 13.6666 13.1095 13.6666 14.8891H15.6666C15.6666 14.2141 16.2138 13.6669 16.8889 13.6669V11.6669ZM20.1111 14.8891C20.1111 13.1095 18.6684 11.6669 16.8889 11.6669V13.6669C17.5639 13.6669 18.1111 14.2141 18.1111 14.8891H20.1111ZM16.8889 18.1113C18.6684 18.1113 20.1111 16.6687 20.1111 14.8891H18.1111C18.1111 15.5641 17.5639 16.1113 16.8889 16.1113V18.1113ZM13.6666 14.8891C13.6666 16.6687 15.1093 18.1113 16.8889 18.1113V16.1113C16.2138 16.1113 15.6666 15.5641 15.6666 14.8891H13.6666ZM24.8912 14.8868C24.1535 14.1491 22.9575 14.1491 22.2199 14.8868L23.6341 16.301C23.5907 16.3444 23.5204 16.3444 23.477 16.301L24.8912 14.8868ZM29.3356 19.3312L24.8912 14.8868L23.477 16.301L27.9214 20.7455L29.3356 19.3312ZM29.3356 22.0025C30.0733 21.2649 30.0733 20.0689 29.3356 19.3312L27.9214 20.7455C27.878 20.7021 27.878 20.6317 27.9214 20.5883L29.3356 22.0025ZM26.6643 22.0025C27.402 22.7402 28.598 22.7402 29.3356 22.0025L27.9214 20.5883C27.9648 20.5449 28.0351 20.5449 28.0785 20.5883L26.6643 22.0025ZM22.8484 18.1866L26.6643 22.0025L28.0785 20.5883L24.2626 16.7724L22.8484 18.1866ZM15.1134 27.3359L24.2626 18.1866L22.8484 16.7724L13.6992 25.9216L15.1134 27.3359ZM12.4421 27.3359C13.1798 28.0735 14.3757 28.0735 15.1134 27.3359L13.6992 25.9216C13.7426 25.8783 13.8129 25.8783 13.8563 25.9216L12.4421 27.3359ZM12.4421 24.6646C11.7044 25.4022 11.7044 26.5982 12.4421 27.3359L13.8563 25.9216C13.8997 25.965 13.8997 26.0354 13.8563 26.0788L12.4421 24.6646ZM22.2199 14.8868L12.4421 24.6646L13.8563 26.0788L23.6341 16.301L22.2199 14.8868Z" fill="url(#paint1_linear_8175_1185)"/>
</g>
<defs>
<filter id="filter0_d_8175_1185" x="0.111084" y="3.11133" width="39.7778" height="39.7773" filterUnits="userSpaceOnUse" color-interpolation-filters="sRGB">
<feFlood flood-opacity="0" result="BackgroundImageFix"/>
<feColorMatrix in="SourceAlpha" type="matrix" values="0 0 0 0 0 0 0 0 0 0 0 0 0 0 0 0 0 0 127 0" result="hardAlpha"/>
<feOffset dy="5"/>
<feGaussianBlur stdDeviation="5"/>
<feColorMatrix type="matrix" values="0 0 0 0 0.85098 0 0 0 0 0.466667 0 0 0 0 0.133333 0 0 0 0.497368 0"/>
<feBlend mode="normal" in2="BackgroundImageFix" result="effect1_dropShadow_8175_1185"/>
<feBlend mode="normal" in="SourceGraphic" in2="effect1_dropShadow_8175_1185" result="shape"/>
</filter>
<linearGradient id="paint0_linear_8175_1185" x1="-7.39156" y1="17.9082" x2="18.2302" y2="46.1244" gradientUnits="userSpaceOnUse">
<stop stop-color="#FFA15A"/>
<stop offset="1" stop-color="#E46D14"/>
</linearGradient>
<linearGradient id="paint1_linear_8175_1185" x1="9.38822" y1="7.24761" x2="9.38822" y2="28.4711" gradientUnits="userSpaceOnUse">
<stop stop-color="white"/>
<stop offset="1" stop-color="white" stop-opacity="0.5"/>
</linearGradient>
</defs>
</svg>
