<svg width="20" height="16" viewBox="0 0 20 16" fill="none" xmlns="http://www.w3.org/2000/svg">
<path d="M19.75 14.5C19.8125 14.5 19.8438 14.5312 19.9062 14.5938C19.9688 14.6562 20 14.6875 20 14.75V15.75C20 15.8125 19.9688 15.875 19.9062 15.9375C19.8438 16 19.8125 16 19.75 16H0.25C0.1875 16 0.125 16 0.0625 15.9375C0 15.875 0 15.8125 0 15.75V14.75C0 14.6875 0 14.6562 0.0625 14.5938C0.125 14.5312 0.1875 14.5 0.25 14.5H19.75ZM8 9.5C8 9.375 8.03125 9.25 8.125 9.15625C8.21875 9.0625 8.34375 9 8.5 9C8.625 9 8.75 9.0625 8.84375 9.15625C8.9375 9.25 9 9.375 9 9.5C9 9.65625 8.9375 9.78125 8.84375 9.875C8.75 9.96875 8.625 10 8.5 10C8.34375 10 8.21875 9.96875 8.125 9.875C8.03125 9.78125 8 9.65625 8 9.5ZM15.5 8C15.3438 8 15.2188 7.96875 15.125 7.875C15.0312 7.78125 15 7.65625 15 7.5C15 7.375 15.0312 7.25 15.125 7.15625C15.2188 7.0625 15.3438 7 15.5 7C15.625 7 15.75 7.0625 15.8438 7.15625C15.9375 7.25 16 7.375 16 7.5C16 7.65625 15.9375 7.78125 15.8438 7.875C15.75 7.96875 15.625 8 15.5 8ZM3 8.5C2.84375 8.5 2.71875 8.46875 2.625 8.375C2.53125 8.28125 2.5 8.15625 2.5 8C2.5 7.875 2.53125 7.75 2.625 7.65625C2.71875 7.5625 2.84375 7.5 3 7.5C3.125 7.5 3.25 7.5625 3.34375 7.65625C3.4375 7.75 3.5 7.875 3.5 8C3.5 8.15625 3.4375 8.28125 3.34375 8.375C3.25 8.46875 3.125 8.5 3 8.5ZM18.2812 10.25C18.3438 10.1562 18.3438 10.0312 18.3438 9.875C18.3125 9.75 18.25 9.625 18.125 9.5625C17.625 9.28125 17.0625 8.96875 16.4375 8.65625C16.875 8.28125 17.0312 7.8125 16.9688 7.25C17.6875 7.625 18.3125 7.96875 18.875 8.28125C19.375 8.59375 19.6875 9 19.8125 9.5625C19.9375 10.125 19.8438 10.625 19.5312 11.0938L18.9688 11.9375C18.7812 12.2188 18.5312 12.4375 18.25 12.5938C17.9375 12.75 17.625 12.8125 17.2812 12.8125C16.9062 12.8125 16.5938 12.7188 16.2812 12.5312C15.7188 12.2188 15.125 11.9375 14.5 11.625V13H13V9.46875C14.125 9.8125 15.3125 10.3125 16.5938 11C16.9688 11.2188 17.2188 11.3125 17.2812 11.3125C17.4688 11.3125 17.5938 11.25 17.7188 11.0938L18.2812 10.25ZM1.03125 11.9375L0.46875 11.0938C0.15625 10.625 0.0625 10.125 0.1875 9.5625C0.3125 9 0.59375 8.59375 1.09375 8.28125L1.5 8.03125C1.5 8.34375 1.59375 8.59375 1.71875 8.8125C1.84375 9.03125 2.0625 9.1875 2.3125 9.3125L1.875 9.5625C1.75 9.625 1.65625 9.75 1.625 9.875C1.59375 10.0312 1.625 10.1562 1.71875 10.25L2.28125 11.0938C2.375 11.25 2.5 11.3125 2.6875 11.3125C2.75 11.3125 3 11.2188 3.40625 11C4.65625 10.3125 5.875 9.8125 7 9.46875V13H5.5V11.625C4.84375 11.9375 4.25 12.2188 3.71875 12.5312C3.40625 12.7188 3.0625 12.8125 2.71875 12.8125C2.34375 12.8125 2.03125 12.75 1.75 12.5938C1.4375 12.4375 1.21875 12.2188 1.03125 11.9375ZM4.46875 8.25C4.5 8 4.46875 7.75 4.40625 7.5C4.3125 7.25 4.15625 7.03125 3.96875 6.84375C5.125 6.375 6.25 6.03125 7.375 5.78125C6.78125 5.125 6.5 4.375 6.5 3.5C6.5 2.875 6.65625 2.3125 6.96875 1.75C7.28125 1.21875 7.6875 0.78125 8.25 0.46875C8.78125 0.15625 9.375 0 10 0C10.625 0 11.1875 0.15625 11.75 0.46875C12.2812 0.78125 12.7188 1.21875 13.0312 1.75C13.3438 2.3125 13.5 2.875 13.5 3.5C13.5 4.375 13.1875 5.125 12.625 5.78125C13.2812 5.9375 13.9375 6.125 14.5938 6.3125C14.125 6.6875 13.9375 7.125 14.0312 7.6875C12.5625 7.25 11.2188 7 10 7C8.3125 7 6.46875 7.4375 4.46875 8.25ZM10 1.5C9.4375 1.5 8.96875 1.71875 8.59375 2.09375C8.1875 2.5 8 2.96875 8 3.5C8 4.0625 8.1875 4.53125 8.59375 4.90625C8.96875 5.3125 9.4375 5.5 10 5.5C10.5312 5.5 11 5.3125 11.4062 4.90625C11.7812 4.53125 12 4.0625 12 3.5C12 2.96875 11.7812 2.5 11.4062 2.09375C11 1.71875 10.5312 1.5 10 1.5ZM11 12C11 11.875 11.0312 11.75 11.125 11.6562C11.2188 11.5625 11.3438 11.5 11.5 11.5C11.625 11.5 11.75 11.5625 11.8438 11.6562C11.9375 11.75 12 11.875 12 12C12 12.1562 11.9375 12.2812 11.8438 12.375C11.75 12.4688 11.625 12.5 11.5 12.5C11.3438 12.5 11.2188 12.4688 11.125 12.375C11.0312 12.2812 11 12.1562 11 12Z" fill="#1E2230"/>
</svg>
