<svg width="38" height="38" viewBox="0 0 38 38" fill="none" xmlns="http://www.w3.org/2000/svg">
<g id="icon / ionicons / outline / menu-outline">
<path id="Vector (Stroke)" fill-rule="evenodd" clip-rule="evenodd" d="M4.75 11.875C4.75 11.2192 5.28166 10.6875 5.9375 10.6875H32.0625C32.7183 10.6875 33.25 11.2192 33.25 11.875C33.25 12.5308 32.7183 13.0625 32.0625 13.0625H5.9375C5.28166 13.0625 4.75 12.5308 4.75 11.875Z" fill="#0F172A"/>
<path id="Vector (Stroke)_2" fill-rule="evenodd" clip-rule="evenodd" d="M4.75 19C4.75 18.3442 5.28166 17.8125 5.9375 17.8125H32.0625C32.7183 17.8125 33.25 18.3442 33.25 19C33.25 19.6558 32.7183 20.1875 32.0625 20.1875H5.9375C5.28166 20.1875 4.75 19.6558 4.75 19Z" fill="#0F172A"/>
<path id="Vector (Stroke)_3" fill-rule="evenodd" clip-rule="evenodd" d="M4.75 26.125C4.75 25.4692 5.28166 24.9375 5.9375 24.9375H32.0625C32.7183 24.9375 33.25 25.4692 33.25 26.125C33.25 26.7808 32.7183 27.3125 32.0625 27.3125H5.9375C5.28166 27.3125 4.75 26.7808 4.75 26.125Z" fill="#0F172A"/>
</g>
</svg>
