<svg width="40" height="40" viewBox="0 0 40 40" fill="none" xmlns="http://www.w3.org/2000/svg">
<path fill-rule="evenodd" clip-rule="evenodd" d="M12 0H28C34.6274 0 40 5.37258 40 12V28C40 34.6274 34.6274 40 28 40H12C5.37258 40 0 34.6274 0 28V12C0 5.37258 5.37258 0 12 0Z" fill="url(#paint0_linear_8310_3621)"/>
<rect opacity="0.01" x="8" y="8" width="24" height="24" fill="black"/>
<path fill-rule="evenodd" clip-rule="evenodd" d="M23.7503 10C24.3032 10 24.7514 10.4477 24.7514 11C24.7514 11.4734 24.4221 11.8699 23.9798 11.9736L23.8645 11.993L23.8652 17.4393C23.8651 17.4884 23.8727 17.537 23.8874 17.5835L23.9148 17.6512L26.1125 22.0627L26.1151 22.07L27.7103 25.2737C27.9025 25.7038 28.0014 26.1711 28 26.654L27.9908 26.8966C27.8315 28.6085 26.4281 29.9254 24.7393 29.9967L24.5506 29.9994L16.4568 29.9993C14.7801 30.0218 13.3345 28.8264 13.0407 27.1585C12.9403 26.5195 13.0278 25.867 13.2803 25.2979L17.0863 17.6506C17.1082 17.6067 17.123 17.5599 17.1305 17.5117L17.1361 17.4387L17.1358 11.993C16.6363 11.9355 16.2499 11.5128 16.2499 11C16.2499 10.4872 16.6363 10.0645 17.1342 10.0067L17.251 10H23.7503ZM24.5955 23.508H16.4051L15.1617 26.0059C15.0696 26.1778 15.0166 26.3665 15.004 26.5534L15.0022 26.693L15.0157 26.8301C15.1282 27.468 15.6574 27.942 16.3033 27.9947L16.4433 27.9994L24.5635 27.9995C25.3045 28.0091 25.9285 27.4484 25.9954 26.7325C26.0099 26.5305 25.9784 26.3285 25.8973 26.1284L25.8271 25.9787L24.5955 23.508ZM22.2732 23.572C23.4787 23.572 24.456 24.5482 24.456 25.7523C24.456 26.9565 23.4787 27.9327 22.2732 27.9327C21.0676 27.9327 20.0903 26.9565 20.0903 25.7523C20.0903 24.5482 21.0676 23.572 22.2732 23.572ZM17.5464 24.2769C18.4257 24.2769 19.1384 24.9889 19.1384 25.8671C19.1384 26.7453 18.4257 27.4572 17.5464 27.4572C16.6672 27.4572 15.9544 26.7453 15.9544 25.8671C15.9544 24.9889 16.6672 24.2769 17.5464 24.2769ZM17.5464 25.4572C17.3198 25.4572 17.1361 25.6407 17.1361 25.8671C17.1361 26.0934 17.3198 26.2769 17.5464 26.2769C17.773 26.2769 17.9567 26.0934 17.9567 25.8671C17.9567 25.6407 17.773 25.4572 17.5464 25.4572ZM22.2732 25.572C22.1735 25.572 22.0926 25.6527 22.0926 25.7523C22.0926 25.8519 22.1735 25.9327 22.2732 25.9327C22.3729 25.9327 22.4537 25.8519 22.4537 25.7523C22.4537 25.6527 22.3729 25.572 22.2732 25.572ZM21.8624 12.293H19.1383L19.1376 15.4252C19.42 15.17 19.7944 15.0146 20.2052 15.0146C21.0844 15.0146 21.7972 15.7266 21.7972 16.6048C21.7972 17.483 21.0844 18.195 20.2052 18.195C19.7832 18.195 19.3995 18.0309 19.1146 17.7632C19.0898 17.9698 19.0362 18.1729 18.9576 18.3671L18.8792 18.5412L17.4011 21.508L19.9274 21.5102C19.276 21.3463 18.7938 20.7572 18.7938 20.0556C18.7938 19.2272 19.4661 18.5556 20.2955 18.5556C21.1249 18.5556 21.7972 19.2272 21.7972 20.0556C21.7972 20.7572 21.315 21.3463 20.6636 21.5102L23.5992 21.508L22.1221 18.542C21.9797 18.256 21.8944 17.9458 21.8701 17.6291L21.8629 17.4384L21.8624 12.293ZM20.2955 19.5556C20.019 19.5556 19.7949 19.7795 19.7949 20.0556C19.7949 20.3317 20.019 20.5556 20.2955 20.5556C20.5719 20.5556 20.7961 20.3317 20.7961 20.0556C20.7961 19.7795 20.5719 19.5556 20.2955 19.5556ZM20.2052 16.195C19.9786 16.195 19.7949 16.3784 19.7949 16.6048C19.7949 16.8311 19.9786 17.0146 20.2052 17.0146C20.4318 17.0146 20.6155 16.8311 20.6155 16.6048C20.6155 16.3784 20.4318 16.195 20.2052 16.195Z" fill="white"/>
<defs>
<linearGradient id="paint0_linear_8310_3621" x1="20" y1="60" x2="60" y2="20" gradientUnits="userSpaceOnUse">
<stop stop-color="#0364FF"/>
<stop offset="1" stop-color="#2196F3"/>
</linearGradient>
</defs>
</svg>
