<svg width="40" height="40" viewBox="0 0 40 40" fill="none" xmlns="http://www.w3.org/2000/svg">
<path fill-rule="evenodd" clip-rule="evenodd" d="M12 0H28C34.6274 0 40 5.37258 40 12V28C40 34.6274 34.6274 40 28 40H12C5.37258 40 0 34.6274 0 28V12C0 5.37258 5.37258 0 12 0Z" fill="url(#paint0_linear_8310_3392)"/>
<rect opacity="0.01" x="8" y="8" width="24" height="24" fill="black"/>
<path fill-rule="evenodd" clip-rule="evenodd" d="M12 11H13C14.1046 11 15 11.8954 15 13V14C15 15.1046 14.1046 16 13 16H12C10.8954 16 10 15.1046 10 14V13C10 11.8954 10.8954 11 12 11ZM13 13H12V14H13V13ZM17 12C17 11.4477 17.4477 11 18 11H29C29.5523 11 30 11.4477 30 12C30 12.5523 29.5523 13 29 13H18C17.4477 13 17 12.5523 17 12ZM18 14C17.4477 14 17 14.4477 17 15C17 15.5523 17.4477 16 18 16H20C20.5523 16 21 15.5523 21 15C21 14.4477 20.5523 14 20 14H18ZM17 19C17 18.4477 17.4477 18 18 18H29C29.5523 18 30 18.4477 30 19C30 19.5523 29.5523 20 29 20H18C17.4477 20 17 19.5523 17 19ZM18 21C17.4477 21 17 21.4477 17 22C17 22.5523 17.4477 23 18 23H20C20.5523 23 21 22.5523 21 22C21 21.4477 20.5523 21 20 21H18ZM17 26C17 25.4477 17.4477 25 18 25H29C29.5523 25 30 25.4477 30 26C30 26.5523 29.5523 27 29 27H18C17.4477 27 17 26.5523 17 26ZM18 28C17.4477 28 17 28.4477 17 29C17 29.5523 17.4477 30 18 30H20C20.5523 30 21 29.5523 21 29C21 28.4477 20.5523 28 20 28H18ZM12 18H13C14.1046 18 15 18.8954 15 20V21C15 22.1046 14.1046 23 13 23H12C10.8954 23 10 22.1046 10 21V20C10 18.8954 10.8954 18 12 18ZM13 20H12V21H13V20ZM13 25H12C10.8954 25 10 25.8954 10 27V28C10 29.1046 10.8954 30 12 30H13C14.1046 30 15 29.1046 15 28V27C15 25.8954 14.1046 25 13 25ZM12 27H13V28H12V27Z" fill="white"/>
<defs>
<linearGradient id="paint0_linear_8310_3392" x1="20" y1="60" x2="60" y2="20" gradientUnits="userSpaceOnUse">
<stop stop-color="#0364FF"/>
<stop offset="1" stop-color="#2196F3"/>
</linearGradient>
</defs>
</svg>
