<svg width="40" height="40" viewBox="0 0 40 40" fill="none" xmlns="http://www.w3.org/2000/svg">
<path fill-rule="evenodd" clip-rule="evenodd" d="M12 0H28C34.6274 0 40 5.37258 40 12V28C40 34.6274 34.6274 40 28 40H12C5.37258 40 0 34.6274 0 28V12C0 5.37258 5.37258 0 12 0Z" fill="url(#paint0_linear_8310_3424)"/>
<rect opacity="0.01" x="8" y="8" width="24" height="24" fill="black"/>
<path fill-rule="evenodd" clip-rule="evenodd" d="M15.1667 25H16.8333C16.925 25 17 24.9175 17 24.8167V15.1833C17 15.0825 16.925 15 16.8333 15H15.1667C15.075 15 15 15.0825 15 15.1833V24.8167C15 24.9175 15.075 25 15.1667 25ZM19.1667 25H20.8333C20.925 25 21 24.91 21 24.8V20.2C21 20.09 20.925 20 20.8333 20H19.1667C19.075 20 19 20.09 19 20.2V24.8C19 24.91 19.075 25 19.1667 25ZM23.1667 25H24.8333C24.925 25 25 24.9206 25 24.8235V19.1765C25 19.0794 24.925 19 24.8333 19H23.1667C23.075 19 23 19.0794 23 19.1765V24.8235C23 24.9206 23.075 25 23.1667 25ZM28.24 11H11.76C11.3396 11 11 11.3396 11 11.76V28.24C11 28.6604 11.3396 29 11.76 29H28.24C28.6604 29 29 28.6604 29 28.24V11.76C29 11.3396 28.6604 11 28.24 11ZM27 27H13V13H27V27Z" fill="white"/>
<defs>
<linearGradient id="paint0_linear_8310_3424" x1="20" y1="60" x2="60" y2="20" gradientUnits="userSpaceOnUse">
<stop stop-color="#0364FF"/>
<stop offset="1" stop-color="#2196F3"/>
</linearGradient>
</defs>
</svg>
