<svg width="40" height="40" viewBox="0 0 40 40" fill="none" xmlns="http://www.w3.org/2000/svg">
<path fill-rule="evenodd" clip-rule="evenodd" d="M12 0H28C34.6274 0 40 5.37258 40 12V28C40 34.6274 34.6274 40 28 40H12C5.37258 40 0 34.6274 0 28V12C0 5.37258 5.37258 0 12 0Z" fill="url(#paint0_linear_8310_3446)"/>
<rect opacity="0.01" x="8" y="8" width="24" height="24" fill="black"/>
<path fill-rule="evenodd" clip-rule="evenodd" d="M16.0513 10.6838C16.3414 9.81352 17.5296 9.77396 17.9013 10.5651L17.9487 10.6838L23 25.837L25.0513 19.6838C25.1751 19.3126 25.5021 19.0512 25.884 19.0067L26 19H30C30.5523 19 31 19.4477 31 20C31 20.5128 30.614 20.9355 30.1166 20.9933L30 21H26.72L23.9487 29.3162C23.6586 30.1865 22.4704 30.226 22.0987 29.4349L22.0513 29.3162L17 14.161L14.9487 20.3162C14.8249 20.6874 14.4979 20.9488 14.116 20.9933L14 21H10C9.44772 21 9 20.5523 9 20C9 19.4872 9.38604 19.0645 9.88338 19.0067L10 19H13.279L16.0513 10.6838Z" fill="white"/>
<defs>
<linearGradient id="paint0_linear_8310_3446" x1="20" y1="60" x2="60" y2="20" gradientUnits="userSpaceOnUse">
<stop stop-color="#0364FF"/>
<stop offset="1" stop-color="#2196F3"/>
</linearGradient>
</defs>
</svg>
