<svg width="40" height="40" viewBox="0 0 40 40" fill="none" xmlns="http://www.w3.org/2000/svg">
<path fill-rule="evenodd" clip-rule="evenodd" d="M12 0H28C34.6274 0 40 5.37258 40 12V28C40 34.6274 34.6274 40 28 40H12C5.37258 40 0 34.6274 0 28V12C0 5.37258 5.37258 0 12 0Z" fill="url(#paint0_linear_8310_3465)"/>
<rect opacity="0.01" x="8" y="8" width="24" height="24" fill="black"/>
<path fill-rule="evenodd" clip-rule="evenodd" d="M26 10C28.1422 10 29.8911 11.684 29.9951 13.8004L30 14V26C30 28.1422 28.316 29.8911 26.1996 29.9951L26 30H14C11.8578 30 10.1089 28.316 10.0049 26.1996L10 26V14C10 11.8578 11.684 10.1089 13.8004 10.0049L14 10H26ZM20.44 19.734L19.5173 21.6346C19.3396 22.0008 18.9809 22.2618 18.5506 22.2858C18.156 22.3078 17.7985 22.1247 17.5757 21.8269L17.5066 21.7236L16.952 20.793L16.6775 21.2063C16.4933 21.4832 16.1976 21.6732 15.8575 21.7125L15.728 21.72H12.5C12.3178 21.72 12.147 21.6713 11.9999 21.5861L12 26C12 27.0544 12.8159 27.9182 13.8507 27.9945L14 28H26C27.0544 28 27.9182 27.1841 27.9945 26.1493L28 26L28.0011 21.2256C27.8856 21.2926 27.7554 21.3371 27.6166 21.3533L27.5 21.36L24.567 21.359L23.7723 23.2682C23.6087 23.6621 23.242 23.9489 22.8003 23.9814L22.6656 23.9833C22.2174 23.9638 21.8514 23.6901 21.6766 23.3134L21.63 23.1975L20.44 19.734ZM26 12H14C12.9456 12 12.0818 12.8159 12.0055 13.8507L12 14L11.9999 19.8539C12.1151 19.7872 12.2449 19.7428 12.3834 19.7267L12.5 19.72H15.263L16.0418 18.553C16.2324 18.2646 16.5433 18.0704 16.8965 18.0403L17.0307 18.0368C17.3894 18.0486 17.7047 18.2268 17.9056 18.4958L17.9754 18.6008L18.411 19.333L19.5486 16.9949C19.732 16.6183 20.1054 16.3579 20.5387 16.3441L20.6704 16.3476C21.0971 16.3831 21.4416 16.6478 21.6116 17.0073L21.6616 17.1304L22.791 20.422L22.9404 20.0653C23.0994 19.693 23.4409 19.4175 23.8636 19.368L23.9927 19.36H27.5C27.6826 19.36 27.8538 19.4089 28.0011 19.4944L28 14C28 12.9456 27.1841 12.0818 26.1493 12.0055L26 12Z" fill="white"/>
<defs>
<linearGradient id="paint0_linear_8310_3465" x1="20" y1="60" x2="60" y2="20" gradientUnits="userSpaceOnUse">
<stop stop-color="#0364FF"/>
<stop offset="1" stop-color="#2196F3"/>
</linearGradient>
</defs>
</svg>
