<svg width="40" height="40" viewBox="0 0 40 40" fill="none" xmlns="http://www.w3.org/2000/svg">
<path fill-rule="evenodd" clip-rule="evenodd" d="M12 0H28C34.6274 0 40 5.37258 40 12V28C40 34.6274 34.6274 40 28 40H12C5.37258 40 0 34.6274 0 28V12C0 5.37258 5.37258 0 12 0Z" fill="url(#paint0_linear_8310_3512)"/>
<rect opacity="0.01" x="8" y="8" width="24" height="24" fill="black"/>
<path fill-rule="evenodd" clip-rule="evenodd" d="M14.8122 10.3027C15.1727 10.6631 15.2004 11.2304 14.8954 11.6227L14.8122 11.7169L14.6754 11.8526L15.5804 12.7572L16.5595 11.7781C16.95 11.3875 17.5832 11.3875 17.9737 11.7781C18.3342 12.1386 18.3619 12.7058 18.0569 13.0981L17.9737 13.1923L17.8374 13.3276L25.3508 20.8412C25.8937 21.3842 26.1336 22.1155 26.0703 22.8248L26.6155 23.37C26.8592 23.6135 26.9961 23.9438 26.9961 24.2883C26.9961 24.5836 26.8955 24.8684 26.7135 25.0969L26.6864 25.1276L29.5663 28.0076C29.9568 28.3981 29.9568 29.0313 29.5663 29.4218C29.2058 29.7823 28.6386 29.81 28.2463 29.505L28.1521 29.4218L25.2714 26.5406L25.2419 26.5685C25.0133 26.7507 24.7284 26.8512 24.4331 26.8512C24.1379 26.8512 23.853 26.7507 23.6245 26.5687L23.5152 26.471L22.9699 25.9257C22.3156 25.9842 21.6426 25.7848 21.1159 25.3276L20.9857 25.2062L13.4724 17.6926L13.3368 17.8292C12.9463 18.2197 12.3131 18.2197 11.9226 17.8292C11.5621 17.4687 11.5344 16.9015 11.8394 16.5092L11.9226 16.415L12.9016 15.436L11.9974 14.5316L11.8614 14.6677C11.4709 15.0582 10.8377 15.0582 10.4472 14.6677C10.0867 14.3072 10.059 13.74 10.364 13.3477L10.4472 13.2535L13.398 10.3027C13.7885 9.91213 14.4217 9.91213 14.8122 10.3027ZM14.9953 16.1697L14.8864 16.2786L18.7414 20.1336L20.2784 18.5966L16.4234 14.7416L16.3142 14.8508C16.3055 14.8601 16.2967 14.8693 16.2876 14.8784C16.2786 14.8874 16.2694 14.8963 16.2601 14.9049L15.0495 16.1155C15.0408 16.1248 15.032 16.134 15.0229 16.1431C15.0139 16.1522 15.0047 16.161 14.9953 16.1697ZM22.9345 23.8984C22.9288 23.9006 22.923 23.9029 22.9173 23.9052C22.7432 23.9696 22.5398 23.9319 22.3999 23.792L20.1554 21.5476L21.6924 20.0106L23.9366 22.2554L23.9994 22.3324C24.1251 22.5227 24.1041 22.7814 23.9365 22.949L23.0935 23.792L23.0166 23.8549C22.9904 23.8722 22.9629 23.8867 22.9345 23.8984Z" fill="white"/>
<defs>
<linearGradient id="paint0_linear_8310_3512" x1="20" y1="60" x2="60" y2="20" gradientUnits="userSpaceOnUse">
<stop stop-color="#0364FF"/>
<stop offset="1" stop-color="#2196F3"/>
</linearGradient>
</defs>
</svg>
