<svg width="40" height="40" viewBox="0 0 40 40" fill="none" xmlns="http://www.w3.org/2000/svg">
<path fill-rule="evenodd" clip-rule="evenodd" d="M12 0H28C34.6274 0 40 5.37258 40 12V28C40 34.6274 34.6274 40 28 40H12C5.37258 40 0 34.6274 0 28V12C0 5.37258 5.37258 0 12 0Z" fill="url(#paint0_linear_8310_3537)"/>
<rect opacity="0.01" x="8" y="8" width="24" height="24" fill="black"/>
<path fill-rule="evenodd" clip-rule="evenodd" d="M18.3984 10H10.7812C10.3497 10 10 10.3497 10 10.7812C10 11.2128 10.3497 11.5625 10.7812 11.5625H11.1719V26.582C11.1719 28.4666 12.7052 30 14.5898 30C16.4745 30 18.0078 28.4666 18.0078 26.582V17.4219C18.0078 16.9904 17.6581 16.6406 17.2266 16.6406H12.7344V11.5625H16.4453V13.5156C16.4453 13.9471 16.795 14.2969 17.2266 14.2969C17.6581 14.2969 18.0078 13.9471 18.0078 13.5156V11.5625H18.3984C18.83 11.5625 19.1797 11.2128 19.1797 10.7812C19.1797 10.3497 18.83 10 18.3984 10ZM16.4453 18.2031V26.582C16.4453 27.6051 15.6129 28.4375 14.5898 28.4375C13.5667 28.4375 12.7344 27.6051 12.7344 26.582V18.2031H16.4453ZM29.2188 10H21.6016C21.17 10 20.8203 10.3497 20.8203 10.7812C20.8203 11.2128 21.17 11.5625 21.6016 11.5625H21.9922V26.582C21.9922 28.4666 23.5255 30 25.4102 30C27.2948 30 28.8281 28.4666 28.8281 26.582V19.7656C28.8281 19.3341 28.4784 18.9844 28.0469 18.9844H23.5547V11.5625H27.2656V15.8594C27.2656 16.2909 27.6154 16.6406 28.0469 16.6406C28.4784 16.6406 28.8281 16.2909 28.8281 15.8594V11.5625H29.2188C29.6503 11.5625 30 11.2128 30 10.7812C30 10.3497 29.6503 10 29.2188 10ZM27.2656 20.5469V26.582C27.2656 27.6051 26.4333 28.4375 25.4102 28.4375C24.3871 28.4375 23.5547 27.6051 23.5547 26.582V20.5469H27.2656Z" fill="white"/>
<defs>
<linearGradient id="paint0_linear_8310_3537" x1="20" y1="60" x2="60" y2="20" gradientUnits="userSpaceOnUse">
<stop stop-color="#0364FF"/>
<stop offset="1" stop-color="#2196F3"/>
</linearGradient>
</defs>
</svg>
