<svg width="40" height="40" viewBox="0 0 40 40" fill="none" xmlns="http://www.w3.org/2000/svg">
<path fill-rule="evenodd" clip-rule="evenodd" d="M12 0H28C34.6274 0 40 5.37258 40 12V28C40 34.6274 34.6274 40 28 40H12C5.37258 40 0 34.6274 0 28V12C0 5.37258 5.37258 0 12 0Z" fill="url(#paint0_linear_8310_3598)"/>
<rect opacity="0.01" x="8" y="8" width="24" height="24" fill="black"/>
<path fill-rule="evenodd" clip-rule="evenodd" d="M16.082 16.1028L15.3854 16.7993L15.3854 16.7994L11.6126 20.5725L11.4384 20.7557C9.46446 22.9277 9.52247 26.2842 11.6106 28.3845C13.775 30.5364 17.2643 30.5364 19.4247 28.3886L23.1998 24.6138L23.1999 24.6138L23.9025 23.9111L23.9069 23.9067L28.3869 19.4265C30.5367 17.2641 30.5367 13.7748 28.3889 11.6144C26.2244 9.46255 22.7351 9.46255 20.5748 11.6103L16.0936 16.0912C16.0932 16.0916 16.0929 16.0919 16.0925 16.0923L16.082 16.1028ZM16.7997 18.2136L13.0289 21.9846C11.6567 23.3649 11.6567 25.5942 13.0248 26.9703C14.3557 28.2935 16.4762 28.3408 17.8617 27.1139L18.0125 26.9723L21.7856 23.1995L16.7997 18.2136ZM27.116 13.1793C28.341 14.5629 28.2938 16.6834 26.9706 18.0143L23.1997 21.7845L18.2137 16.7995L21.9869 13.0266C23.3651 11.6564 25.5944 11.6564 26.9747 13.0286L27.116 13.1793ZM21.2934 15.2327C22.4483 14.0805 24.168 13.7502 25.6529 14.3559C26.1643 14.5645 26.4098 15.1481 26.2012 15.6595C25.9926 16.1709 25.409 16.4164 24.8976 16.2078C24.151 15.9033 23.2866 16.0692 22.706 16.6485C22.3151 17.0386 21.6819 17.0379 21.2918 16.6469C20.9018 16.2559 20.9025 15.6228 21.2934 15.2327Z" fill="white"/>
<defs>
<linearGradient id="paint0_linear_8310_3598" x1="20" y1="60" x2="60" y2="20" gradientUnits="userSpaceOnUse">
<stop stop-color="#0364FF"/>
<stop offset="1" stop-color="#2196F3"/>
</linearGradient>
</defs>
</svg>
