<svg width="1522" height="460" viewBox="0 0 1522 460" fill="none" xmlns="http://www.w3.org/2000/svg">
<g filter="url(#filter0_d_10105_112)">
<rect x="5" y="5" width="1512" height="450" rx="15" fill="white"/>
</g>
<path d="M52.716 38.396C52.716 39.2173 52.518 39.9873 52.122 40.706C51.7407 41.4247 51.132 42.004 50.296 42.444C49.4747 42.884 48.4333 43.104 47.172 43.104H44.598V49H41.518V33.644H47.172C48.36 33.644 49.372 33.8493 50.208 34.26C51.044 34.6707 51.6673 35.2353 52.078 35.954C52.5033 36.6727 52.716 37.4867 52.716 38.396ZM47.04 40.618C47.8907 40.618 48.5213 40.4273 48.932 40.046C49.3427 39.65 49.548 39.1 49.548 38.396C49.548 36.9 48.712 36.152 47.04 36.152H44.598V40.618H47.04ZM54.1108 42.862C54.1108 41.63 54.3528 40.5373 54.8368 39.584C55.3354 38.6307 56.0028 37.8973 56.8388 37.384C57.6894 36.8707 58.6354 36.614 59.6768 36.614C60.5861 36.614 61.3781 36.7973 62.0528 37.164C62.7421 37.5307 63.2921 37.9927 63.7028 38.55V36.812H66.8048V49H63.7028V47.218C63.3068 47.79 62.7568 48.2667 62.0528 48.648C61.3634 49.0147 60.5641 49.198 59.6548 49.198C58.6281 49.198 57.6894 48.934 56.8388 48.406C56.0028 47.878 55.3354 47.1373 54.8368 46.184C54.3528 45.216 54.1108 44.1087 54.1108 42.862ZM63.7028 42.906C63.7028 42.158 63.5561 41.52 63.2628 40.992C62.9694 40.4493 62.5734 40.0387 62.0748 39.76C61.5761 39.4667 61.0408 39.32 60.4688 39.32C59.8968 39.32 59.3688 39.4593 58.8848 39.738C58.4008 40.0167 58.0048 40.4273 57.6968 40.97C57.4034 41.498 57.2568 42.1287 57.2568 42.862C57.2568 43.5953 57.4034 44.2407 57.6968 44.798C58.0048 45.3407 58.4008 45.7587 58.8848 46.052C59.3834 46.3453 59.9114 46.492 60.4688 46.492C61.0408 46.492 61.5761 46.3527 62.0748 46.074C62.5734 45.7807 62.9694 45.37 63.2628 44.842C63.5561 44.2993 63.7028 43.654 63.7028 42.906ZM73.3989 39.342V45.238C73.3989 45.6487 73.4943 45.9493 73.6849 46.14C73.8903 46.316 74.2276 46.404 74.6969 46.404H76.1269V49H74.1909C71.5949 49 70.2969 47.7387 70.2969 45.216V39.342H68.8449V36.812H70.2969V33.798H73.3989V36.812H76.1269V39.342H73.3989ZM79.9042 35.36C79.3616 35.36 78.9069 35.1913 78.5402 34.854C78.1882 34.502 78.0122 34.0693 78.0122 33.556C78.0122 33.0427 78.1882 32.6173 78.5402 32.28C78.9069 31.928 79.3616 31.752 79.9042 31.752C80.4469 31.752 80.8942 31.928 81.2462 32.28C81.6129 32.6173 81.7962 33.0427 81.7962 33.556C81.7962 34.0693 81.6129 34.502 81.2462 34.854C80.8942 35.1913 80.4469 35.36 79.9042 35.36ZM81.4222 36.812V49H78.3422V36.812H81.4222ZM95.7953 42.642C95.7953 43.082 95.7659 43.478 95.7073 43.83H86.7973C86.8706 44.71 87.1786 45.3993 87.7213 45.898C88.2639 46.3967 88.9313 46.646 89.7233 46.646C90.8673 46.646 91.6813 46.1547 92.1653 45.172H95.4873C95.1353 46.3453 94.4606 47.3133 93.4633 48.076C92.4659 48.824 91.2413 49.198 89.7893 49.198C88.6159 49.198 87.5599 48.9413 86.6213 48.428C85.6973 47.9 84.9713 47.1593 84.4433 46.206C83.9299 45.2527 83.6733 44.1527 83.6733 42.906C83.6733 41.6447 83.9299 40.5373 84.4433 39.584C84.9566 38.6307 85.6753 37.8973 86.5993 37.384C87.5233 36.8707 88.5866 36.614 89.7893 36.614C90.9479 36.614 91.9819 36.8633 92.8913 37.362C93.8153 37.8607 94.5266 38.572 95.0253 39.496C95.5386 40.4053 95.7953 41.454 95.7953 42.642ZM92.6053 41.762C92.5906 40.97 92.3046 40.3393 91.7473 39.87C91.1899 39.386 90.5079 39.144 89.7013 39.144C88.9386 39.144 88.2933 39.3787 87.7653 39.848C87.2519 40.3027 86.9366 40.9407 86.8193 41.762H92.6053ZM104.797 36.636C106.249 36.636 107.423 37.098 108.317 38.022C109.212 38.9313 109.659 40.2073 109.659 41.85V49H106.579V42.268C106.579 41.3 106.337 40.5593 105.853 40.046C105.369 39.518 104.709 39.254 103.873 39.254C103.023 39.254 102.348 39.518 101.849 40.046C101.365 40.5593 101.123 41.3 101.123 42.268V49H98.0434V36.812H101.123V38.33C101.534 37.802 102.055 37.3913 102.685 37.098C103.331 36.79 104.035 36.636 104.797 36.636ZM116.174 39.342V45.238C116.174 45.6487 116.27 45.9493 116.46 46.14C116.666 46.316 117.003 46.404 117.472 46.404H118.902V49H116.966C114.37 49 113.072 47.7387 113.072 45.216V39.342H111.62V36.812H113.072V33.798H116.174V36.812H118.902V39.342H116.174ZM135.776 46.074H129.66L128.648 49H125.414L130.936 33.622H134.522L140.044 49H136.788L135.776 46.074ZM134.94 43.61L132.718 37.186L130.496 43.61H134.94ZM145.188 38.572C145.584 38.0147 146.127 37.5527 146.816 37.186C147.52 36.8047 148.319 36.614 149.214 36.614C150.255 36.614 151.194 36.8707 152.03 37.384C152.881 37.8973 153.548 38.6307 154.032 39.584C154.531 40.5227 154.78 41.6153 154.78 42.862C154.78 44.1087 154.531 45.216 154.032 46.184C153.548 47.1373 152.881 47.878 152.03 48.406C151.194 48.934 150.255 49.198 149.214 49.198C148.319 49.198 147.527 49.0147 146.838 48.648C146.163 48.2813 145.613 47.8193 145.188 47.262V54.808H142.108V36.812H145.188V38.572ZM151.634 42.862C151.634 42.1287 151.48 41.498 151.172 40.97C150.879 40.4273 150.483 40.0167 149.984 39.738C149.5 39.4593 148.972 39.32 148.4 39.32C147.843 39.32 147.315 39.4667 146.816 39.76C146.332 40.0387 145.936 40.4493 145.628 40.992C145.335 41.5347 145.188 42.1727 145.188 42.906C145.188 43.6393 145.335 44.2773 145.628 44.82C145.936 45.3627 146.332 45.7807 146.816 46.074C147.315 46.3527 147.843 46.492 148.4 46.492C148.972 46.492 149.5 46.3453 149.984 46.052C150.483 45.7587 150.879 45.3407 151.172 44.798C151.48 44.2553 151.634 43.61 151.634 42.862ZM160.098 38.572C160.494 38.0147 161.037 37.5527 161.726 37.186C162.43 36.8047 163.229 36.614 164.124 36.614C165.165 36.614 166.104 36.8707 166.94 37.384C167.791 37.8973 168.458 38.6307 168.942 39.584C169.441 40.5227 169.69 41.6153 169.69 42.862C169.69 44.1087 169.441 45.216 168.942 46.184C168.458 47.1373 167.791 47.878 166.94 48.406C166.104 48.934 165.165 49.198 164.124 49.198C163.229 49.198 162.437 49.0147 161.748 48.648C161.073 48.2813 160.523 47.8193 160.098 47.262V54.808H157.018V36.812H160.098V38.572ZM166.544 42.862C166.544 42.1287 166.39 41.498 166.082 40.97C165.789 40.4273 165.393 40.0167 164.894 39.738C164.41 39.4593 163.882 39.32 163.31 39.32C162.753 39.32 162.225 39.4667 161.726 39.76C161.242 40.0387 160.846 40.4493 160.538 40.992C160.245 41.5347 160.098 42.1727 160.098 42.906C160.098 43.6393 160.245 44.2773 160.538 44.82C160.846 45.3627 161.242 45.7807 161.726 46.074C162.225 46.3527 162.753 46.492 163.31 46.492C163.882 46.492 164.41 46.3453 164.894 46.052C165.393 45.7587 165.789 45.3407 166.082 44.798C166.39 44.2553 166.544 43.61 166.544 42.862ZM177.34 49.198C176.167 49.198 175.111 48.9413 174.172 48.428C173.233 47.9 172.493 47.1593 171.95 46.206C171.422 45.2527 171.158 44.1527 171.158 42.906C171.158 41.6593 171.429 40.5593 171.972 39.606C172.529 38.6527 173.285 37.9193 174.238 37.406C175.191 36.878 176.255 36.614 177.428 36.614C178.601 36.614 179.665 36.878 180.618 37.406C181.571 37.9193 182.319 38.6527 182.862 39.606C183.419 40.5593 183.698 41.6593 183.698 42.906C183.698 44.1527 183.412 45.2527 182.84 46.206C182.283 47.1593 181.52 47.9 180.552 48.428C179.599 48.9413 178.528 49.198 177.34 49.198ZM177.34 46.514C177.897 46.514 178.418 46.382 178.902 46.118C179.401 45.8393 179.797 45.4287 180.09 44.886C180.383 44.3433 180.53 43.6833 180.53 42.906C180.53 41.7473 180.222 40.86 179.606 40.244C179.005 39.6133 178.264 39.298 177.384 39.298C176.504 39.298 175.763 39.6133 175.162 40.244C174.575 40.86 174.282 41.7473 174.282 42.906C174.282 44.0647 174.568 44.9593 175.14 45.59C175.727 46.206 176.46 46.514 177.34 46.514ZM187.519 35.36C186.977 35.36 186.522 35.1913 186.155 34.854C185.803 34.502 185.627 34.0693 185.627 33.556C185.627 33.0427 185.803 32.6173 186.155 32.28C186.522 31.928 186.977 31.752 187.519 31.752C188.062 31.752 188.509 31.928 188.861 32.28C189.228 32.6173 189.411 33.0427 189.411 33.556C189.411 34.0693 189.228 34.502 188.861 34.854C188.509 35.1913 188.062 35.36 187.519 35.36ZM189.037 36.812V49H185.957V36.812H189.037ZM198.835 36.636C200.287 36.636 201.46 37.098 202.355 38.022C203.249 38.9313 203.697 40.2073 203.697 41.85V49H200.617V42.268C200.617 41.3 200.375 40.5593 199.891 40.046C199.407 39.518 198.747 39.254 197.911 39.254C197.06 39.254 196.385 39.518 195.887 40.046C195.403 40.5593 195.161 41.3 195.161 42.268V49H192.081V36.812H195.161V38.33C195.571 37.802 196.092 37.3913 196.723 37.098C197.368 36.79 198.072 36.636 198.835 36.636ZM210.211 39.342V45.238C210.211 45.6487 210.307 45.9493 210.497 46.14C210.703 46.316 211.04 46.404 211.509 46.404H212.939V49H211.003C208.407 49 207.109 47.7387 207.109 45.216V39.342H205.657V36.812H207.109V33.798H210.211V36.812H212.939V39.342H210.211ZM230.291 36.636C231.787 36.636 232.989 37.098 233.899 38.022C234.823 38.9313 235.285 40.2073 235.285 41.85V49H232.205V42.268C232.205 41.3147 231.963 40.5887 231.479 40.09C230.995 39.5767 230.335 39.32 229.499 39.32C228.663 39.32 227.995 39.5767 227.497 40.09C227.013 40.5887 226.771 41.3147 226.771 42.268V49H223.691V42.268C223.691 41.3147 223.449 40.5887 222.965 40.09C222.481 39.5767 221.821 39.32 220.985 39.32C220.134 39.32 219.459 39.5767 218.961 40.09C218.477 40.5887 218.235 41.3147 218.235 42.268V49H215.155V36.812H218.235V38.286C218.631 37.7727 219.137 37.3693 219.753 37.076C220.383 36.7827 221.073 36.636 221.821 36.636C222.774 36.636 223.625 36.8413 224.373 37.252C225.121 37.648 225.7 38.22 226.111 38.968C226.507 38.264 227.079 37.6993 227.827 37.274C228.589 36.8487 229.411 36.636 230.291 36.636ZM249.537 42.642C249.537 43.082 249.508 43.478 249.449 43.83H240.539C240.613 44.71 240.921 45.3993 241.463 45.898C242.006 46.3967 242.673 46.646 243.465 46.646C244.609 46.646 245.423 46.1547 245.907 45.172H249.229C248.877 46.3453 248.203 47.3133 247.205 48.076C246.208 48.824 244.983 49.198 243.531 49.198C242.358 49.198 241.302 48.9413 240.363 48.428C239.439 47.9 238.713 47.1593 238.185 46.206C237.672 45.2527 237.415 44.1527 237.415 42.906C237.415 41.6447 237.672 40.5373 238.185 39.584C238.699 38.6307 239.417 37.8973 240.341 37.384C241.265 36.8707 242.329 36.614 243.531 36.614C244.69 36.614 245.724 36.8633 246.633 37.362C247.557 37.8607 248.269 38.572 248.767 39.496C249.281 40.4053 249.537 41.454 249.537 42.642ZM246.347 41.762C246.333 40.97 246.047 40.3393 245.489 39.87C244.932 39.386 244.25 39.144 243.443 39.144C242.681 39.144 242.035 39.3787 241.507 39.848C240.994 40.3027 240.679 40.9407 240.561 41.762H246.347ZM258.54 36.636C259.992 36.636 261.165 37.098 262.06 38.022C262.954 38.9313 263.402 40.2073 263.402 41.85V49H260.322V42.268C260.322 41.3 260.08 40.5593 259.596 40.046C259.112 39.518 258.452 39.254 257.616 39.254C256.765 39.254 256.09 39.518 255.592 40.046C255.108 40.5593 254.866 41.3 254.866 42.268V49H251.786V36.812H254.866V38.33C255.276 37.802 255.797 37.3913 256.428 37.098C257.073 36.79 257.777 36.636 258.54 36.636ZM269.917 39.342V45.238C269.917 45.6487 270.012 45.9493 270.203 46.14C270.408 46.316 270.745 46.404 271.215 46.404H272.645V49H270.709C268.113 49 266.815 47.7387 266.815 45.216V39.342H265.363V36.812H266.815V33.798H269.917V36.812H272.645V39.342H269.917ZM285.404 49.154C284.333 49.154 283.365 48.9707 282.5 48.604C281.649 48.2373 280.975 47.7093 280.476 47.02C279.977 46.3307 279.721 45.5167 279.706 44.578H283.006C283.05 45.2087 283.27 45.7073 283.666 46.074C284.077 46.4407 284.634 46.624 285.338 46.624C286.057 46.624 286.621 46.4553 287.032 46.118C287.443 45.766 287.648 45.3113 287.648 44.754C287.648 44.2993 287.509 43.9253 287.23 43.632C286.951 43.3387 286.599 43.1113 286.174 42.95C285.763 42.774 285.191 42.5833 284.458 42.378C283.461 42.0847 282.647 41.7987 282.016 41.52C281.4 41.2267 280.865 40.794 280.41 40.222C279.97 39.6353 279.75 38.858 279.75 37.89C279.75 36.9807 279.977 36.1887 280.432 35.514C280.887 34.8393 281.525 34.326 282.346 33.974C283.167 33.6073 284.106 33.424 285.162 33.424C286.746 33.424 288.029 33.8127 289.012 34.59C290.009 35.3527 290.559 36.4233 290.662 37.802H287.274C287.245 37.274 287.017 36.8413 286.592 36.504C286.181 36.152 285.631 35.976 284.942 35.976C284.341 35.976 283.857 36.13 283.49 36.438C283.138 36.746 282.962 37.1933 282.962 37.78C282.962 38.1907 283.094 38.5353 283.358 38.814C283.637 39.078 283.974 39.298 284.37 39.474C284.781 39.6353 285.353 39.826 286.086 40.046C287.083 40.3393 287.897 40.6327 288.528 40.926C289.159 41.2193 289.701 41.6593 290.156 42.246C290.611 42.8327 290.838 43.6027 290.838 44.556C290.838 45.3773 290.625 46.14 290.2 46.844C289.775 47.548 289.151 48.1127 288.33 48.538C287.509 48.9487 286.533 49.154 285.404 49.154ZM297.094 39.342V45.238C297.094 45.6487 297.19 45.9493 297.38 46.14C297.586 46.316 297.923 46.404 298.392 46.404H299.822V49H297.886C295.29 49 293.992 47.7387 293.992 45.216V39.342H292.54V36.812H293.992V33.798H297.094V36.812H299.822V39.342H297.094ZM301.246 42.862C301.246 41.63 301.488 40.5373 301.972 39.584C302.47 38.6307 303.138 37.8973 303.974 37.384C304.824 36.8707 305.77 36.614 306.812 36.614C307.721 36.614 308.513 36.7973 309.188 37.164C309.877 37.5307 310.427 37.9927 310.838 38.55V36.812H313.94V49H310.838V47.218C310.442 47.79 309.892 48.2667 309.188 48.648C308.498 49.0147 307.699 49.198 306.79 49.198C305.763 49.198 304.824 48.934 303.974 48.406C303.138 47.878 302.47 47.1373 301.972 46.184C301.488 45.216 301.246 44.1087 301.246 42.862ZM310.838 42.906C310.838 42.158 310.691 41.52 310.398 40.992C310.104 40.4493 309.708 40.0387 309.21 39.76C308.711 39.4667 308.176 39.32 307.604 39.32C307.032 39.32 306.504 39.4593 306.02 39.738C305.536 40.0167 305.14 40.4273 304.832 40.97C304.538 41.498 304.392 42.1287 304.392 42.862C304.392 43.5953 304.538 44.2407 304.832 44.798C305.14 45.3407 305.536 45.7587 306.02 46.052C306.518 46.3453 307.046 46.492 307.604 46.492C308.176 46.492 308.711 46.3527 309.21 46.074C309.708 45.7807 310.104 45.37 310.398 44.842C310.691 44.2993 310.838 43.654 310.838 42.906ZM320.534 39.342V45.238C320.534 45.6487 320.629 45.9493 320.82 46.14C321.025 46.316 321.362 46.404 321.832 46.404H323.262V49H321.326C318.73 49 317.432 47.7387 317.432 45.216V39.342H315.98V36.812H317.432V33.798H320.534V36.812H323.262V39.342H320.534ZM336.983 36.812V49H333.881V47.46C333.485 47.988 332.964 48.406 332.319 48.714C331.688 49.0073 330.999 49.154 330.251 49.154C329.298 49.154 328.454 48.956 327.721 48.56C326.988 48.1493 326.408 47.5553 325.983 46.778C325.572 45.986 325.367 45.0473 325.367 43.962V36.812H328.447V43.522C328.447 44.49 328.689 45.238 329.173 45.766C329.657 46.2793 330.317 46.536 331.153 46.536C332.004 46.536 332.671 46.2793 333.155 45.766C333.639 45.238 333.881 44.49 333.881 43.522V36.812H336.983ZM344.686 49.198C343.689 49.198 342.794 49.022 342.002 48.67C341.21 48.3033 340.579 47.812 340.11 47.196C339.655 46.58 339.406 45.898 339.362 45.15H342.464C342.523 45.6193 342.75 46.008 343.146 46.316C343.557 46.624 344.063 46.778 344.664 46.778C345.251 46.778 345.705 46.6607 346.028 46.426C346.365 46.1913 346.534 45.8907 346.534 45.524C346.534 45.128 346.329 44.8347 345.918 44.644C345.522 44.4387 344.884 44.2187 344.004 43.984C343.095 43.764 342.347 43.5367 341.76 43.302C341.188 43.0673 340.689 42.708 340.264 42.224C339.853 41.74 339.648 41.0873 339.648 40.266C339.648 39.5913 339.839 38.9753 340.22 38.418C340.616 37.8607 341.173 37.4207 341.892 37.098C342.625 36.7753 343.483 36.614 344.466 36.614C345.918 36.614 347.077 36.9807 347.942 37.714C348.807 38.4327 349.284 39.408 349.372 40.64H346.424C346.38 40.156 346.175 39.7747 345.808 39.496C345.456 39.2027 344.979 39.056 344.378 39.056C343.821 39.056 343.388 39.1587 343.08 39.364C342.787 39.5693 342.64 39.8553 342.64 40.222C342.64 40.6327 342.845 40.948 343.256 41.168C343.667 41.3733 344.305 41.586 345.17 41.806C346.05 42.026 346.776 42.2533 347.348 42.488C347.92 42.7227 348.411 43.0893 348.822 43.588C349.247 44.072 349.467 44.7173 349.482 45.524C349.482 46.228 349.284 46.8587 348.888 47.416C348.507 47.9733 347.949 48.4133 347.216 48.736C346.497 49.044 345.654 49.198 344.686 49.198Z" fill="#1B1B29"/>
<g clip-path="url(#clip0_10105_112)">
<path d="M471.46 417.52H466.596L465.7 420H464.164L468.196 408.912H469.876L473.892 420H472.356L471.46 417.52ZM471.044 416.336L469.028 410.704L467.012 416.336H471.044ZM475.105 415.6C475.105 414.693 475.286 413.904 475.649 413.232C476.012 412.549 476.513 412.021 477.153 411.648C477.804 411.275 478.545 411.088 479.377 411.088C480.454 411.088 481.34 411.349 482.033 411.872C482.737 412.395 483.201 413.12 483.425 414.048H481.857C481.708 413.515 481.414 413.093 480.977 412.784C480.55 412.475 480.017 412.32 479.377 412.32C478.545 412.32 477.873 412.608 477.361 413.184C476.849 413.749 476.593 414.555 476.593 415.6C476.593 416.656 476.849 417.472 477.361 418.048C477.873 418.624 478.545 418.912 479.377 418.912C480.017 418.912 480.55 418.763 480.977 418.464C481.404 418.165 481.697 417.739 481.857 417.184H483.425C483.19 418.08 482.721 418.8 482.017 419.344C481.313 419.877 480.433 420.144 479.377 420.144C478.545 420.144 477.804 419.957 477.153 419.584C476.513 419.211 476.012 418.683 475.649 418C475.286 417.317 475.105 416.517 475.105 415.6ZM484.824 415.6C484.824 414.693 485.005 413.904 485.368 413.232C485.73 412.549 486.232 412.021 486.872 411.648C487.522 411.275 488.264 411.088 489.096 411.088C490.173 411.088 491.058 411.349 491.752 411.872C492.456 412.395 492.92 413.12 493.144 414.048H491.576C491.426 413.515 491.133 413.093 490.696 412.784C490.269 412.475 489.736 412.32 489.096 412.32C488.264 412.32 487.592 412.608 487.08 413.184C486.568 413.749 486.312 414.555 486.312 415.6C486.312 416.656 486.568 417.472 487.08 418.048C487.592 418.624 488.264 418.912 489.096 418.912C489.736 418.912 490.269 418.763 490.696 418.464C491.122 418.165 491.416 417.739 491.576 417.184H493.144C492.909 418.08 492.44 418.8 491.736 419.344C491.032 419.877 490.152 420.144 489.096 420.144C488.264 420.144 487.522 419.957 486.872 419.584C486.232 419.211 485.73 418.683 485.368 418C485.005 417.317 484.824 416.517 484.824 415.6ZM503.087 415.28C503.087 415.557 503.071 415.851 503.039 416.16H496.031C496.084 417.024 496.377 417.701 496.911 418.192C497.455 418.672 498.111 418.912 498.879 418.912C499.508 418.912 500.031 418.768 500.447 418.48C500.873 418.181 501.172 417.787 501.343 417.296H502.911C502.676 418.139 502.207 418.827 501.503 419.36C500.799 419.883 499.924 420.144 498.879 420.144C498.047 420.144 497.3 419.957 496.639 419.584C495.988 419.211 495.476 418.683 495.103 418C494.729 417.307 494.543 416.507 494.543 415.6C494.543 414.693 494.724 413.899 495.087 413.216C495.449 412.533 495.956 412.011 496.607 411.648C497.268 411.275 498.025 411.088 498.879 411.088C499.711 411.088 500.447 411.269 501.087 411.632C501.727 411.995 502.217 412.496 502.559 413.136C502.911 413.765 503.087 414.48 503.087 415.28ZM501.583 414.976C501.583 414.421 501.46 413.947 501.215 413.552C500.969 413.147 500.633 412.843 500.207 412.64C499.791 412.427 499.327 412.32 498.815 412.32C498.079 412.32 497.449 412.555 496.927 413.024C496.415 413.493 496.121 414.144 496.047 414.976H501.583ZM506.464 412.848C506.752 412.347 507.179 411.931 507.744 411.6C508.32 411.259 508.987 411.088 509.744 411.088C510.523 411.088 511.227 411.275 511.856 411.648C512.496 412.021 512.998 412.549 513.36 413.232C513.723 413.904 513.904 414.688 513.904 415.584C513.904 416.469 513.723 417.259 513.36 417.952C512.998 418.645 512.496 419.184 511.856 419.568C511.227 419.952 510.523 420.144 509.744 420.144C508.998 420.144 508.336 419.979 507.76 419.648C507.195 419.307 506.763 418.885 506.464 418.384V424.16H505.008V411.232H506.464V412.848ZM512.416 415.584C512.416 414.923 512.283 414.347 512.016 413.856C511.75 413.365 511.387 412.992 510.928 412.736C510.48 412.48 509.984 412.352 509.44 412.352C508.907 412.352 508.411 412.485 507.952 412.752C507.504 413.008 507.142 413.387 506.864 413.888C506.598 414.379 506.464 414.949 506.464 415.6C506.464 416.261 506.598 416.843 506.864 417.344C507.142 417.835 507.504 418.213 507.952 418.48C508.411 418.736 508.907 418.864 509.44 418.864C509.984 418.864 510.48 418.736 510.928 418.48C511.387 418.213 511.75 417.835 512.016 417.344C512.283 416.843 512.416 416.256 512.416 415.584ZM517.597 412.432V417.6C517.597 418.027 517.688 418.331 517.869 418.512C518.05 418.683 518.365 418.768 518.813 418.768H519.885V420H518.573C517.762 420 517.154 419.813 516.749 419.44C516.344 419.067 516.141 418.453 516.141 417.6V412.432H515.005V411.232H516.141V409.024H517.597V411.232H519.885V412.432H517.597ZM529.649 415.28C529.649 415.557 529.633 415.851 529.601 416.16H522.593C522.646 417.024 522.94 417.701 523.473 418.192C524.017 418.672 524.673 418.912 525.441 418.912C526.07 418.912 526.593 418.768 527.009 418.48C527.436 418.181 527.734 417.787 527.905 417.296H529.473C529.238 418.139 528.769 418.827 528.065 419.36C527.361 419.883 526.486 420.144 525.441 420.144C524.609 420.144 523.862 419.957 523.201 419.584C522.55 419.211 522.038 418.683 521.665 418C521.292 417.307 521.105 416.507 521.105 415.6C521.105 414.693 521.286 413.899 521.649 413.216C522.012 412.533 522.518 412.011 523.169 411.648C523.83 411.275 524.588 411.088 525.441 411.088C526.273 411.088 527.009 411.269 527.649 411.632C528.289 411.995 528.78 412.496 529.121 413.136C529.473 413.765 529.649 414.48 529.649 415.28ZM528.145 414.976C528.145 414.421 528.022 413.947 527.777 413.552C527.532 413.147 527.196 412.843 526.769 412.64C526.353 412.427 525.889 412.32 525.377 412.32C524.641 412.32 524.012 412.555 523.489 413.024C522.977 413.493 522.684 414.144 522.609 414.976H528.145ZM531.027 415.584C531.027 414.688 531.208 413.904 531.571 413.232C531.934 412.549 532.43 412.021 533.059 411.648C533.699 411.275 534.414 411.088 535.203 411.088C535.886 411.088 536.52 411.248 537.107 411.568C537.694 411.877 538.142 412.288 538.451 412.8V408.16H539.923V420H538.451V418.352C538.163 418.875 537.736 419.307 537.171 419.648C536.606 419.979 535.944 420.144 535.187 420.144C534.408 420.144 533.699 419.952 533.059 419.568C532.43 419.184 531.934 418.645 531.571 417.952C531.208 417.259 531.027 416.469 531.027 415.584ZM538.451 415.6C538.451 414.939 538.318 414.363 538.051 413.872C537.784 413.381 537.422 413.008 536.963 412.752C536.515 412.485 536.019 412.352 535.475 412.352C534.931 412.352 534.435 412.48 533.987 412.736C533.539 412.992 533.182 413.365 532.915 413.856C532.648 414.347 532.515 414.923 532.515 415.584C532.515 416.256 532.648 416.843 532.915 417.344C533.182 417.835 533.539 418.213 533.987 418.48C534.435 418.736 534.931 418.864 535.475 418.864C536.019 418.864 536.515 418.736 536.963 418.48C537.422 418.213 537.784 417.835 538.051 417.344C538.318 416.843 538.451 416.261 538.451 415.6Z" fill="#35384D"/>
<rect x="434.161" y="406" width="17.6852" height="15" rx="2" fill="#1E2230"/>
<path d="M675.704 408.848C676.92 408.848 677.971 409.077 678.856 409.536C679.752 409.984 680.435 410.629 680.904 411.472C681.384 412.315 681.624 413.307 681.624 414.448C681.624 415.589 681.384 416.581 680.904 417.424C680.435 418.256 679.752 418.896 678.856 419.344C677.971 419.781 676.92 420 675.704 420H672.232V408.848H675.704ZM675.704 418.8C677.144 418.8 678.243 418.421 679 417.664C679.757 416.896 680.136 415.824 680.136 414.448C680.136 413.061 679.752 411.979 678.984 411.2C678.227 410.421 677.133 410.032 675.704 410.032H673.688V418.8H675.704ZM691.544 415.28C691.544 415.557 691.528 415.851 691.496 416.16H684.488C684.542 417.024 684.835 417.701 685.368 418.192C685.912 418.672 686.568 418.912 687.336 418.912C687.966 418.912 688.488 418.768 688.904 418.48C689.331 418.181 689.63 417.787 689.8 417.296H691.368C691.134 418.139 690.664 418.827 689.96 419.36C689.256 419.883 688.382 420.144 687.336 420.144C686.504 420.144 685.758 419.957 685.096 419.584C684.446 419.211 683.934 418.683 683.56 418C683.187 417.307 683 416.507 683 415.6C683 414.693 683.182 413.899 683.544 413.216C683.907 412.533 684.414 412.011 685.064 411.648C685.726 411.275 686.483 411.088 687.336 411.088C688.168 411.088 688.904 411.269 689.544 411.632C690.184 411.995 690.675 412.496 691.016 413.136C691.368 413.765 691.544 414.48 691.544 415.28ZM690.04 414.976C690.04 414.421 689.918 413.947 689.672 413.552C689.427 413.147 689.091 412.843 688.664 412.64C688.248 412.427 687.784 412.32 687.272 412.32C686.536 412.32 685.907 412.555 685.384 413.024C684.872 413.493 684.579 414.144 684.504 414.976H690.04ZM692.922 415.6C692.922 414.693 693.104 413.904 693.466 413.232C693.829 412.549 694.33 412.021 694.97 411.648C695.621 411.275 696.362 411.088 697.194 411.088C698.272 411.088 699.157 411.349 699.85 411.872C700.554 412.395 701.018 413.12 701.242 414.048H699.674C699.525 413.515 699.232 413.093 698.794 412.784C698.368 412.475 697.834 412.32 697.194 412.32C696.362 412.32 695.69 412.608 695.178 413.184C694.666 413.749 694.41 414.555 694.41 415.6C694.41 416.656 694.666 417.472 695.178 418.048C695.69 418.624 696.362 418.912 697.194 418.912C697.834 418.912 698.368 418.763 698.794 418.464C699.221 418.165 699.514 417.739 699.674 417.184H701.242C701.008 418.08 700.538 418.8 699.834 419.344C699.13 419.877 698.25 420.144 697.194 420.144C696.362 420.144 695.621 419.957 694.97 419.584C694.33 419.211 693.829 418.683 693.466 418C693.104 417.317 692.922 416.517 692.922 415.6ZM704.641 408.16V420H703.185V408.16H704.641ZM707.875 409.808C707.597 409.808 707.363 409.712 707.171 409.52C706.979 409.328 706.883 409.093 706.883 408.816C706.883 408.539 706.979 408.304 707.171 408.112C707.363 407.92 707.597 407.824 707.875 407.824C708.141 407.824 708.365 407.92 708.547 408.112C708.739 408.304 708.835 408.539 708.835 408.816C708.835 409.093 708.739 409.328 708.547 409.52C708.365 409.712 708.141 409.808 707.875 409.808ZM708.579 411.232V420H707.123V411.232H708.579ZM715.332 411.072C716.399 411.072 717.263 411.397 717.924 412.048C718.585 412.688 718.916 413.616 718.916 414.832V420H717.476V415.04C717.476 414.165 717.257 413.499 716.82 413.04C716.383 412.571 715.785 412.336 715.028 412.336C714.26 412.336 713.647 412.576 713.188 413.056C712.74 413.536 712.516 414.235 712.516 415.152V420H711.06V411.232H712.516V412.48C712.804 412.032 713.193 411.685 713.684 411.44C714.185 411.195 714.735 411.072 715.332 411.072ZM729.294 415.28C729.294 415.557 729.278 415.851 729.246 416.16H722.238C722.292 417.024 722.585 417.701 723.118 418.192C723.662 418.672 724.318 418.912 725.086 418.912C725.716 418.912 726.238 418.768 726.654 418.48C727.081 418.181 727.38 417.787 727.55 417.296H729.118C728.884 418.139 728.414 418.827 727.71 419.36C727.006 419.883 726.132 420.144 725.086 420.144C724.254 420.144 723.508 419.957 722.846 419.584C722.196 419.211 721.684 418.683 721.31 418C720.937 417.307 720.75 416.507 720.75 415.6C720.75 414.693 720.932 413.899 721.294 413.216C721.657 412.533 722.164 412.011 722.814 411.648C723.476 411.275 724.233 411.088 725.086 411.088C725.918 411.088 726.654 411.269 727.294 411.632C727.934 411.995 728.425 412.496 728.766 413.136C729.118 413.765 729.294 414.48 729.294 415.28ZM727.79 414.976C727.79 414.421 727.668 413.947 727.422 413.552C727.177 413.147 726.841 412.843 726.414 412.64C725.998 412.427 725.534 412.32 725.022 412.32C724.286 412.32 723.657 412.555 723.134 413.024C722.622 413.493 722.329 414.144 722.254 414.976H727.79Z" fill="#35384D"/>
<rect x="641.667" y="406" width="17.6852" height="15" rx="2" fill="#F60707"/>
</g>
<g clip-path="url(#clip1_10105_112)">
<path d="M63.7148 344.465C63.7148 342.745 63.9948 341.405 64.5548 340.445C65.1148 339.475 66.0948 338.99 67.4948 338.99C68.8848 338.99 69.8598 339.475 70.4198 340.445C70.9798 341.405 71.2598 342.745 71.2598 344.465C71.2598 346.215 70.9798 347.575 70.4198 348.545C69.8598 349.515 68.8848 350 67.4948 350C66.0948 350 65.1148 349.515 64.5548 348.545C63.9948 347.575 63.7148 346.215 63.7148 344.465ZM69.9098 344.465C69.9098 343.595 69.8498 342.86 69.7298 342.26C69.6198 341.65 69.3848 341.16 69.0248 340.79C68.6748 340.42 68.1648 340.235 67.4948 340.235C66.8148 340.235 66.2948 340.42 65.9348 340.79C65.5848 341.16 65.3498 341.65 65.2298 342.26C65.1198 342.86 65.0648 343.595 65.0648 344.465C65.0648 345.365 65.1198 346.12 65.2298 346.73C65.3498 347.34 65.5848 347.83 65.9348 348.2C66.2948 348.57 66.8148 348.755 67.4948 348.755C68.1648 348.755 68.6748 348.57 69.0248 348.2C69.3848 347.83 69.6198 347.34 69.7298 346.73C69.8498 346.12 69.9098 345.365 69.9098 344.465Z" fill="#9E9EA8"/>
<path d="M61.2108 284.34H55.9458V287.76C56.1758 287.44 56.5158 287.18 56.9658 286.98C57.4158 286.77 57.9008 286.665 58.4208 286.665C59.2508 286.665 59.9258 286.84 60.4458 287.19C60.9658 287.53 61.3358 287.975 61.5558 288.525C61.7858 289.065 61.9008 289.64 61.9008 290.25C61.9008 290.97 61.7658 291.615 61.4958 292.185C61.2258 292.755 60.8108 293.205 60.2508 293.535C59.7008 293.865 59.0158 294.03 58.1958 294.03C57.1458 294.03 56.2958 293.76 55.6458 293.22C54.9958 292.68 54.6008 291.96 54.4608 291.06H55.7958C55.9258 291.63 56.2008 292.075 56.6208 292.395C57.0408 292.715 57.5708 292.875 58.2108 292.875C59.0008 292.875 59.5958 292.64 59.9958 292.17C60.3958 291.69 60.5958 291.06 60.5958 290.28C60.5958 289.5 60.3958 288.9 59.9958 288.48C59.5958 288.05 59.0058 287.835 58.2258 287.835C57.6958 287.835 57.2308 287.965 56.8308 288.225C56.4408 288.475 56.1558 288.82 55.9758 289.26H54.6858V283.14H61.2108V284.34ZM63.7148 288.465C63.7148 286.745 63.9948 285.405 64.5548 284.445C65.1148 283.475 66.0948 282.99 67.4948 282.99C68.8848 282.99 69.8598 283.475 70.4198 284.445C70.9798 285.405 71.2598 286.745 71.2598 288.465C71.2598 290.215 70.9798 291.575 70.4198 292.545C69.8598 293.515 68.8848 294 67.4948 294C66.0948 294 65.1148 293.515 64.5548 292.545C63.9948 291.575 63.7148 290.215 63.7148 288.465ZM69.9098 288.465C69.9098 287.595 69.8498 286.86 69.7298 286.26C69.6198 285.65 69.3848 285.16 69.0248 284.79C68.6748 284.42 68.1648 284.235 67.4948 284.235C66.8148 284.235 66.2948 284.42 65.9348 284.79C65.5848 285.16 65.3498 285.65 65.2298 286.26C65.1198 286.86 65.0648 287.595 65.0648 288.465C65.0648 289.365 65.1198 290.12 65.2298 290.73C65.3498 291.34 65.5848 291.83 65.9348 292.2C66.2948 292.57 66.8148 292.755 67.4948 292.755C68.1648 292.755 68.6748 292.57 69.0248 292.2C69.3848 291.83 69.6198 291.34 69.7298 290.73C69.8498 290.12 69.9098 289.365 69.9098 288.465Z" fill="#9E9EA8"/>
<path d="M49.1311 172.4V171.155H51.9511V182H50.5711V172.4H49.1311ZM61.2108 172.34H55.9458V175.76C56.1758 175.44 56.5158 175.18 56.9658 174.98C57.4158 174.77 57.9008 174.665 58.4208 174.665C59.2508 174.665 59.9258 174.84 60.4458 175.19C60.9658 175.53 61.3358 175.975 61.5558 176.525C61.7858 177.065 61.9008 177.64 61.9008 178.25C61.9008 178.97 61.7658 179.615 61.4958 180.185C61.2258 180.755 60.8108 181.205 60.2508 181.535C59.7008 181.865 59.0158 182.03 58.1958 182.03C57.1458 182.03 56.2958 181.76 55.6458 181.22C54.9958 180.68 54.6008 179.96 54.4608 179.06H55.7958C55.9258 179.63 56.2008 180.075 56.6208 180.395C57.0408 180.715 57.5708 180.875 58.2108 180.875C59.0008 180.875 59.5958 180.64 59.9958 180.17C60.3958 179.69 60.5958 179.06 60.5958 178.28C60.5958 177.5 60.3958 176.9 59.9958 176.48C59.5958 176.05 59.0058 175.835 58.2258 175.835C57.6958 175.835 57.2308 175.965 56.8308 176.225C56.4408 176.475 56.1558 176.82 55.9758 177.26H54.6858V171.14H61.2108V172.34ZM63.7148 176.465C63.7148 174.745 63.9948 173.405 64.5548 172.445C65.1148 171.475 66.0948 170.99 67.4948 170.99C68.8848 170.99 69.8598 171.475 70.4198 172.445C70.9798 173.405 71.2598 174.745 71.2598 176.465C71.2598 178.215 70.9798 179.575 70.4198 180.545C69.8598 181.515 68.8848 182 67.4948 182C66.0948 182 65.1148 181.515 64.5548 180.545C63.9948 179.575 63.7148 178.215 63.7148 176.465ZM69.9098 176.465C69.9098 175.595 69.8498 174.86 69.7298 174.26C69.6198 173.65 69.3848 173.16 69.0248 172.79C68.6748 172.42 68.1648 172.235 67.4948 172.235C66.8148 172.235 66.2948 172.42 65.9348 172.79C65.5848 173.16 65.3498 173.65 65.2298 174.26C65.1198 174.86 65.0648 175.595 65.0648 176.465C65.0648 177.365 65.1198 178.12 65.2298 178.73C65.3498 179.34 65.5848 179.83 65.9348 180.2C66.2948 180.57 66.8148 180.755 67.4948 180.755C68.1648 180.755 68.6748 180.57 69.0248 180.2C69.3848 179.83 69.6198 179.34 69.7298 178.73C69.8498 178.12 69.9098 177.365 69.9098 176.465Z" fill="#9E9EA8"/>
<path d="M49.1311 228.4V227.155H51.9511V238H50.5711V228.4H49.1311ZM54.2958 232.465C54.2958 230.745 54.5758 229.405 55.1358 228.445C55.6958 227.475 56.6758 226.99 58.0758 226.99C59.4658 226.99 60.4408 227.475 61.0008 228.445C61.5608 229.405 61.8408 230.745 61.8408 232.465C61.8408 234.215 61.5608 235.575 61.0008 236.545C60.4408 237.515 59.4658 238 58.0758 238C56.6758 238 55.6958 237.515 55.1358 236.545C54.5758 235.575 54.2958 234.215 54.2958 232.465ZM60.4908 232.465C60.4908 231.595 60.4308 230.86 60.3108 230.26C60.2008 229.65 59.9658 229.16 59.6058 228.79C59.2558 228.42 58.7458 228.235 58.0758 228.235C57.3958 228.235 56.8758 228.42 56.5158 228.79C56.1658 229.16 55.9308 229.65 55.8108 230.26C55.7008 230.86 55.6458 231.595 55.6458 232.465C55.6458 233.365 55.7008 234.12 55.8108 234.73C55.9308 235.34 56.1658 235.83 56.5158 236.2C56.8758 236.57 57.3958 236.755 58.0758 236.755C58.7458 236.755 59.2558 236.57 59.6058 236.2C59.9658 235.83 60.2008 235.34 60.3108 234.73C60.4308 234.12 60.4908 233.365 60.4908 232.465ZM63.7148 232.465C63.7148 230.745 63.9948 229.405 64.5548 228.445C65.1148 227.475 66.0948 226.99 67.4948 226.99C68.8848 226.99 69.8598 227.475 70.4198 228.445C70.9798 229.405 71.2598 230.745 71.2598 232.465C71.2598 234.215 70.9798 235.575 70.4198 236.545C69.8598 237.515 68.8848 238 67.4948 238C66.0948 238 65.1148 237.515 64.5548 236.545C63.9948 235.575 63.7148 234.215 63.7148 232.465ZM69.9098 232.465C69.9098 231.595 69.8498 230.86 69.7298 230.26C69.6198 229.65 69.3848 229.16 69.0248 228.79C68.6748 228.42 68.1648 228.235 67.4948 228.235C66.8148 228.235 66.2948 228.42 65.9348 228.79C65.5848 229.16 65.3498 229.65 65.2298 230.26C65.1198 230.86 65.0648 231.595 65.0648 232.465C65.0648 233.365 65.1198 234.12 65.2298 234.73C65.3498 235.34 65.5848 235.83 65.9348 236.2C66.2948 236.57 66.8148 236.755 67.4948 236.755C68.1648 236.755 68.6748 236.57 69.0248 236.2C69.3848 235.83 69.6198 235.34 69.7298 234.73C69.8498 234.12 69.9098 233.365 69.9098 232.465Z" fill="#9E9EA8"/>
<path d="M45.5029 124.905C46.7729 123.885 47.7679 123.05 48.4879 122.4C49.2079 121.74 49.8129 121.055 50.3029 120.345C50.8029 119.625 51.0529 118.92 51.0529 118.23C51.0529 117.58 50.8929 117.07 50.5729 116.7C50.2629 116.32 49.7579 116.13 49.0579 116.13C48.3779 116.13 47.8479 116.345 47.4679 116.775C47.0979 117.195 46.8979 117.76 46.8679 118.47H45.5479C45.5879 117.35 45.9279 116.485 46.5679 115.875C47.2079 115.265 48.0329 114.96 49.0429 114.96C50.0729 114.96 50.8879 115.245 51.4879 115.815C52.0979 116.385 52.4029 117.17 52.4029 118.17C52.4029 119 52.1529 119.81 51.6529 120.6C51.1629 121.38 50.6029 122.07 49.9729 122.67C49.3429 123.26 48.5379 123.95 47.5579 124.74H52.7179V125.88H45.5029V124.905ZM54.2958 120.465C54.2958 118.745 54.5758 117.405 55.1358 116.445C55.6958 115.475 56.6758 114.99 58.0758 114.99C59.4658 114.99 60.4408 115.475 61.0008 116.445C61.5608 117.405 61.8408 118.745 61.8408 120.465C61.8408 122.215 61.5608 123.575 61.0008 124.545C60.4408 125.515 59.4658 126 58.0758 126C56.6758 126 55.6958 125.515 55.1358 124.545C54.5758 123.575 54.2958 122.215 54.2958 120.465ZM60.4908 120.465C60.4908 119.595 60.4308 118.86 60.3108 118.26C60.2008 117.65 59.9658 117.16 59.6058 116.79C59.2558 116.42 58.7458 116.235 58.0758 116.235C57.3958 116.235 56.8758 116.42 56.5158 116.79C56.1658 117.16 55.9308 117.65 55.8108 118.26C55.7008 118.86 55.6458 119.595 55.6458 120.465C55.6458 121.365 55.7008 122.12 55.8108 122.73C55.9308 123.34 56.1658 123.83 56.5158 124.2C56.8758 124.57 57.3958 124.755 58.0758 124.755C58.7458 124.755 59.2558 124.57 59.6058 124.2C59.9658 123.83 60.2008 123.34 60.3108 122.73C60.4308 122.12 60.4908 121.365 60.4908 120.465ZM63.7148 120.465C63.7148 118.745 63.9948 117.405 64.5548 116.445C65.1148 115.475 66.0948 114.99 67.4948 114.99C68.8848 114.99 69.8598 115.475 70.4198 116.445C70.9797 117.405 71.2597 118.745 71.2597 120.465C71.2597 122.215 70.9797 123.575 70.4198 124.545C69.8598 125.515 68.8848 126 67.4948 126C66.0948 126 65.1148 125.515 64.5548 124.545C63.9948 123.575 63.7148 122.215 63.7148 120.465ZM69.9098 120.465C69.9098 119.595 69.8498 118.86 69.7298 118.26C69.6198 117.65 69.3848 117.16 69.0248 116.79C68.6748 116.42 68.1648 116.235 67.4948 116.235C66.8148 116.235 66.2948 116.42 65.9348 116.79C65.5848 117.16 65.3498 117.65 65.2298 118.26C65.1198 118.86 65.0648 119.595 65.0648 120.465C65.0648 121.365 65.1198 122.12 65.2298 122.73C65.3498 123.34 65.5848 123.83 65.9348 124.2C66.2948 124.57 66.8148 124.755 67.4948 124.755C68.1648 124.755 68.6748 124.57 69.0248 124.2C69.3848 123.83 69.6198 123.34 69.7298 122.73C69.8498 122.12 69.9098 121.365 69.9098 120.465Z" fill="#9E9EA8"/>
</g>
<g clip-path="url(#clip2_10105_112)">
<path d="M148.42 362.545V370.27C148.42 371.13 148.155 371.82 147.625 372.34C147.095 372.85 146.395 373.105 145.525 373.105C144.645 373.105 143.94 372.845 143.41 372.325C142.88 371.795 142.615 371.075 142.615 370.165H143.98C143.99 370.675 144.12 371.09 144.37 371.41C144.63 371.73 145.015 371.89 145.525 371.89C146.035 371.89 146.415 371.74 146.665 371.44C146.915 371.13 147.04 370.74 147.04 370.27V362.545H148.42ZM150.599 368.86C150.599 368.02 150.769 367.285 151.109 366.655C151.449 366.015 151.914 365.52 152.504 365.17C153.104 364.82 153.769 364.645 154.499 364.645C155.219 364.645 155.844 364.8 156.374 365.11C156.904 365.42 157.299 365.81 157.559 366.28V364.78H158.939V373H157.559V371.47C157.289 371.95 156.884 372.35 156.344 372.67C155.814 372.98 155.194 373.135 154.484 373.135C153.754 373.135 153.094 372.955 152.504 372.595C151.914 372.235 151.449 371.73 151.109 371.08C150.769 370.43 150.599 369.69 150.599 368.86ZM157.559 368.875C157.559 368.255 157.434 367.715 157.184 367.255C156.934 366.795 156.594 366.445 156.164 366.205C155.744 365.955 155.279 365.83 154.769 365.83C154.259 365.83 153.794 365.95 153.374 366.19C152.954 366.43 152.619 366.78 152.369 367.24C152.119 367.7 151.994 368.24 151.994 368.86C151.994 369.49 152.119 370.04 152.369 370.51C152.619 370.97 152.954 371.325 153.374 371.575C153.794 371.815 154.259 371.935 154.769 371.935C155.279 371.935 155.744 371.815 156.164 371.575C156.594 371.325 156.934 370.97 157.184 370.51C157.434 370.04 157.559 369.495 157.559 368.875ZM165.251 364.63C166.251 364.63 167.061 364.935 167.681 365.545C168.301 366.145 168.611 367.015 168.611 368.155V373H167.261V368.35C167.261 367.53 167.056 366.905 166.646 366.475C166.236 366.035 165.676 365.815 164.966 365.815C164.246 365.815 163.671 366.04 163.241 366.49C162.821 366.94 162.611 367.595 162.611 368.455V373H161.246V364.78H162.611V365.95C162.881 365.53 163.246 365.205 163.706 364.975C164.176 364.745 164.691 364.63 165.251 364.63Z" fill="#9E9EA8"/>
<path d="M491.162 370.675H486.602L485.762 373H484.322L488.102 362.605H489.677L493.442 373H492.002L491.162 370.675ZM490.772 369.565L488.882 364.285L486.992 369.565H490.772ZM496.455 366.295C496.725 365.825 497.125 365.435 497.655 365.125C498.195 364.805 498.82 364.645 499.53 364.645C500.26 364.645 500.92 364.82 501.51 365.17C502.11 365.52 502.58 366.015 502.92 366.655C503.26 367.285 503.43 368.02 503.43 368.86C503.43 369.69 503.26 370.43 502.92 371.08C502.58 371.73 502.11 372.235 501.51 372.595C500.92 372.955 500.26 373.135 499.53 373.135C498.83 373.135 498.21 372.98 497.67 372.67C497.14 372.35 496.735 371.955 496.455 371.485V376.9H495.09V364.78H496.455V366.295ZM502.035 368.86C502.035 368.24 501.91 367.7 501.66 367.24C501.41 366.78 501.07 366.43 500.64 366.19C500.22 365.95 499.755 365.83 499.245 365.83C498.745 365.83 498.28 365.955 497.85 366.205C497.43 366.445 497.09 366.8 496.83 367.27C496.58 367.73 496.455 368.265 496.455 368.875C496.455 369.495 496.58 370.04 496.83 370.51C497.09 370.97 497.43 371.325 497.85 371.575C498.28 371.815 498.745 371.935 499.245 371.935C499.755 371.935 500.22 371.815 500.64 371.575C501.07 371.325 501.41 370.97 501.66 370.51C501.91 370.04 502.035 369.49 502.035 368.86ZM506.592 366.115C506.832 365.645 507.172 365.28 507.612 365.02C508.062 364.76 508.607 364.63 509.247 364.63V366.04H508.887C507.357 366.04 506.592 366.87 506.592 368.53V373H505.227V364.78H506.592V366.115Z" fill="#9E9EA8"/>
<path d="M262.46 362.545V363.655H257.915V367.18H261.605V368.29H257.915V373H256.55V362.545H262.46ZM271.608 368.575C271.608 368.835 271.593 369.11 271.563 369.4H264.993C265.043 370.21 265.318 370.845 265.818 371.305C266.328 371.755 266.943 371.98 267.663 371.98C268.253 371.98 268.743 371.845 269.133 371.575C269.533 371.295 269.813 370.925 269.973 370.465H271.443C271.223 371.255 270.783 371.9 270.123 372.4C269.463 372.89 268.643 373.135 267.663 373.135C266.883 373.135 266.183 372.96 265.563 372.61C264.953 372.26 264.473 371.765 264.123 371.125C263.773 370.475 263.598 369.725 263.598 368.875C263.598 368.025 263.768 367.28 264.108 366.64C264.448 366 264.923 365.51 265.533 365.17C266.153 364.82 266.863 364.645 267.663 364.645C268.443 364.645 269.133 364.815 269.733 365.155C270.333 365.495 270.793 365.965 271.113 366.565C271.443 367.155 271.608 367.825 271.608 368.575ZM270.198 368.29C270.198 367.77 270.083 367.325 269.853 366.955C269.623 366.575 269.308 366.29 268.908 366.1C268.518 365.9 268.083 365.8 267.603 365.8C266.913 365.8 266.323 366.02 265.833 366.46C265.353 366.9 265.078 367.51 265.008 368.29H270.198ZM274.775 366.31C275.055 365.82 275.465 365.42 276.005 365.11C276.545 364.8 277.16 364.645 277.85 364.645C278.59 364.645 279.255 364.82 279.845 365.17C280.435 365.52 280.9 366.015 281.24 366.655C281.58 367.285 281.75 368.02 281.75 368.86C281.75 369.69 281.58 370.43 281.24 371.08C280.9 371.73 280.43 372.235 279.83 372.595C279.24 372.955 278.58 373.135 277.85 373.135C277.14 373.135 276.515 372.98 275.975 372.67C275.445 372.36 275.045 371.965 274.775 371.485V373H273.41V361.9H274.775V366.31ZM280.355 368.86C280.355 368.24 280.23 367.7 279.98 367.24C279.73 366.78 279.39 366.43 278.96 366.19C278.54 365.95 278.075 365.83 277.565 365.83C277.065 365.83 276.6 365.955 276.17 366.205C275.75 366.445 275.41 366.8 275.15 367.27C274.9 367.73 274.775 368.265 274.775 368.875C274.775 369.495 274.9 370.04 275.15 370.51C275.41 370.97 275.75 371.325 276.17 371.575C276.6 371.815 277.065 371.935 277.565 371.935C278.075 371.935 278.54 371.815 278.96 371.575C279.39 371.325 279.73 370.97 279.98 370.51C280.23 370.04 280.355 369.49 280.355 368.86Z" fill="#9E9EA8"/>
<path d="M605.695 362.62V373H604.33V365.26L600.88 373H599.92L596.455 365.245V373H595.09V362.62H596.56L600.4 371.2L604.24 362.62H605.695ZM607.5 368.86C607.5 368.02 607.67 367.285 608.01 366.655C608.35 366.015 608.815 365.52 609.405 365.17C610.005 364.82 610.67 364.645 611.4 364.645C612.12 364.645 612.745 364.8 613.275 365.11C613.805 365.42 614.2 365.81 614.46 366.28V364.78H615.84V373H614.46V371.47C614.19 371.95 613.785 372.35 613.245 372.67C612.715 372.98 612.095 373.135 611.385 373.135C610.655 373.135 609.995 372.955 609.405 372.595C608.815 372.235 608.35 371.73 608.01 371.08C607.67 370.43 607.5 369.69 607.5 368.86ZM614.46 368.875C614.46 368.255 614.335 367.715 614.085 367.255C613.835 366.795 613.495 366.445 613.065 366.205C612.645 365.955 612.18 365.83 611.67 365.83C611.16 365.83 610.695 365.95 610.275 366.19C609.855 366.43 609.52 366.78 609.27 367.24C609.02 367.7 608.895 368.24 608.895 368.86C608.895 369.49 609.02 370.04 609.27 370.51C609.52 370.97 609.855 371.325 610.275 371.575C610.695 371.815 611.16 371.935 611.67 371.935C612.18 371.935 612.645 371.815 613.065 371.575C613.495 371.325 613.835 370.97 614.085 370.51C614.335 370.04 614.46 369.495 614.46 368.875ZM625.227 364.78L620.277 376.87H618.867L620.487 372.91L617.172 364.78H618.687L621.267 371.44L623.817 364.78H625.227Z" fill="#9E9EA8"/>
<path d="M380.549 362.62V373H379.184V365.26L375.734 373H374.774L371.309 365.245V373H369.944V362.62H371.414L375.254 371.2L379.094 362.62H380.549ZM382.354 368.86C382.354 368.02 382.524 367.285 382.864 366.655C383.204 366.015 383.669 365.52 384.259 365.17C384.859 364.82 385.524 364.645 386.254 364.645C386.974 364.645 387.599 364.8 388.129 365.11C388.659 365.42 389.054 365.81 389.314 366.28V364.78H390.694V373H389.314V371.47C389.044 371.95 388.639 372.35 388.099 372.67C387.569 372.98 386.949 373.135 386.239 373.135C385.509 373.135 384.849 372.955 384.259 372.595C383.669 372.235 383.204 371.73 382.864 371.08C382.524 370.43 382.354 369.69 382.354 368.86ZM389.314 368.875C389.314 368.255 389.189 367.715 388.939 367.255C388.689 366.795 388.349 366.445 387.919 366.205C387.499 365.955 387.034 365.83 386.524 365.83C386.014 365.83 385.549 365.95 385.129 366.19C384.709 366.43 384.374 366.78 384.124 367.24C383.874 367.7 383.749 368.24 383.749 368.86C383.749 369.49 383.874 370.04 384.124 370.51C384.374 370.97 384.709 371.325 385.129 371.575C385.549 371.815 386.014 371.935 386.524 371.935C387.034 371.935 387.499 371.815 387.919 371.575C388.349 371.325 388.689 370.97 388.939 370.51C389.189 370.04 389.314 369.495 389.314 368.875ZM394.366 366.115C394.606 365.645 394.946 365.28 395.386 365.02C395.836 364.76 396.381 364.63 397.021 364.63V366.04H396.661C395.131 366.04 394.366 366.87 394.366 368.53V373H393.001V364.78H394.366V366.115Z" fill="#9E9EA8"/>
<path d="M720.324 362.545V370.27C720.324 371.13 720.059 371.82 719.529 372.34C718.999 372.85 718.299 373.105 717.429 373.105C716.549 373.105 715.844 372.845 715.314 372.325C714.784 371.795 714.519 371.075 714.519 370.165H715.884C715.894 370.675 716.024 371.09 716.274 371.41C716.534 371.73 716.919 371.89 717.429 371.89C717.939 371.89 718.319 371.74 718.569 371.44C718.819 371.13 718.944 370.74 718.944 370.27V362.545H720.324ZM730.303 364.78V373H728.938V371.785C728.678 372.205 728.313 372.535 727.843 372.775C727.383 373.005 726.873 373.12 726.313 373.12C725.673 373.12 725.098 372.99 724.588 372.73C724.078 372.46 723.673 372.06 723.373 371.53C723.083 371 722.938 370.355 722.938 369.595V364.78H724.288V369.415C724.288 370.225 724.493 370.85 724.903 371.29C725.313 371.72 725.873 371.935 726.583 371.935C727.313 371.935 727.888 371.71 728.308 371.26C728.728 370.81 728.938 370.155 728.938 369.295V364.78H730.303ZM736.612 364.63C737.612 364.63 738.422 364.935 739.042 365.545C739.662 366.145 739.972 367.015 739.972 368.155V373H738.622V368.35C738.622 367.53 738.417 366.905 738.007 366.475C737.597 366.035 737.037 365.815 736.327 365.815C735.607 365.815 735.032 366.04 734.602 366.49C734.182 366.94 733.972 367.595 733.972 368.455V373H732.607V364.78H733.972V365.95C734.242 365.53 734.607 365.205 735.067 364.975C735.537 364.745 736.052 364.63 736.612 364.63Z" fill="#9E9EA8"/>
<path d="M832.075 362.545V370.27C832.075 371.13 831.81 371.82 831.28 372.34C830.75 372.85 830.05 373.105 829.18 373.105C828.3 373.105 827.595 372.845 827.065 372.325C826.535 371.795 826.27 371.075 826.27 370.165H827.635C827.645 370.675 827.775 371.09 828.025 371.41C828.285 371.73 828.67 371.89 829.18 371.89C829.69 371.89 830.07 371.74 830.32 371.44C830.57 371.13 830.695 370.74 830.695 370.27V362.545H832.075ZM842.054 364.78V373H840.689V371.785C840.429 372.205 840.064 372.535 839.594 372.775C839.134 373.005 838.624 373.12 838.064 373.12C837.424 373.12 836.849 372.99 836.339 372.73C835.829 372.46 835.424 372.06 835.124 371.53C834.834 371 834.689 370.355 834.689 369.595V364.78H836.039V369.415C836.039 370.225 836.244 370.85 836.654 371.29C837.064 371.72 837.624 371.935 838.334 371.935C839.064 371.935 839.639 371.71 840.059 371.26C840.479 370.81 840.689 370.155 840.689 369.295V364.78H842.054ZM845.724 361.9V373H844.359V361.9H845.724Z" fill="#9E9EA8"/>
<path d="M934.881 370.675H930.321L929.481 373H928.041L931.821 362.605H933.396L937.161 373H935.721L934.881 370.675ZM934.491 369.565L932.601 364.285L930.711 369.565H934.491ZM946.098 364.78V373H944.733V371.785C944.473 372.205 944.108 372.535 943.638 372.775C943.178 373.005 942.668 373.12 942.108 373.12C941.468 373.12 940.893 372.99 940.383 372.73C939.873 372.46 939.468 372.06 939.168 371.53C938.878 371 938.733 370.355 938.733 369.595V364.78H940.083V369.415C940.083 370.225 940.288 370.85 940.698 371.29C941.108 371.72 941.668 371.935 942.378 371.935C943.108 371.935 943.683 371.71 944.103 371.26C944.523 370.81 944.733 370.155 944.733 369.295V364.78H946.098ZM951.793 364.645C952.503 364.645 953.123 364.8 953.653 365.11C954.193 365.42 954.593 365.81 954.853 366.28V364.78H956.233V373.18C956.233 373.93 956.073 374.595 955.753 375.175C955.433 375.765 954.973 376.225 954.373 376.555C953.783 376.885 953.093 377.05 952.303 377.05C951.223 377.05 950.323 376.795 949.603 376.285C948.883 375.775 948.458 375.08 948.328 374.2H949.678C949.828 374.7 950.138 375.1 950.608 375.4C951.078 375.71 951.643 375.865 952.303 375.865C953.053 375.865 953.663 375.63 954.133 375.16C954.613 374.69 954.853 374.03 954.853 373.18V371.455C954.583 371.935 954.183 372.335 953.653 372.655C953.123 372.975 952.503 373.135 951.793 373.135C951.063 373.135 950.398 372.955 949.798 372.595C949.208 372.235 948.743 371.73 948.403 371.08C948.063 370.43 947.893 369.69 947.893 368.86C947.893 368.02 948.063 367.285 948.403 366.655C948.743 366.015 949.208 365.52 949.798 365.17C950.398 364.82 951.063 364.645 951.793 364.645ZM954.853 368.875C954.853 368.255 954.728 367.715 954.478 367.255C954.228 366.795 953.888 366.445 953.458 366.205C953.038 365.955 952.573 365.83 952.063 365.83C951.553 365.83 951.088 365.95 950.668 366.19C950.248 366.43 949.913 366.78 949.663 367.24C949.413 367.7 949.288 368.24 949.288 368.86C949.288 369.49 949.413 370.04 949.663 370.51C949.913 370.97 950.248 371.325 950.668 371.575C951.088 371.815 951.553 371.935 952.063 371.935C952.573 371.935 953.038 371.815 953.458 371.575C953.888 371.325 954.228 370.97 954.478 370.51C954.728 370.04 954.853 369.495 954.853 368.875Z" fill="#9E9EA8"/>
<path d="M1048.7 373.105C1048.01 373.105 1047.39 372.985 1046.84 372.745C1046.3 372.495 1045.87 372.155 1045.56 371.725C1045.25 371.285 1045.09 370.78 1045.08 370.21H1046.54C1046.59 370.7 1046.79 371.115 1047.14 371.455C1047.5 371.785 1048.02 371.95 1048.7 371.95C1049.35 371.95 1049.86 371.79 1050.23 371.47C1050.61 371.14 1050.8 370.72 1050.8 370.21C1050.8 369.81 1050.69 369.485 1050.47 369.235C1050.25 368.985 1049.97 368.795 1049.64 368.665C1049.31 368.535 1048.87 368.395 1048.31 368.245C1047.62 368.065 1047.06 367.885 1046.64 367.705C1046.23 367.525 1045.88 367.245 1045.58 366.865C1045.29 366.475 1045.14 365.955 1045.14 365.305C1045.14 364.735 1045.29 364.23 1045.58 363.79C1045.87 363.35 1046.27 363.01 1046.79 362.77C1047.32 362.53 1047.93 362.41 1048.61 362.41C1049.59 362.41 1050.39 362.655 1051.01 363.145C1051.64 363.635 1051.99 364.285 1052.07 365.095H1050.57C1050.52 364.695 1050.31 364.345 1049.94 364.045C1049.57 363.735 1049.08 363.58 1048.47 363.58C1047.9 363.58 1047.44 363.73 1047.08 364.03C1046.72 364.32 1046.54 364.73 1046.54 365.26C1046.54 365.64 1046.64 365.95 1046.85 366.19C1047.07 366.43 1047.34 366.615 1047.65 366.745C1047.97 366.865 1048.41 367.005 1048.98 367.165C1049.67 367.355 1050.23 367.545 1050.65 367.735C1051.07 367.915 1051.43 368.2 1051.73 368.59C1052.03 368.97 1052.18 369.49 1052.18 370.15C1052.18 370.66 1052.04 371.14 1051.77 371.59C1051.5 372.04 1051.1 372.405 1050.57 372.685C1050.04 372.965 1049.42 373.105 1048.7 373.105ZM1061.69 368.575C1061.69 368.835 1061.67 369.11 1061.64 369.4H1055.07C1055.12 370.21 1055.4 370.845 1055.9 371.305C1056.41 371.755 1057.02 371.98 1057.74 371.98C1058.33 371.98 1058.82 371.845 1059.21 371.575C1059.61 371.295 1059.89 370.925 1060.05 370.465H1061.52C1061.3 371.255 1060.86 371.9 1060.2 372.4C1059.54 372.89 1058.72 373.135 1057.74 373.135C1056.96 373.135 1056.26 372.96 1055.64 372.61C1055.03 372.26 1054.55 371.765 1054.2 371.125C1053.85 370.475 1053.68 369.725 1053.68 368.875C1053.68 368.025 1053.85 367.28 1054.19 366.64C1054.53 366 1055 365.51 1055.61 365.17C1056.23 364.82 1056.94 364.645 1057.74 364.645C1058.52 364.645 1059.21 364.815 1059.81 365.155C1060.41 365.495 1060.87 365.965 1061.19 366.565C1061.52 367.155 1061.69 367.825 1061.69 368.575ZM1060.28 368.29C1060.28 367.77 1060.16 367.325 1059.93 366.955C1059.7 366.575 1059.39 366.29 1058.99 366.1C1058.6 365.9 1058.16 365.8 1057.68 365.8C1056.99 365.8 1056.4 366.02 1055.91 366.46C1055.43 366.9 1055.16 367.51 1055.09 368.29H1060.28ZM1064.85 366.295C1065.12 365.825 1065.52 365.435 1066.05 365.125C1066.59 364.805 1067.22 364.645 1067.93 364.645C1068.66 364.645 1069.32 364.82 1069.91 365.17C1070.51 365.52 1070.98 366.015 1071.32 366.655C1071.66 367.285 1071.83 368.02 1071.83 368.86C1071.83 369.69 1071.66 370.43 1071.32 371.08C1070.98 371.73 1070.51 372.235 1069.91 372.595C1069.32 372.955 1068.66 373.135 1067.93 373.135C1067.23 373.135 1066.61 372.98 1066.07 372.67C1065.54 372.35 1065.13 371.955 1064.85 371.485V376.9H1063.49V364.78H1064.85V366.295ZM1070.43 368.86C1070.43 368.24 1070.31 367.7 1070.06 367.24C1069.81 366.78 1069.47 366.43 1069.04 366.19C1068.62 365.95 1068.15 365.83 1067.64 365.83C1067.14 365.83 1066.68 365.955 1066.25 366.205C1065.83 366.445 1065.49 366.8 1065.23 367.27C1064.98 367.73 1064.85 368.265 1064.85 368.875C1064.85 369.495 1064.98 370.04 1065.23 370.51C1065.49 370.97 1065.83 371.325 1066.25 371.575C1066.68 371.815 1067.14 371.935 1067.64 371.935C1068.15 371.935 1068.62 371.815 1069.04 371.575C1069.47 371.325 1069.81 370.97 1070.06 370.51C1070.31 370.04 1070.43 369.49 1070.43 368.86Z" fill="#9E9EA8"/>
<path d="M1163.52 373.105C1162.55 373.105 1161.66 372.88 1160.86 372.43C1160.06 371.97 1159.43 371.335 1158.96 370.525C1158.5 369.705 1158.27 368.785 1158.27 367.765C1158.27 366.745 1158.5 365.83 1158.96 365.02C1159.43 364.2 1160.06 363.565 1160.86 363.115C1161.66 362.655 1162.55 362.425 1163.52 362.425C1164.5 362.425 1165.39 362.655 1166.19 363.115C1166.99 363.565 1167.62 364.195 1168.08 365.005C1168.54 365.815 1168.77 366.735 1168.77 367.765C1168.77 368.795 1168.54 369.715 1168.08 370.525C1167.62 371.335 1166.99 371.97 1166.19 372.43C1165.39 372.88 1164.5 373.105 1163.52 373.105ZM1163.52 371.92C1164.25 371.92 1164.9 371.75 1165.48 371.41C1166.07 371.07 1166.53 370.585 1166.86 369.955C1167.2 369.325 1167.37 368.595 1167.37 367.765C1167.37 366.925 1167.2 366.195 1166.86 365.575C1166.53 364.945 1166.08 364.46 1165.5 364.12C1164.92 363.78 1164.26 363.61 1163.52 363.61C1162.78 363.61 1162.12 363.78 1161.54 364.12C1160.96 364.46 1160.5 364.945 1160.16 365.575C1159.83 366.195 1159.66 366.925 1159.66 367.765C1159.66 368.595 1159.83 369.325 1160.16 369.955C1160.5 370.585 1160.96 371.07 1161.54 371.41C1162.13 371.75 1162.79 371.92 1163.52 371.92ZM1170.06 368.875C1170.06 368.025 1170.23 367.285 1170.57 366.655C1170.91 366.015 1171.38 365.52 1171.98 365.17C1172.59 364.82 1173.28 364.645 1174.06 364.645C1175.07 364.645 1175.9 364.89 1176.55 365.38C1177.21 365.87 1177.65 366.55 1177.86 367.42H1176.39C1176.25 366.92 1175.97 366.525 1175.56 366.235C1175.16 365.945 1174.66 365.8 1174.06 365.8C1173.28 365.8 1172.65 366.07 1172.17 366.61C1171.69 367.14 1171.45 367.895 1171.45 368.875C1171.45 369.865 1171.69 370.63 1172.17 371.17C1172.65 371.71 1173.28 371.98 1174.06 371.98C1174.66 371.98 1175.16 371.84 1175.56 371.56C1175.96 371.28 1176.24 370.88 1176.39 370.36H1177.86C1177.64 371.2 1177.2 371.875 1176.54 372.385C1175.88 372.885 1175.05 373.135 1174.06 373.135C1173.28 373.135 1172.59 372.96 1171.98 372.61C1171.38 372.26 1170.91 371.765 1170.57 371.125C1170.23 370.485 1170.06 369.735 1170.06 368.875ZM1181.35 365.905V370.75C1181.35 371.15 1181.43 371.435 1181.6 371.605C1181.77 371.765 1182.07 371.845 1182.49 371.845H1183.49V373H1182.26C1181.5 373 1180.93 372.825 1180.55 372.475C1180.17 372.125 1179.98 371.55 1179.98 370.75V365.905H1178.92V364.78H1179.98V362.71H1181.35V364.78H1183.49V365.905H1181.35Z" fill="#9E9EA8"/>
<path d="M1278.75 373H1277.38L1271.89 364.675V373H1270.53V362.53H1271.89L1277.38 370.84V362.53H1278.75V373ZM1284.66 373.135C1283.89 373.135 1283.19 372.96 1282.56 372.61C1281.94 372.26 1281.45 371.765 1281.09 371.125C1280.74 370.475 1280.56 369.725 1280.56 368.875C1280.56 368.035 1280.74 367.295 1281.1 366.655C1281.47 366.005 1281.97 365.51 1282.6 365.17C1283.23 364.82 1283.94 364.645 1284.72 364.645C1285.5 364.645 1286.2 364.82 1286.83 365.17C1287.46 365.51 1287.96 366 1288.32 366.64C1288.69 367.28 1288.87 368.025 1288.87 368.875C1288.87 369.725 1288.68 370.475 1288.3 371.125C1287.93 371.765 1287.43 372.26 1286.79 372.61C1286.15 372.96 1285.44 373.135 1284.66 373.135ZM1284.66 371.935C1285.15 371.935 1285.61 371.82 1286.04 371.59C1286.47 371.36 1286.81 371.015 1287.07 370.555C1287.34 370.095 1287.48 369.535 1287.48 368.875C1287.48 368.215 1287.35 367.655 1287.09 367.195C1286.83 366.735 1286.49 366.395 1286.07 366.175C1285.65 365.945 1285.19 365.83 1284.7 365.83C1284.2 365.83 1283.74 365.945 1283.32 366.175C1282.91 366.395 1282.58 366.735 1282.33 367.195C1282.08 367.655 1281.96 368.215 1281.96 368.875C1281.96 369.545 1282.08 370.11 1282.32 370.57C1282.57 371.03 1282.9 371.375 1283.31 371.605C1283.72 371.825 1284.17 371.935 1284.66 371.935ZM1292.03 366.295C1292.3 365.825 1292.7 365.435 1293.23 365.125C1293.77 364.805 1294.4 364.645 1295.11 364.645C1295.84 364.645 1296.5 364.82 1297.09 365.17C1297.69 365.52 1298.16 366.015 1298.5 366.655C1298.84 367.285 1299.01 368.02 1299.01 368.86C1299.01 369.69 1298.84 370.43 1298.5 371.08C1298.16 371.73 1297.69 372.235 1297.09 372.595C1296.5 372.955 1295.84 373.135 1295.11 373.135C1294.41 373.135 1293.79 372.98 1293.25 372.67C1292.72 372.35 1292.31 371.955 1292.03 371.485V376.9H1290.67V364.78H1292.03V366.295ZM1297.61 368.86C1297.61 368.24 1297.49 367.7 1297.24 367.24C1296.99 366.78 1296.65 366.43 1296.22 366.19C1295.8 365.95 1295.33 365.83 1294.82 365.83C1294.32 365.83 1293.86 365.955 1293.43 366.205C1293.01 366.445 1292.67 366.8 1292.41 367.27C1292.16 367.73 1292.03 368.265 1292.03 368.875C1292.03 369.495 1292.16 370.04 1292.41 370.51C1292.67 370.97 1293.01 371.325 1293.43 371.575C1293.86 371.815 1294.32 371.935 1294.82 371.935C1295.33 371.935 1295.8 371.815 1296.22 371.575C1296.65 371.325 1296.99 370.97 1297.24 370.51C1297.49 370.04 1297.61 369.49 1297.61 368.86Z" fill="#9E9EA8"/>
<path d="M1392.11 362.545C1393.25 362.545 1394.23 362.76 1395.06 363.19C1395.9 363.61 1396.54 364.215 1396.98 365.005C1397.43 365.795 1397.66 366.725 1397.66 367.795C1397.66 368.865 1397.43 369.795 1396.98 370.585C1396.54 371.365 1395.9 371.965 1395.06 372.385C1394.23 372.795 1393.25 373 1392.11 373H1388.85V362.545H1392.11ZM1392.11 371.875C1393.46 371.875 1394.49 371.52 1395.2 370.81C1395.91 370.09 1396.26 369.085 1396.26 367.795C1396.26 366.495 1395.9 365.48 1395.18 364.75C1394.47 364.02 1393.45 363.655 1392.11 363.655H1390.22V371.875H1392.11ZM1406.96 368.575C1406.96 368.835 1406.94 369.11 1406.91 369.4H1400.34C1400.39 370.21 1400.67 370.845 1401.17 371.305C1401.68 371.755 1402.29 371.98 1403.01 371.98C1403.6 371.98 1404.09 371.845 1404.48 371.575C1404.88 371.295 1405.16 370.925 1405.32 370.465H1406.79C1406.57 371.255 1406.13 371.9 1405.47 372.4C1404.81 372.89 1403.99 373.135 1403.01 373.135C1402.23 373.135 1401.53 372.96 1400.91 372.61C1400.3 372.26 1399.82 371.765 1399.47 371.125C1399.12 370.475 1398.95 369.725 1398.95 368.875C1398.95 368.025 1399.12 367.28 1399.46 366.64C1399.8 366 1400.27 365.51 1400.88 365.17C1401.5 364.82 1402.21 364.645 1403.01 364.645C1403.79 364.645 1404.48 364.815 1405.08 365.155C1405.68 365.495 1406.14 365.965 1406.46 366.565C1406.79 367.155 1406.96 367.825 1406.96 368.575ZM1405.55 368.29C1405.55 367.77 1405.43 367.325 1405.2 366.955C1404.97 366.575 1404.66 366.29 1404.26 366.1C1403.87 365.9 1403.43 365.8 1402.95 365.8C1402.26 365.8 1401.67 366.02 1401.18 366.46C1400.7 366.9 1400.43 367.51 1400.36 368.29H1405.55ZM1408.25 368.875C1408.25 368.025 1408.42 367.285 1408.76 366.655C1409.1 366.015 1409.57 365.52 1410.17 365.17C1410.78 364.82 1411.48 364.645 1412.26 364.645C1413.27 364.645 1414.1 364.89 1414.75 365.38C1415.41 365.87 1415.84 366.55 1416.05 367.42H1414.58C1414.44 366.92 1414.17 366.525 1413.76 366.235C1413.36 365.945 1412.86 365.8 1412.26 365.8C1411.48 365.8 1410.85 366.07 1410.37 366.61C1409.89 367.14 1409.65 367.895 1409.65 368.875C1409.65 369.865 1409.89 370.63 1410.37 371.17C1410.85 371.71 1411.48 371.98 1412.26 371.98C1412.86 371.98 1413.36 371.84 1413.76 371.56C1414.16 371.28 1414.43 370.88 1414.58 370.36H1416.05C1415.83 371.2 1415.39 371.875 1414.73 372.385C1414.07 372.885 1413.25 373.135 1412.26 373.135C1411.48 373.135 1410.78 372.96 1410.17 372.61C1409.57 372.26 1409.1 371.765 1408.76 371.125C1408.42 370.485 1408.25 369.735 1408.25 368.875Z" fill="#9E9EA8"/>
</g>
<path d="M1467 176.149C1467 176.149 1381.85 228.043 1301.59 228.043C1221.33 228.043 1166.1 136.873 1013.3 141.329C860.504 145.785 887.731 213.484 760.632 213.484C633.534 213.484 600.047 129.861 506.04 119.301C412.033 108.74 329.485 165.381 296.201 184.515C262.917 203.649 190.084 213.484 97.3302 181.428" stroke="#1E2230" stroke-width="5" stroke-linecap="round" stroke-linejoin="round"/>
<path fill-rule="evenodd" clip-rule="evenodd" d="M95.7842 343.149H1467V176.149C1467 176.149 1381.85 228.043 1301.59 228.043C1221.33 228.043 1166.1 136.873 1013.3 141.329C860.504 145.785 887.731 213.484 760.632 213.484C633.534 213.484 600.046 129.861 506.04 119.301C412.033 108.74 329.485 165.381 296.201 184.515C262.916 203.649 190.084 213.484 97.3302 181.428C97.3302 249.521 95.7842 343.149 95.7842 343.149Z" fill="url(#paint0_linear_10105_112)"/>
<path d="M1467 232.045C1467 232.045 1350.16 164.417 1246.35 171.588C1142.54 178.759 1092.01 244.63 999.339 244.63C906.664 244.63 864.486 170.274 777.491 181.088C690.497 191.901 675.452 252 580.813 252C486.173 252 430.41 161.167 307.413 161.167C184.416 161.167 96 132 96 132" stroke="#F60707" stroke-width="5" stroke-linecap="round" stroke-linejoin="round"/>
<g clip-path="url(#clip3_10105_112)">
<path d="M1401.23 32.88V34.368H1398.27V44H1396.44V34.368H1393.47V32.88H1401.23ZM1407.64 35.04C1408.31 35.04 1408.9 35.184 1409.43 35.472C1409.96 35.76 1410.38 36.1867 1410.68 36.752C1410.98 37.3173 1411.14 38 1411.14 38.8V44H1409.33V39.072C1409.33 38.2827 1409.13 37.68 1408.74 37.264C1408.34 36.8373 1407.81 36.624 1407.12 36.624C1406.44 36.624 1405.9 36.8373 1405.49 37.264C1405.1 37.68 1404.9 38.2827 1404.9 39.072V44H1403.08V32.16H1404.9V36.208C1405.21 35.8347 1405.6 35.5467 1406.07 35.344C1406.55 35.1413 1407.07 35.04 1407.64 35.04ZM1414.39 34.016C1414.06 34.016 1413.79 33.904 1413.56 33.68C1413.34 33.456 1413.23 33.1787 1413.23 32.848C1413.23 32.5173 1413.34 32.24 1413.56 32.016C1413.79 31.792 1414.06 31.68 1414.39 31.68C1414.71 31.68 1414.99 31.792 1415.21 32.016C1415.43 32.24 1415.55 32.5173 1415.55 32.848C1415.55 33.1787 1415.43 33.456 1415.21 33.68C1414.99 33.904 1414.71 34.016 1414.39 34.016ZM1415.29 35.184V44H1413.47V35.184H1415.29ZM1420.88 44.144C1420.19 44.144 1419.57 44.0213 1419.01 43.776C1418.47 43.52 1418.04 43.1787 1417.72 42.752C1417.4 42.3147 1417.23 41.8293 1417.2 41.296H1419.09C1419.12 41.6693 1419.3 41.984 1419.62 42.24C1419.95 42.4853 1420.36 42.608 1420.85 42.608C1421.36 42.608 1421.76 42.512 1422.04 42.32C1422.32 42.1173 1422.47 41.8613 1422.47 41.552C1422.47 41.2213 1422.31 40.976 1421.99 40.816C1421.68 40.656 1421.18 40.48 1420.5 40.288C1419.84 40.1067 1419.3 39.9307 1418.88 39.76C1418.47 39.5893 1418.11 39.328 1417.8 38.976C1417.5 38.624 1417.35 38.16 1417.35 37.584C1417.35 37.1147 1417.49 36.688 1417.76 36.304C1418.04 35.9093 1418.44 35.6 1418.95 35.376C1419.47 35.152 1420.07 35.04 1420.74 35.04C1421.74 35.04 1422.55 35.296 1423.16 35.808C1423.78 36.3093 1424.11 36.9973 1424.15 37.872H1422.32C1422.29 37.4773 1422.13 37.1627 1421.84 36.928C1421.56 36.6933 1421.17 36.576 1420.68 36.576C1420.2 36.576 1419.83 36.6667 1419.57 36.848C1419.32 37.0293 1419.19 37.2693 1419.19 37.568C1419.19 37.8027 1419.27 38 1419.44 38.16C1419.62 38.32 1419.82 38.448 1420.07 38.544C1420.31 38.6293 1420.68 38.7413 1421.16 38.88C1421.8 39.0507 1422.32 39.2267 1422.72 39.408C1423.14 39.5787 1423.5 39.8347 1423.8 40.176C1424.1 40.5173 1424.25 40.9707 1424.26 41.536C1424.26 42.0373 1424.12 42.4853 1423.84 42.88C1423.57 43.2747 1423.17 43.584 1422.66 43.808C1422.16 44.032 1421.57 44.144 1420.88 44.144ZM1438.63 32.88L1434.95 39.968V44H1433.12V39.968L1429.43 32.88H1431.46L1434.04 38.336L1436.61 32.88H1438.63ZM1448.16 39.376C1448.16 39.7067 1448.13 40.0053 1448.09 40.272H1441.36C1441.41 40.976 1441.67 41.5413 1442.14 41.968C1442.61 42.3947 1443.18 42.608 1443.87 42.608C1444.85 42.608 1445.54 42.1973 1445.95 41.376H1447.92C1447.65 42.1867 1447.16 42.8533 1446.46 43.376C1445.77 43.888 1444.9 44.144 1443.87 44.144C1443.02 44.144 1442.27 43.9573 1441.6 43.584C1440.93 43.2 1440.41 42.6667 1440.03 41.984C1439.65 41.2907 1439.47 40.4907 1439.47 39.584C1439.47 38.6773 1439.65 37.8827 1440.01 37.2C1440.38 36.5067 1440.9 35.9733 1441.56 35.6C1442.24 35.2267 1443 35.04 1443.87 35.04C1444.7 35.04 1445.44 35.2213 1446.09 35.584C1446.74 35.9467 1447.25 36.4587 1447.61 37.12C1447.97 37.7707 1448.16 38.5227 1448.16 39.376ZM1446.25 38.8C1446.24 38.128 1446 37.5893 1445.53 37.184C1445.06 36.7787 1444.48 36.576 1443.79 36.576C1443.16 36.576 1442.62 36.7787 1442.17 37.184C1441.72 37.5787 1441.46 38.1173 1441.37 38.8H1446.25ZM1449.34 39.552C1449.34 38.6667 1449.52 37.8827 1449.89 37.2C1450.26 36.5173 1450.76 35.9893 1451.39 35.616C1452.03 35.232 1452.73 35.04 1453.5 35.04C1454.2 35.04 1454.8 35.1787 1455.31 35.456C1455.83 35.7227 1456.25 36.0587 1456.56 36.464V35.184H1458.4V44H1456.56V42.688C1456.25 43.104 1455.83 43.4507 1455.29 43.728C1454.76 44.0053 1454.15 44.144 1453.47 44.144C1452.71 44.144 1452.02 43.952 1451.39 43.568C1450.76 43.1733 1450.26 42.6293 1449.89 41.936C1449.52 41.232 1449.34 40.4373 1449.34 39.552ZM1456.56 39.584C1456.56 38.976 1456.43 38.448 1456.17 38C1455.93 37.552 1455.6 37.2107 1455.2 36.976C1454.79 36.7413 1454.36 36.624 1453.89 36.624C1453.42 36.624 1452.98 36.7413 1452.57 36.976C1452.17 37.2 1451.84 37.536 1451.58 37.984C1451.34 38.4213 1451.21 38.944 1451.21 39.552C1451.21 40.16 1451.34 40.6933 1451.58 41.152C1451.84 41.6107 1452.17 41.9627 1452.57 42.208C1452.99 42.4427 1453.43 42.56 1453.89 42.56C1454.36 42.56 1454.79 42.4427 1455.2 42.208C1455.6 41.9733 1455.93 41.632 1456.17 41.184C1456.43 40.7253 1456.56 40.192 1456.56 39.584ZM1462.62 36.464C1462.88 36.016 1463.24 35.6693 1463.67 35.424C1464.12 35.168 1464.65 35.04 1465.26 35.04V36.928H1464.79C1464.08 36.928 1463.54 37.1093 1463.16 37.472C1462.8 37.8347 1462.62 38.464 1462.62 39.36V44H1460.79V35.184H1462.62V36.464Z" fill="#35384D"/>
<path d="M1388.53 34.6686L1388.1 34.2219C1387.97 34.0824 1387.79 34.0055 1387.6 34.0055C1387.41 34.0055 1387.23 34.0824 1387.1 34.2219L1382.24 39.2831L1377.37 34.2163C1377.24 34.0768 1377.06 34 1376.87 34C1376.68 34 1376.5 34.0768 1376.37 34.2163L1375.94 34.6603C1375.67 34.949 1375.67 35.4193 1375.94 35.708L1381.73 41.7624C1381.87 41.9018 1382.04 42 1382.24 42H1382.24C1382.43 42 1382.61 41.9017 1382.74 41.7624L1388.53 35.7244C1388.66 35.585 1388.73 35.3936 1388.73 35.1952C1388.73 34.9967 1388.66 34.8079 1388.53 34.6686Z" fill="#1E2230"/>
</g>
<g filter="url(#filter1_d_10105_112)">
<path fill-rule="evenodd" clip-rule="evenodd" d="M526 70C523.239 70 521 72.2386 521 75V140C521 142.761 523.239 145 526 145H602.352L610.015 150L617.679 145H692.852C695.613 145 697.852 142.761 697.852 140V75C697.852 72.2386 695.613 70 692.852 70H526Z" fill="white"/>
</g>
<path d="M593.799 85.722V82.86H598.785V96H595.581V85.722H593.799ZM602.999 86.568C603.047 85.284 603.467 84.294 604.259 83.598C605.051 82.902 606.125 82.554 607.481 82.554C608.381 82.554 609.149 82.71 609.785 83.022C610.433 83.334 610.919 83.76 611.243 84.3C611.579 84.84 611.747 85.446 611.747 86.118C611.747 86.91 611.549 87.558 611.153 88.062C610.757 88.554 610.295 88.89 609.767 89.07V89.142C610.451 89.37 610.991 89.748 611.387 90.276C611.783 90.804 611.981 91.482 611.981 92.31C611.981 93.054 611.807 93.714 611.459 94.29C611.123 94.854 610.625 95.298 609.965 95.622C609.317 95.946 608.543 96.108 607.643 96.108C606.203 96.108 605.051 95.754 604.187 95.046C603.335 94.338 602.885 93.27 602.837 91.842H605.825C605.837 92.37 605.987 92.79 606.275 93.102C606.563 93.402 606.983 93.552 607.535 93.552C608.003 93.552 608.363 93.42 608.615 93.156C608.879 92.88 609.011 92.52 609.011 92.076C609.011 91.5 608.825 91.086 608.453 90.834C608.093 90.57 607.511 90.438 606.707 90.438H606.131V87.936H606.707C607.319 87.936 607.811 87.834 608.183 87.63C608.567 87.414 608.759 87.036 608.759 86.496C608.759 86.064 608.639 85.728 608.399 85.488C608.159 85.248 607.829 85.128 607.409 85.128C606.953 85.128 606.611 85.266 606.383 85.542C606.167 85.818 606.041 86.16 606.005 86.568H602.999ZM625.041 85.542H619.425V88.026C619.665 87.762 620.001 87.546 620.433 87.378C620.865 87.21 621.333 87.126 621.837 87.126C622.737 87.126 623.481 87.33 624.069 87.738C624.669 88.146 625.107 88.674 625.383 89.322C625.659 89.97 625.797 90.672 625.797 91.428C625.797 92.832 625.401 93.948 624.609 94.776C623.817 95.592 622.701 96 621.261 96C620.301 96 619.467 95.838 618.759 95.514C618.051 95.178 617.505 94.716 617.121 94.128C616.737 93.54 616.527 92.862 616.491 92.094H619.497C619.569 92.466 619.743 92.778 620.019 93.03C620.295 93.27 620.673 93.39 621.153 93.39C621.717 93.39 622.137 93.21 622.413 92.85C622.689 92.49 622.827 92.01 622.827 91.41C622.827 90.822 622.683 90.372 622.395 90.06C622.107 89.748 621.687 89.592 621.135 89.592C620.727 89.592 620.391 89.694 620.127 89.898C619.863 90.09 619.689 90.348 619.605 90.672H616.635V82.842H625.041V85.542ZM568.166 120.444H562.928L562.028 123H559.886L564.368 110.472H566.744L571.226 123H569.066L568.166 120.444ZM567.59 118.77L565.556 112.956L563.504 118.77H567.59ZM574.491 118.032C574.491 117.012 574.695 116.118 575.103 115.35C575.523 114.57 576.099 113.97 576.831 113.55C577.563 113.13 578.403 112.92 579.351 112.92C580.551 112.92 581.541 113.208 582.321 113.784C583.113 114.348 583.647 115.158 583.923 116.214H581.709C581.529 115.722 581.241 115.338 580.845 115.062C580.449 114.786 579.951 114.648 579.351 114.648C578.511 114.648 577.839 114.948 577.335 115.548C576.843 116.136 576.597 116.964 576.597 118.032C576.597 119.1 576.843 119.934 577.335 120.534C577.839 121.134 578.511 121.434 579.351 121.434C580.539 121.434 581.325 120.912 581.709 119.868H583.923C583.635 120.876 583.095 121.68 582.303 122.28C581.511 122.868 580.527 123.162 579.351 123.162C578.403 123.162 577.563 122.952 576.831 122.532C576.099 122.1 575.523 121.5 575.103 120.732C574.695 119.952 574.491 119.052 574.491 118.032ZM587.284 118.032C587.284 117.012 587.488 116.118 587.896 115.35C588.316 114.57 588.892 113.97 589.624 113.55C590.356 113.13 591.196 112.92 592.144 112.92C593.344 112.92 594.334 113.208 595.114 113.784C595.906 114.348 596.44 115.158 596.716 116.214H594.502C594.322 115.722 594.034 115.338 593.638 115.062C593.242 114.786 592.744 114.648 592.144 114.648C591.304 114.648 590.632 114.948 590.128 115.548C589.636 116.136 589.39 116.964 589.39 118.032C589.39 119.1 589.636 119.934 590.128 120.534C590.632 121.134 591.304 121.434 592.144 121.434C593.332 121.434 594.118 120.912 594.502 119.868H596.716C596.428 120.876 595.888 121.68 595.096 122.28C594.304 122.868 593.32 123.162 592.144 123.162C591.196 123.162 590.356 122.952 589.624 122.532C588.892 122.1 588.316 121.5 587.896 120.732C587.488 119.952 587.284 119.052 587.284 118.032ZM609.851 117.798C609.851 118.17 609.827 118.506 609.779 118.806H602.201C602.261 119.598 602.555 120.234 603.083 120.714C603.611 121.194 604.259 121.434 605.027 121.434C606.131 121.434 606.911 120.972 607.367 120.048H609.581C609.281 120.96 608.735 121.71 607.943 122.298C607.163 122.874 606.191 123.162 605.027 123.162C604.079 123.162 603.227 122.952 602.471 122.532C601.727 122.1 601.139 121.5 600.707 120.732C600.287 119.952 600.077 119.052 600.077 118.032C600.077 117.012 600.281 116.118 600.689 115.35C601.109 114.57 601.691 113.97 602.435 113.55C603.191 113.13 604.055 112.92 605.027 112.92C605.963 112.92 606.797 113.124 607.529 113.532C608.261 113.94 608.831 114.516 609.239 115.26C609.647 115.992 609.851 116.838 609.851 117.798ZM607.709 117.15C607.697 116.394 607.427 115.788 606.899 115.332C606.371 114.876 605.717 114.648 604.937 114.648C604.229 114.648 603.623 114.876 603.119 115.332C602.615 115.776 602.315 116.382 602.219 117.15H607.709ZM615.923 114.54C616.271 114.084 616.745 113.7 617.345 113.388C617.945 113.076 618.623 112.92 619.379 112.92C620.243 112.92 621.029 113.136 621.737 113.568C622.457 113.988 623.021 114.582 623.429 115.35C623.837 116.118 624.041 117 624.041 117.996C624.041 118.992 623.837 119.886 623.429 120.678C623.021 121.458 622.457 122.07 621.737 122.514C621.029 122.946 620.243 123.162 619.379 123.162C618.623 123.162 617.951 123.012 617.363 122.712C616.775 122.4 616.295 122.016 615.923 121.56V127.716H613.871V113.082H615.923V114.54ZM621.953 117.996C621.953 117.312 621.809 116.724 621.521 116.232C621.245 115.728 620.873 115.35 620.405 115.098C619.949 114.834 619.457 114.702 618.929 114.702C618.413 114.702 617.921 114.834 617.453 115.098C616.997 115.362 616.625 115.746 616.337 116.25C616.061 116.754 615.923 117.348 615.923 118.032C615.923 118.716 616.061 119.316 616.337 119.832C616.625 120.336 616.997 120.72 617.453 120.984C617.921 121.248 618.413 121.38 618.929 121.38C619.457 121.38 619.949 121.248 620.405 120.984C620.873 120.708 621.245 120.312 621.521 119.796C621.809 119.28 621.953 118.68 621.953 117.996ZM630.464 114.756V120.246C630.464 120.618 630.548 120.888 630.716 121.056C630.896 121.212 631.196 121.29 631.616 121.29H632.876V123H631.256C630.332 123 629.624 122.784 629.132 122.352C628.64 121.92 628.394 121.218 628.394 120.246V114.756H627.224V113.082H628.394V110.616H630.464V113.082H632.876V114.756H630.464ZM645.857 117.798C645.857 118.17 645.833 118.506 645.785 118.806H638.207C638.267 119.598 638.561 120.234 639.089 120.714C639.617 121.194 640.265 121.434 641.033 121.434C642.137 121.434 642.917 120.972 643.373 120.048H645.587C645.287 120.96 644.741 121.71 643.949 122.298C643.169 122.874 642.197 123.162 641.033 123.162C640.085 123.162 639.233 122.952 638.477 122.532C637.733 122.1 637.145 121.5 636.713 120.732C636.293 119.952 636.083 119.052 636.083 118.032C636.083 117.012 636.287 116.118 636.695 115.35C637.115 114.57 637.697 113.97 638.441 113.55C639.197 113.13 640.061 112.92 641.033 112.92C641.969 112.92 642.803 113.124 643.535 113.532C644.267 113.94 644.837 114.516 645.245 115.26C645.653 115.992 645.857 116.838 645.857 117.798ZM643.715 117.15C643.703 116.394 643.433 115.788 642.905 115.332C642.377 114.876 641.723 114.648 640.943 114.648C640.235 114.648 639.629 114.876 639.125 115.332C638.621 115.776 638.321 116.382 638.225 117.15H643.715ZM649.192 117.996C649.192 117 649.396 116.118 649.804 115.35C650.224 114.582 650.788 113.988 651.496 113.568C652.216 113.136 653.014 112.92 653.89 112.92C654.538 112.92 655.174 113.064 655.798 113.352C656.434 113.628 656.938 114 657.31 114.468V109.68H659.38V123H657.31V121.506C656.974 121.986 656.506 122.382 655.906 122.694C655.318 123.006 654.64 123.162 653.872 123.162C653.008 123.162 652.216 122.946 651.496 122.514C650.788 122.07 650.224 121.458 649.804 120.678C649.396 119.886 649.192 118.992 649.192 117.996ZM657.31 118.032C657.31 117.348 657.166 116.754 656.878 116.25C656.602 115.746 656.236 115.362 655.78 115.098C655.324 114.834 654.832 114.702 654.304 114.702C653.776 114.702 653.284 114.834 652.828 115.098C652.372 115.35 652 115.728 651.712 116.232C651.436 116.724 651.298 117.312 651.298 117.996C651.298 118.68 651.436 119.28 651.712 119.796C652 120.312 652.372 120.708 652.828 120.984C653.296 121.248 653.788 121.38 654.304 121.38C654.832 121.38 655.324 121.248 655.78 120.984C656.236 120.72 656.602 120.336 656.878 119.832C657.166 119.316 657.31 118.716 657.31 118.032Z" fill="#35384D"/>
<defs>
<filter id="filter0_d_10105_112" x="0" y="0" width="1522" height="460" filterUnits="userSpaceOnUse" color-interpolation-filters="sRGB">
<feFlood flood-opacity="0" result="BackgroundImageFix"/>
<feColorMatrix in="SourceAlpha" type="matrix" values="0 0 0 0 0 0 0 0 0 0 0 0 0 0 0 0 0 0 127 0" result="hardAlpha"/>
<feOffset/>
<feGaussianBlur stdDeviation="2.5"/>
<feColorMatrix type="matrix" values="0 0 0 0 0 0 0 0 0 0 0 0 0 0 0 0 0 0 0.0986943 0"/>
<feBlend mode="normal" in2="BackgroundImageFix" result="effect1_dropShadow_10105_112"/>
<feBlend mode="normal" in="SourceGraphic" in2="effect1_dropShadow_10105_112" result="shape"/>
</filter>
<filter id="filter1_d_10105_112" x="511" y="60" width="196.852" height="100" filterUnits="userSpaceOnUse" color-interpolation-filters="sRGB">
<feFlood flood-opacity="0" result="BackgroundImageFix"/>
<feColorMatrix in="SourceAlpha" type="matrix" values="0 0 0 0 0 0 0 0 0 0 0 0 0 0 0 0 0 0 127 0" result="hardAlpha"/>
<feOffset/>
<feGaussianBlur stdDeviation="5"/>
<feColorMatrix type="matrix" values="0 0 0 0 0 0 0 0 0 0 0 0 0 0 0 0 0 0 0.104048 0"/>
<feBlend mode="normal" in2="BackgroundImageFix" result="effect1_dropShadow_10105_112"/>
<feBlend mode="normal" in="SourceGraphic" in2="effect1_dropShadow_10105_112" result="shape"/>
</filter>
<linearGradient id="paint0_linear_10105_112" x1="1467" y1="118" x2="1467" y2="343.149" gradientUnits="userSpaceOnUse">
<stop stop-color="#005BE7" stop-opacity="0.150978"/>
<stop offset="1" stop-color="#005BE7" stop-opacity="0.01"/>
</linearGradient>
<clipPath id="clip0_10105_112">
<rect width="294.753" height="23" fill="white" transform="translate(434.161 402)"/>
</clipPath>
<clipPath id="clip1_10105_112">
<rect width="31.8333" height="245" fill="white" transform="translate(40.3704 109)"/>
</clipPath>
<clipPath id="clip2_10105_112">
<rect width="1295" height="21" fill="white" transform="translate(142 356)"/>
</clipPath>
<clipPath id="clip3_10105_112">
<rect width="114.364" height="23" fill="white" transform="translate(1357 26)"/>
</clipPath>
</defs>
</svg>
