<svg width="80" height="68" viewBox="0 0 80 68" fill="none" xmlns="http://www.w3.org/2000/svg">
<path d="M33.4975 67.0907C51.9977 67.0907 66.995 52.0934 66.995 33.5932C66.995 15.093 51.9977 0.0957031 33.4975 0.0957031C14.9973 0.0957031 0 15.093 0 33.5932C0 52.0934 14.9973 67.0907 33.4975 67.0907Z" fill="#F0F0F0"/>
<path d="M40.6755 62.1453C22.1753 62.1453 7.17812 47.1481 7.17812 28.648C7.17812 18.7641 11.4598 9.88125 18.2684 3.75C7.42406 9.29484 0 20.5769 0 33.593C0 52.0931 14.9972 67.0903 33.4973 67.0903C42.1136 67.0903 49.9691 63.8361 55.9042 58.4912C51.3353 60.8272 46.1595 62.1453 40.6755 62.1453Z" fill="#E0E0E0"/>
<path d="M27.6633 33.8618C29.9211 33.8618 31.7514 32.0315 31.7514 29.7737C31.7514 27.5159 29.9211 25.6855 27.6633 25.6855C25.4055 25.6855 23.5752 27.5159 23.5752 29.7737C23.5752 32.0315 25.4055 33.8618 27.6633 33.8618Z" fill="#9393AA"/>
<path d="M50.6809 33.8618C52.9387 33.8618 54.769 32.0315 54.769 29.7737C54.769 27.5159 52.9387 25.6855 50.6809 25.6855C48.4231 25.6855 46.5928 27.5159 46.5928 29.7737C46.5928 32.0315 48.4231 33.8618 50.6809 33.8618Z" fill="#9393AA"/>
<path d="M23.0747 40.3516C20.587 40.3516 18.5703 42.3683 18.5703 44.8558H27.5789C27.5789 42.3683 25.5623 40.3516 23.0747 40.3516Z" fill="#E0E0E0"/>
<path d="M58.3909 35.1641C55.9033 35.1641 53.8867 37.1808 53.8867 39.6684H62.8953C62.8955 37.1806 60.8786 35.1641 58.3909 35.1641Z" fill="#E0E0E0"/>
<path d="M28.8872 54.663C28.4806 54.663 28.0781 54.482 27.8095 54.1357C27.3483 53.541 27.4562 52.6851 28.0509 52.2237C30.7365 50.1402 35.4175 48.8457 40.2668 48.8457C45.3362 48.8457 49.8889 50.1199 52.4451 52.2543C53.0229 52.7365 53.1001 53.596 52.6179 54.1735C52.1356 54.7513 51.2761 54.8285 50.6986 54.3462C48.6483 52.6345 44.6512 51.5712 40.2668 51.5712C35.9929 51.5712 31.9523 52.6463 29.7214 54.377C29.4729 54.5698 29.1789 54.663 28.8872 54.663Z" fill="#9393AA"/>
<path d="M58.3693 12.0926H9.85879C6.54598 12.0926 3.86035 9.40695 3.86035 6.09414C3.86035 2.78133 6.54598 0.0957031 9.85879 0.0957031H58.3693C61.6821 0.0957031 64.3677 2.78133 64.3677 6.09414C64.3677 9.40695 61.6822 12.0926 58.3693 12.0926Z" fill="#E0E0E0"/>
<path d="M12.4674 6.09414C12.4674 2.78133 15.153 0.0957031 18.4658 0.0957031H9.85879C6.54598 0.0957031 3.86035 2.78133 3.86035 6.09414C3.86035 9.40695 6.54598 12.0926 9.85879 12.0926H18.466C15.1532 12.0927 12.4674 9.40711 12.4674 6.09414Z" fill="#9393AA"/>
<path d="M44.9168 21.4004C45.5043 19.3245 42.9671 16.7889 39.2498 15.7369C35.5325 14.6849 32.0428 15.515 31.4553 17.5909C30.8678 19.6668 33.4051 22.2024 37.1223 23.2544C40.8396 24.3064 44.3293 23.4763 44.9168 21.4004Z" fill="#FCEB88"/>
<path d="M50.3288 42.1395L47.6562 52.6817L48.8915 53.2317L58.5967 49.896L78.4656 28.2927C80.6075 26.0098 80.4931 22.4226 78.21 20.2806C75.927 18.1387 72.3399 18.2531 70.1978 20.5362L50.3288 42.1395Z" fill="white"/>
<path d="M50.7999 50.8594C50.4658 50.8594 50.1307 50.737 49.8679 50.4905C49.319 49.9755 49.2915 49.1133 49.8065 48.5641L72.1822 24.7134C72.6972 24.1645 73.5594 24.1374 74.1083 24.652C74.6572 25.167 74.6847 26.0292 74.1697 26.5784L51.794 50.4291C51.5257 50.715 51.163 50.8594 50.7999 50.8594Z" fill="#E0E0E0"/>
</svg>
