<svg width="32" height="32" viewBox="0 0 32 32" fill="none" xmlns="http://www.w3.org/2000/svg">
<g opacity="0.16">
<path fill-rule="evenodd" clip-rule="evenodd" d="M9.6 0H22.4C27.7019 0 32 4.29807 32 9.6V22.4C32 27.7019 27.7019 32 22.4 32H9.6C4.29807 32 0 27.7019 0 22.4V9.6C0 4.29807 4.29807 0 9.6 0Z" fill="#1E2230"/>
</g>
<rect opacity="0.01" x="4" y="4" width="24" height="24" fill="black"/>
<path fill-rule="evenodd" clip-rule="evenodd" d="M25 26H7C6.44772 26 6 25.5523 6 25V8C6 7.44772 6.44772 7 7 7H11C11 6.44772 11.4477 6 12 6C12.5523 6 13 6.44772 13 7H19C19 6.44772 19.4477 6 20 6C20.5523 6 21 6.44772 21 7H25C25.5523 7 26 7.44772 26 8V25C26 25.5523 25.5523 26 25 26ZM11 9H8V12H24V9H21C21 9.55228 20.5523 10 20 10C19.4477 10 19 9.55228 19 9H13C13 9.55228 12.5523 10 12 10C11.4477 10 11 9.55228 11 9ZM8 14H24V24H8V14ZM11 18V16H13V18H11ZM11 22V20H13V22H11ZM17 16H15V18H17V16ZM15 20H17V22H15V20ZM21 18V16H19V18H21ZM19 22V20H21V22H19Z" fill="#1E2230"/>
</svg>
