<svg width="24" height="24" viewBox="0 0 24 24" fill="none" xmlns="http://www.w3.org/2000/svg">
<path fill-rule="evenodd" clip-rule="evenodd" d="M7.2 0H16.8C20.7765 0 24 3.22355 24 7.2V16.8C24 20.7765 20.7765 24 16.8 24H7.2C3.22355 24 0 20.7765 0 16.8V7.2C0 3.22355 3.22355 0 7.2 0Z" fill="#1DA1F2"/>
<rect opacity="0.01" x="4" y="4" width="16" height="16" fill="black"/>
<path fill-rule="evenodd" clip-rule="evenodd" d="M18.646 6.57336L17.4202 5.34964C16.9532 4.88345 16.2235 4.88345 15.7857 5.34964L14.8225 6.31113C14.7058 6.42768 14.7058 6.60249 14.8225 6.71904L17.3034 9.19562C17.4202 9.31217 17.5953 9.31217 17.712 9.19562L18.6752 8.23412C19.113 7.76794 19.113 7.03954 18.646 6.57336ZM14.0053 7.53485C13.8886 7.41831 13.7134 7.41831 13.5967 7.53485L5.97891 15.1394L5.01574 18.4318C4.92818 18.7523 5.22005 19.0728 5.54111 18.9854L8.86841 18.053H8.83922L16.457 10.4485C16.5738 10.3319 16.5738 10.1571 16.457 10.0406L14.0053 7.53485Z" fill="white"/>
</svg>
