<svg width="24" height="24" viewBox="0 0 24 24" fill="none" xmlns="http://www.w3.org/2000/svg">
<path fill-rule="evenodd" clip-rule="evenodd" d="M7.2 0H16.8C20.7765 0 24 3.22355 24 7.2V16.8C24 20.7765 20.7765 24 16.8 24H7.2C3.22355 24 0 20.7765 0 16.8V7.2C0 3.22355 3.22355 0 7.2 0Z" fill="#1DA1F2"/>
<rect opacity="0.01" x="4" y="4" width="16" height="16" fill="black"/>
<path fill-rule="evenodd" clip-rule="evenodd" d="M9.23691 7.33816C8.92103 7.03204 8.92103 6.53572 9.23691 6.22959C9.55278 5.92347 10.0649 5.92347 10.3808 6.22959L15.7631 11.4457C16.079 11.7518 16.079 12.2482 15.7631 12.5543L10.3808 17.7704C10.0649 18.0765 9.55278 18.0765 9.23691 17.7704C8.92103 17.4643 8.92103 16.968 9.23691 16.6618L14.0473 12L9.23691 7.33816Z" fill="white"/>
</svg>
