<svg width="80" height="80" viewBox="0 0 80 80" fill="none" xmlns="http://www.w3.org/2000/svg">
<path opacity="0.08" d="M17.0927 12.2976C9.55864 17.7424 1.53212 22.608 3.04222 28.1852C4.55232 33.7624 15.5826 40.0346 19.4892 47.5481C23.4122 55.0616 20.195 63.8163 22.2304 70.3038C24.2493 76.7747 31.5208 80.9782 37.9387 79.8032C44.3567 78.6116 49.9211 72.0415 57.2254 67.2918C64.5461 62.5586 73.6067 59.6128 74.2469 54.6313C74.9034 49.6499 67.1559 42.6164 63.9223 34.5402C60.7052 26.4805 62.0019 17.3948 58.5713 10.6095C55.1244 3.80766 46.9665 -0.677273 39.3339 0.0840065C31.7178 0.828736 24.6433 6.85278 17.0927 12.2976Z" fill="#1E2230"/>
<path opacity="0.1" d="M49.2267 43.0645C55.1587 49.5855 64.5379 49.1648 71.4147 53.5472C78.2916 57.9121 82.6663 67.0626 78.1692 70.9892C73.6721 74.8983 60.3032 73.5836 52.1839 74.8458C44.0472 76.1254 41.1774 79.982 38.2727 79.9995C35.3679 80.0345 32.4632 76.2131 25.5863 74.5478C18.7094 72.8649 7.86036 73.3207 3.13578 69.3064C-1.58881 65.2746 -0.206428 56.7727 2.27835 48.4811C4.78063 40.1896 8.36782 32.126 14.5448 25.6926C20.7392 19.2592 29.506 14.4736 35.158 18.8034C40.7925 23.1157 43.2947 36.561 49.2267 43.0645Z" fill="#53D0EC"/>
<path d="M25.1033 65V27.48C25.066 27.5173 24.6367 27.6293 23.8153 27.816C23.0313 28.0027 22.1353 28.1893 21.1273 28.376C20.1193 28.5627 19.2233 28.7307 18.4393 28.88C17.6553 29.0293 17.2447 29.104 17.2073 29.104V24.568C17.842 24.4187 18.57 24.2133 19.3913 23.952C20.25 23.6907 21.1087 23.3733 21.9673 23C22.8633 22.6267 23.7033 22.16 24.4873 21.6C25.3087 21.04 25.9993 20.3867 26.5593 19.64H31.0953V65H25.1033ZM40.0265 65V60.744L51.5625 42.768C52.4211 41.424 53.2051 40.1733 53.9145 39.016C54.6611 37.8587 55.2585 36.6453 55.7065 35.376C56.1918 34.0693 56.4345 32.576 56.4345 30.896C56.4345 28.8053 56.0985 27.1627 55.4265 25.968C54.7545 24.7733 53.5785 24.176 51.8985 24.176C50.4798 24.176 49.3785 24.568 48.5945 25.352C47.8105 26.136 47.2691 27.1627 46.9705 28.432C46.6718 29.7013 46.5225 31.064 46.5225 32.52V34.032H40.5305V32.464C40.5305 29.7387 40.8851 27.4053 41.5945 25.464C42.3411 23.4853 43.5171 21.9547 45.1225 20.872C46.7651 19.7893 48.9305 19.248 51.6185 19.248C55.2771 19.248 58.0025 20.2933 59.7945 22.384C61.5865 24.4373 62.4825 27.2933 62.4825 30.952C62.4825 32.8933 62.2398 34.592 61.7545 36.048C61.3065 37.504 60.7091 38.8667 59.9625 40.136C59.2158 41.4053 58.3945 42.712 57.4985 44.056L47.0825 59.96H61.4185V65H40.0265Z" fill="#1E2230"/>
</svg>
