<svg width="40" height="40" viewBox="0 0 40 40" fill="none" xmlns="http://www.w3.org/2000/svg">
<path fill-rule="evenodd" clip-rule="evenodd" d="M12 0H28C34.6274 0 40 5.37258 40 12V28C40 34.6274 34.6274 40 28 40H12C5.37258 40 0 34.6274 0 28V12C0 5.37258 5.37258 0 12 0Z" fill="url(#paint0_linear_10186_1894)"/>
<rect opacity="0.01" x="8" y="8" width="24" height="24" fill="black"/>
<path fill-rule="evenodd" clip-rule="evenodd" d="M19.1394 18.8014C20.4151 18.2271 21.861 17.5762 22.6621 16.0778C23.1511 15.1632 23.2694 14.3197 23.0139 13.5707L23.0104 13.5609C22.9554 13.4017 22.8828 13.2463 22.7948 13.0992C22.1539 12.0298 20.709 11.3654 19.0242 11.3654C19.0166 11.3654 19.009 11.3653 19.0012 11.365C18.9929 11.3648 17.8413 11.3407 16.4467 11.7775C14.592 12.3585 13.2275 13.4379 12.3912 14.9856V14.9857C10.9883 17.5817 10.728 21.5651 13.4713 24.1763C13.9381 24.6206 14.5156 24.8826 15.1421 24.9346C15.172 24.9347 15.2022 24.9367 15.2322 24.9407C15.479 24.953 15.7293 24.9324 15.9766 24.8792C16.6666 24.7307 17.2484 24.3517 17.6453 23.7988C17.482 23.712 17.3327 23.6043 17.1991 23.4763C16.7169 23.0144 16.4758 22.3399 16.4826 21.4715C16.494 19.9922 17.8388 19.3869 19.1393 18.8014L19.1393 18.8014L19.1394 18.8014ZM25.1578 23.1009V22.5304C25.1578 21.9745 25.644 21.7412 26.3169 21.4182L26.3931 21.3816C25.7953 20.7712 25.0757 19.6702 25.0757 17.9082C25.0757 16.9282 24.7532 16.0635 24.3801 15.3911C24.2747 15.8326 24.1028 16.2775 23.8656 16.7212C22.8453 18.6298 21.1011 19.415 19.6996 20.0459L19.6995 20.0459C18.0266 20.799 17.8505 21.0618 17.8473 21.482C17.8437 21.9559 17.9415 22.2936 18.1382 22.4859C18.3246 22.6682 18.5796 22.6821 18.6144 22.6831C18.836 22.6719 19.0495 22.7713 19.1863 22.9497C19.3246 23.1305 19.3616 23.369 19.2856 23.5883C19.2794 23.6067 19.2623 23.6538 19.2339 23.7235C18.7177 24.9933 17.6073 25.9243 16.2637 26.2135C16.0571 26.258 15.8461 26.2867 15.6339 26.2991L14.8591 28.6355H19.9579L20.3886 28.0253C21.008 27.1383 22.0251 26.6079 23.1084 26.6079H24.2262C24.5938 26.6079 24.8928 26.3089 24.8928 25.9413V25.4102L24.3715 24.918C24.2404 24.7944 24.1625 24.62 24.1577 24.4396C24.1529 24.2592 24.2217 24.0809 24.3464 23.9504L25.1578 23.1009ZM27.6465 20.6755C27.9117 20.8807 28.0554 21.2035 28.0307 21.5387C28.0061 21.8736 27.8167 22.1719 27.5242 22.3367C27.3281 22.4468 27.1144 22.5494 26.9077 22.6485L26.9027 22.6509L26.9027 22.6509L26.9027 22.6509L26.9026 22.651C26.7961 22.7021 26.6431 22.7755 26.5224 22.839V23.3744C26.5224 23.5508 26.4552 23.7183 26.3333 23.8458L25.8073 24.3966L26.0435 24.6197C26.1795 24.7479 26.2575 24.9288 26.2575 25.1158V25.9415C26.2575 27.0615 25.3463 27.9727 24.2262 27.9727H23.1084C22.4705 27.9727 21.8713 28.2856 21.5054 28.8096L20.8689 29.7114C20.7415 29.8922 20.5331 30.0003 20.3115 30.0003H13.9139C13.6953 30.0003 13.4885 29.8945 13.3606 29.7172C13.2328 29.5406 13.1975 29.3108 13.2664 29.1031L14.2468 26.1467C13.6049 25.9633 13.0169 25.6278 12.5306 25.1649C11.0873 23.7911 10.2253 21.9656 10.0378 19.8857C9.86738 17.9988 10.2768 16.0281 11.1904 14.3368C12.1875 12.4917 13.864 11.1564 16.0388 10.4752C17.5964 9.98719 18.8742 9.99748 19.0324 10.0007C21.1906 10.003 23.0806 10.9214 23.9654 12.3979C24.0714 12.5747 24.1631 12.7601 24.2384 12.95C24.7059 13.4088 26.4404 15.2882 26.4404 17.9082C26.4404 19.5029 27.1961 20.3264 27.6465 20.6755ZM28.0042 23.6546H29.4218C29.746 23.6546 29.9999 23.9544 29.9999 24.337C29.9999 24.7197 29.746 25.0195 29.4218 25.0195H28.0042C27.6801 25.0195 27.4262 24.7197 27.4262 24.337C27.4262 23.9544 27.6801 23.6546 28.0042 23.6546ZM27.4682 23.2485L27.4683 23.2487C27.5561 23.4693 27.7633 23.6119 27.9963 23.6119C28.0733 23.6119 28.1486 23.5961 28.2205 23.5648L28.9934 23.2265C29.2771 23.1024 29.4134 22.7635 29.297 22.4707C29.2391 22.3251 29.1241 22.2081 28.9815 22.1496C28.84 22.0916 28.6849 22.0933 28.5449 22.1547L27.7722 22.4928C27.4882 22.6168 27.352 22.9559 27.4682 23.2485ZM28.0218 25.3791L28.7945 25.7101C29.081 25.8327 29.2179 26.1696 29.0996 26.4611C29.0113 26.6784 28.8044 26.8188 28.5724 26.8188C28.496 26.8188 28.4215 26.8035 28.3507 26.7733L27.5775 26.442C27.2909 26.3191 27.1541 25.9823 27.2724 25.691C27.3311 25.5464 27.4422 25.4345 27.5853 25.3757C27.7264 25.3177 27.8815 25.3189 28.0218 25.3791ZM18.9886 11.8164C18.62 11.8038 18.3055 12.0929 18.2851 12.4606C18.2751 12.6426 18.3364 12.8176 18.4579 12.9534C18.5794 13.0893 18.7466 13.1697 18.9261 13.1796C18.939 13.1804 18.9546 13.181 18.9676 13.181C19.3439 13.181 19.65 12.8748 19.65 12.4985C19.65 12.1262 19.3586 11.8266 18.9886 11.8164ZM17.3153 12.0132C17.493 11.9742 17.6756 12.0069 17.8291 12.1053C17.9826 12.2038 18.0885 12.3562 18.1274 12.5345C18.1663 12.7124 18.1335 12.895 18.0351 13.0484C17.9366 13.2018 17.7843 13.3077 17.6061 13.3465C17.3941 13.3928 17.1857 13.448 16.9869 13.5104C15.6001 13.9449 14.5913 14.731 13.9882 15.847C13.8688 16.0679 13.6387 16.2051 13.3875 16.2051C13.2754 16.2051 13.1636 16.1768 13.0641 16.1233C12.7326 15.944 12.6088 15.5291 12.7876 15.1981V15.1981C13.5655 13.7585 14.841 12.7525 16.5787 12.208C16.8177 12.1331 17.0655 12.0676 17.3153 12.0132Z" fill="white"/>
<defs>
<linearGradient id="paint0_linear_10186_1894" x1="20" y1="60" x2="60" y2="20" gradientUnits="userSpaceOnUse">
<stop stop-color="#0364FF"/>
<stop offset="1" stop-color="#80C7FF"/>
</linearGradient>
</defs>
</svg>
