<svg width="40" height="40" viewBox="0 0 40 40" fill="none" xmlns="http://www.w3.org/2000/svg">
<path fill-rule="evenodd" clip-rule="evenodd" d="M12 0H28C34.6274 0 40 5.37258 40 12V28C40 34.6274 34.6274 40 28 40H12C5.37258 40 0 34.6274 0 28V12C0 5.37258 5.37258 0 12 0Z" fill="url(#paint0_linear_10186_1895)"/>
<rect opacity="0.01" x="8" y="8" width="24" height="24" fill="black"/>
<path fill-rule="evenodd" clip-rule="evenodd" d="M14.8132 10.3027C15.1737 10.6631 15.2014 11.2304 14.8964 11.6227L14.8132 11.7169L14.6764 11.8526L15.5813 12.7572L16.5605 11.7781C16.951 11.3875 17.5842 11.3875 17.9747 11.7781C18.3352 12.1386 18.3629 12.7058 18.0579 13.0981L17.9747 13.1923L17.8384 13.3276L25.3518 20.8412C25.8947 21.3842 26.1345 22.1155 26.0713 22.8248L26.6165 23.37C26.8601 23.6135 26.9971 23.9438 26.9971 24.2883C26.9971 24.5836 26.8965 24.8684 26.7145 25.0969L26.6874 25.1276L29.5673 28.0076C29.9578 28.3981 29.9578 29.0313 29.5673 29.4218C29.2068 29.7823 28.6396 29.81 28.2473 29.505L28.1531 29.4218L25.2724 26.5406L25.2429 26.5685C25.0142 26.7507 24.7294 26.8512 24.4341 26.8512C24.1389 26.8512 23.854 26.7507 23.6255 26.5687L23.5162 26.471L22.9709 25.9257C22.3166 25.9842 21.6436 25.7848 21.1169 25.3276L20.9867 25.2062L13.4734 17.6926L13.3378 17.8292C12.9473 18.2197 12.3141 18.2197 11.9236 17.8292C11.5631 17.4687 11.5354 16.9015 11.8404 16.5092L11.9236 16.415L12.9026 15.436L11.9984 14.5316L11.8624 14.6677C11.4719 15.0582 10.8387 15.0582 10.4482 14.6677C10.0877 14.3072 10.06 13.74 10.365 13.3477L10.4482 13.2535L13.399 10.3027C13.7895 9.91213 14.4227 9.91213 14.8132 10.3027ZM14.9963 16.1697L14.8874 16.2786L18.7424 20.1336L20.2794 18.5966L16.4244 14.7416L16.3152 14.8508C16.3065 14.8601 16.2977 14.8693 16.2886 14.8784C16.2795 14.8874 16.2704 14.8963 16.261 14.9049L15.0504 16.1155C15.0418 16.1248 15.0329 16.134 15.0239 16.1431C15.0148 16.1522 15.0056 16.161 14.9963 16.1697ZM22.9355 23.8984C22.9298 23.9006 22.924 23.9029 22.9183 23.9052C22.7442 23.9696 22.5408 23.9319 22.4009 23.792L20.1564 21.5476L21.6934 20.0106L23.9375 22.2554L24.0004 22.3324C24.1261 22.5227 24.1051 22.7814 23.9375 22.949L23.0945 23.792L23.0176 23.8549C22.9914 23.8722 22.9639 23.8867 22.9355 23.8984Z" fill="white"/>
<defs>
<linearGradient id="paint0_linear_10186_1895" x1="20" y1="60" x2="60" y2="20" gradientUnits="userSpaceOnUse">
<stop stop-color="#0364FF"/>
<stop offset="1" stop-color="#80C7FF"/>
</linearGradient>
</defs>
</svg>
