<svg width="40" height="40" viewBox="0 0 40 40" fill="none" xmlns="http://www.w3.org/2000/svg">
<path fill-rule="evenodd" clip-rule="evenodd" d="M12 0H28C34.6274 0 40 5.37258 40 12V28C40 34.6274 34.6274 40 28 40H12C5.37258 40 0 34.6274 0 28V12C0 5.37258 5.37258 0 12 0Z" fill="url(#paint0_linear_10186_1896)"/>
<path fill-rule="evenodd" clip-rule="evenodd" d="M21.8219 10C22.6664 10 23.3598 10.639 23.4343 11.4544L23.4409 11.6L23.44 12.8831C24.0495 12.8477 24.6616 12.8618 25.27 12.9255C25.8258 12.9836 26.2285 13.476 26.1697 14.0252C26.1108 14.5744 25.6126 14.9725 25.0569 14.9143C24.2367 14.8285 23.4086 14.8527 22.5954 14.9864C20.2664 15.37 18.9641 16.8149 18.3021 18.6076L18.2032 18.8928L18.0573 19.3825C18.0134 19.5314 17.9762 19.6462 17.9316 19.7644C17.8288 20.0366 17.6991 20.287 17.517 20.5556C17.3604 20.7872 15.5863 22.1555 14.4983 23.1986C15.6642 25.8515 19.4271 27.968 23.2342 28C24.7866 28.0131 25.5297 27.6191 25.8164 26.9647C26.0395 26.4554 26.01 25.7349 25.8046 25.028L25.7166 24.7386L25.5396 24.1986L25.1501 23.0848L24.975 22.6008L24.5976 21.586L24.3527 21.535C21.9505 21.014 20.81 20.2829 20.81 18.5C20.81 17.3419 21.3533 16.4474 22.2465 15.847C22.8059 15.4709 23.3762 15.2688 24.0291 15.1242C24.5744 15.0034 25.1155 15.3424 25.2377 15.8814C25.2991 16.1521 25.2431 16.4218 25.103 16.6385C25.383 16.985 25.6137 17.3703 25.7979 17.787C26.1909 18.6758 26.3328 19.572 26.3325 20.3425L26.3297 20.444L26.5094 20.9219C26.6339 21.2552 26.7584 21.5921 26.8792 21.9238L27.1372 22.6395C27.4126 23.4136 27.6229 24.0397 27.7497 24.476C28.0724 25.5865 28.1196 26.741 27.6735 27.7593C27.0338 29.2195 25.5251 30.0194 23.2169 30C18.5156 29.9605 13.8649 27.2678 12.5055 23.661C11.7639 21.6932 11.8865 19.9649 12.5597 18.5653C12.6898 18.2946 12.8238 18.0701 12.9374 17.9054C12.9314 17.8784 12.9287 17.8502 12.9264 17.8221L12.9176 17.6V14.597C12.9221 13.1113 14.0947 11.8976 15.5783 11.8056L15.7003 11.8012C15.8678 11.156 16.4322 10.668 17.1212 10.6065L17.2686 10.6L17.5229 10.5994C17.7908 10.2695 18.1882 10.0467 18.639 10.0065L18.7863 10H21.8219ZM15.1267 18.4204L14.9192 18.6515L14.6793 18.9434C14.6281 18.9993 14.513 19.1627 14.3874 19.4239C14.1775 19.8604 14.048 20.3506 14.0264 20.8977L14.3229 20.6429C15.1517 19.9392 15.8606 19.4057 15.8351 19.4434L15.8598 19.4034C15.57 19.114 15.3233 18.7836 15.1267 18.4204ZM23.2497 17.5961L23.1692 17.6681C22.9513 17.8846 22.8338 18.1567 22.8338 18.5C22.8338 18.8748 23.2289 19.1687 24.2121 19.4392C24.1551 19.1571 24.0673 18.8679 23.9435 18.5878C23.7717 18.1991 23.5433 17.8666 23.2497 17.5961ZM17.7745 12.6H17.6733V14.1806L17.2935 14.4809L17.2233 14.5485C17.1634 14.613 17.0804 14.716 16.9925 14.855C16.6349 15.4204 16.4992 16.1357 16.7243 17.0273L16.7473 17.1012C17.4908 15.554 18.672 14.2533 20.4522 13.5194C20.0989 13.3812 19.6502 13.3318 19.216 13.4235L19.0702 13.4599L17.7745 13.8341V12.6Z" fill="white"/>
<defs>
<linearGradient id="paint0_linear_10186_1896" x1="20" y1="60" x2="60" y2="20" gradientUnits="userSpaceOnUse">
<stop stop-color="#0364FF"/>
<stop offset="1" stop-color="#80C7FF"/>
</linearGradient>
</defs>
</svg>
