<svg width="40" height="40" viewBox="0 0 40 40" fill="none" xmlns="http://www.w3.org/2000/svg">
<path fill-rule="evenodd" clip-rule="evenodd" d="M12 0H28C34.6274 0 40 5.37258 40 12V28C40 34.6274 34.6274 40 28 40H12C5.37258 40 0 34.6274 0 28V12C0 5.37258 5.37258 0 12 0Z" fill="url(#paint0_linear_10186_1897)"/>
<path fill-rule="evenodd" clip-rule="evenodd" d="M19.5002 11L19.6939 11.0053C20.9927 11.0763 22.1211 11.8582 22.6492 12.992L24.3406 12.9926C25.7506 12.9926 26.9043 14.0767 26.9943 15.4472L27 15.6199V23.5904C27 23.6819 26.9975 23.7732 26.9924 23.8641C26.9974 23.9051 27 23.9467 27 23.9889C27 24.1033 26.9812 24.2133 26.9465 24.3161C26.7897 25.3783 26.2901 26.3704 25.5122 27.139C24.9099 27.734 24.172 28.1642 23.3702 28.4001L23.3695 29.1697C23.3695 30.13 22.621 30.9176 21.6689 30.9939L21.5169 31H20.7102C19.7382 31 18.941 30.2605 18.8637 29.3199L18.8576 29.1697L18.8574 28.608L17.0797 28.6089C14.3501 28.6089 12.1233 26.4818 12.0049 23.8139L12 23.5904V15.6199C12 14.2269 13.0973 13.0872 14.4845 12.9982L14.6594 12.9926L16.3507 12.9922C16.8757 11.8648 17.9943 11.0853 19.2837 11.0066L19.5002 11ZM24.3406 15.059H14.6594C14.3772 15.059 14.1431 15.2624 14.0991 15.5289L14.0916 15.6199V23.5904C14.0916 25.1625 15.3356 26.4476 16.9041 26.5374L17.0797 26.5424H21.9203C22.7128 26.5424 23.4728 26.2314 24.0332 25.6778C24.2317 25.4817 24.3994 25.2608 24.5332 25.0225L21.9373 25.0221C21.3597 25.0221 20.8914 24.5596 20.8914 23.9889C20.8914 23.4591 21.2952 23.0224 21.8153 22.9627L21.9373 22.9557L24.9075 22.9553V22.6308L23.5339 22.631C22.9563 22.631 22.488 22.1684 22.488 21.5978C22.488 21.0679 22.8918 20.6312 23.4119 20.5715L23.5339 20.5646L24.9075 20.5644V20.239L20.9373 20.2399C20.3597 20.2399 19.8914 19.7773 19.8914 19.2066C19.8914 18.6768 20.2952 18.2401 20.8153 18.1804L20.9373 18.1734L24.9075 18.1725L24.9084 15.6199C24.9084 15.3411 24.7025 15.1099 24.4327 15.0664L24.3406 15.059Z" fill="white"/>
<defs>
<linearGradient id="paint0_linear_10186_1897" x1="20" y1="60" x2="60" y2="20" gradientUnits="userSpaceOnUse">
<stop stop-color="#0364FF"/>
<stop offset="1" stop-color="#80C7FF"/>
</linearGradient>
</defs>
</svg>
