<svg width="40" height="40" viewBox="0 0 40 40" fill="none" xmlns="http://www.w3.org/2000/svg">
<path fill-rule="evenodd" clip-rule="evenodd" d="M12 0H28C34.6274 0 40 5.37258 40 12V28C40 34.6274 34.6274 40 28 40H12C5.37258 40 0 34.6274 0 28V12C0 5.37258 5.37258 0 12 0Z" fill="url(#paint0_linear_10186_1898)"/>
<path fill-rule="evenodd" clip-rule="evenodd" d="M18.4612 26.3233C18.0672 25.8743 17.8872 25.2763 17.9692 24.6863C18.0262 24.2693 18.1312 23.8303 18.2922 23.3433C18.5755 22.4755 18.7254 21.5524 18.8706 20.6585L18.8732 20.6423L19.0112 19.7823L19.0169 19.7473C19.2101 18.5551 19.4099 17.3227 19.7832 16.1363C20.3082 14.4613 21.2282 12.9513 22.5952 11.5193C22.9563 11.1416 23.3457 10.7885 23.7222 10.4471L23.7562 10.4163L24.0482 10.1513C24.1822 10.0293 24.4832 9.93127 24.6952 10.0623C24.8402 10.1513 24.8912 10.2713 24.9092 10.3553C24.9476 10.5453 24.8444 10.6908 24.7878 10.7706L24.7852 10.7743C23.7952 12.2073 23.0232 13.4183 22.4132 14.7533C21.6832 16.3483 21.3452 18.0393 21.3812 19.9213C21.4092 21.3103 21.6092 22.8043 21.9952 24.4893C22.1462 25.1483 22.0132 25.8023 21.6312 26.2833C21.2522 26.7613 20.6752 27.0263 20.0102 27.0283H20.0032C19.4152 27.0283 18.8522 26.7713 18.4612 26.3233ZM26.666 17.1541C27.316 17.1471 27.966 17.1481 28.618 17.1511L30 17.1531V18.9801L29.685 18.9951C29.628 18.9984 29.5846 18.9995 29.5492 19.0003C29.5112 19.0013 29.4824 19.002 29.456 19.0051L28.102 19.0041C26.947 19.0011 25.792 19.0001 24.636 19.0071C24.38 19.0091 24.11 19.0711 23.903 19.1251C23.823 19.1461 23.718 19.1961 23.735 19.3821C23.769 19.7331 23.824 20.0091 23.904 20.2481C24.052 20.6861 24.209 21.1181 24.368 21.5511L24.4319 21.7268L24.4319 21.7269L24.432 21.727L24.432 21.7271L24.432 21.7272L24.4321 21.7272L24.4321 21.7273C24.557 22.0706 24.682 22.4141 24.799 22.7591C25.004 23.3581 25.237 24.1571 25.235 25.0271C25.229 27.0781 24.307 28.5821 22.571 29.3771C21.67 29.7891 20.767 29.9951 19.884 29.9951C18.678 29.9951 17.504 29.6121 16.407 28.8511C14.815 27.7461 14.191 25.9221 14.737 23.9701C14.9047 23.3697 15.1551 22.794 15.3974 22.237L15.403 22.2241L15.536 21.9161C15.664 21.6211 15.803 21.3341 15.943 21.0461C16.089 20.7451 16.234 20.4451 16.364 20.1381C16.444 19.9481 16.493 19.7061 16.504 19.4361C16.508 19.3541 16.495 19.2381 16.414 19.1531C16.346 19.0821 16.234 19.0421 16.103 19.0421H10V17.2151L10.311 17.1981L10.3185 17.1976L10.3185 17.1976C10.4301 17.1909 10.4781 17.1881 10.528 17.1881H16.281C17.279 17.1891 18.191 18.0561 18.313 19.1211C18.384 19.7361 18.288 20.3361 18.025 20.9011C17.8756 21.225 17.7237 21.5471 17.5718 21.8693L17.448 22.1321C17.227 22.5981 17.008 23.0641 16.793 23.5321C16.539 24.0791 16.405 24.5881 16.383 25.0891C16.33 26.2731 16.856 27.1401 17.946 27.6651C19.208 28.2731 20.502 28.2901 21.801 27.7151C22.882 27.2361 23.53 26.0381 23.379 24.8001C23.282 24.0171 23.026 23.2781 22.726 22.4631C22.642 22.2341 22.554 22.0071 22.466 21.7801C22.335 21.4441 22.205 21.1091 22.087 20.7701C21.876 20.1611 21.807 19.6491 21.871 19.1571C22.013 18.0681 22.802 17.3131 23.883 17.2351C24.683 17.1781 25.497 17.1681 26.282 17.1591L26.666 17.1541ZM12.4734 21.5466C13.0664 21.5466 13.5544 21.0636 13.5624 20.4676C13.5684 20.1726 13.4564 19.8946 13.2514 19.6836C13.0504 19.4756 12.7804 19.3586 12.4944 19.3546C12.2104 19.3606 11.9204 19.4616 11.7114 19.6666C11.5014 19.8726 11.3844 20.1506 11.3834 20.4476C11.3804 21.0496 11.8664 21.5436 12.4654 21.5466H12.4734ZM27.5409 22.8073C27.5199 23.4013 27.0349 23.8753 26.4539 23.8753H26.4279C26.1429 23.8673 25.8779 23.7483 25.6799 23.5393C25.4729 23.3213 25.3649 23.0313 25.3729 22.7253C25.3899 22.1393 25.8759 21.6573 26.4749 21.6673C26.7659 21.6733 27.0379 21.7943 27.2399 22.0063C27.4439 22.2233 27.5519 22.5073 27.5409 22.8073ZM11.9041 24.5672H11.8961C11.3031 24.5722 10.8201 25.0672 10.8191 25.6712C10.8191 26.2752 11.3011 26.7702 11.8951 26.7752H11.9051C12.4961 26.7752 12.9791 26.2892 12.9871 25.6862C12.9911 25.3832 12.8761 25.0992 12.6641 24.8852C12.4601 24.6802 12.1901 24.5672 11.9041 24.5672ZM27.2166 25.1209H27.2176C27.8126 25.1209 28.3006 25.6089 28.3066 26.2099C28.3106 26.5069 28.1966 26.7859 27.9866 26.9969C27.7796 27.2039 27.5056 27.3169 27.2156 27.3169H27.2016C26.6056 27.3099 26.1226 26.8139 26.1276 26.2119C26.1316 25.6109 26.6196 25.1209 27.2166 25.1209ZM13.199 22.1824H13.195C12.914 22.1824 12.645 22.2954 12.442 22.4994C12.234 22.7074 12.117 22.9944 12.119 23.2854C12.121 23.8914 12.602 24.3884 13.192 24.3924H13.198C13.483 24.3924 13.752 24.2814 13.955 24.0784C14.168 23.8674 14.285 23.5834 14.285 23.2784C14.285 22.6764 13.798 22.1854 13.199 22.1824ZM27.9323 19.3543H27.9393C28.5453 19.3543 29.0233 19.8263 29.0303 20.4313C29.0333 20.7343 28.9213 21.0173 28.7153 21.2263C28.5123 21.4323 28.2403 21.5453 27.9463 21.5463H27.9403C27.3393 21.5463 26.8663 21.0693 26.8613 20.4583C26.8583 20.1583 26.9703 19.8793 27.1743 19.6713C27.3753 19.4693 27.6443 19.3553 27.9323 19.3543Z" fill="white"/>
<defs>
<linearGradient id="paint0_linear_10186_1898" x1="20" y1="60" x2="60" y2="20" gradientUnits="userSpaceOnUse">
<stop stop-color="#0364FF"/>
<stop offset="1" stop-color="#80C7FF"/>
</linearGradient>
</defs>
</svg>
