<svg width="40" height="40" viewBox="0 0 40 40" fill="none" xmlns="http://www.w3.org/2000/svg">
<path fill-rule="evenodd" clip-rule="evenodd" d="M12 0H28C34.6274 0 40 5.37258 40 12V28C40 34.6274 34.6274 40 28 40H12C5.37258 40 0 34.6274 0 28V12C0 5.37258 5.37258 0 12 0Z" fill="url(#paint0_linear_10186_1899)"/>
<path fill-rule="evenodd" clip-rule="evenodd" d="M11.989 10H14.6593H15.2823H15.2827H15.4315L15.4327 10.0046C16.4474 10.0665 17.322 10.7524 17.6346 11.7292L17.6812 11.8936L17.9396 12.9389C18.0801 13.507 17.9538 14.1088 17.5972 14.5701C17.3683 14.8662 17.0609 15.0832 16.7174 15.2004L16.9151 16H21.7802C24.1075 16 26.0266 17.7669 26.2971 20.0463C26.3185 20.1273 26.3297 20.2123 26.3297 20.3L26.325 20.3894L26.3297 20.6V26.3116C26.412 26.4654 26.4789 26.6289 26.5281 26.8L28.011 26.8C28.5572 26.8 29 27.2477 29 27.8C29 28.3128 28.6182 28.7355 28.1263 28.7933L28.011 28.8H26.2662C25.8321 29.5196 25.0485 30 24.1538 30C22.7883 30 21.6813 28.8807 21.6813 27.5C21.6813 27.3573 21.6931 27.2173 21.7159 27.0811C20.7267 28.8251 18.8672 30 16.7363 30C13.5682 30 11 27.4033 11 24.2C11 21.425 12.9275 19.1051 15.5026 18.5345L13.8859 12H11.989C11.4818 12 11.0638 11.614 11.0067 11.1166L11 11C11 10.4872 11.3818 10.0645 11.8737 10.0067L11.989 10ZM22.2021 25.9651C22.337 25.7899 22.4945 25.6334 22.6701 25.5H22.3279C22.2922 25.6576 22.2502 25.8127 22.2021 25.9651ZM24.5221 27.1663C24.4316 27.0642 24.3001 27 24.1538 27C23.8807 27 23.6593 27.2239 23.6593 27.5C23.6593 27.7761 23.8807 28 24.1538 28C24.427 28 24.6484 27.7761 24.6484 27.5C24.6484 27.4037 24.6214 27.3138 24.5748 27.2374C24.5562 27.2146 24.5386 27.1908 24.5221 27.1663ZM22.3043 22.8C22.3603 23.0283 22.4029 23.2619 22.4312 23.5H24.3516V22.8H22.3043ZM19.8068 19.3C19.1284 18.8645 18.3535 18.5691 17.5218 18.4539L17.4096 18H21.7802L21.9428 18.0051C22.8261 18.0609 23.5886 18.5675 24.0077 19.3L19.8068 19.3ZM19.011 24.2C19.011 22.9297 17.9926 21.9 16.7363 21.9C15.48 21.9 14.4615 22.9297 14.4615 24.2C14.4615 25.4703 15.48 26.5 16.7363 26.5C17.9926 26.5 19.011 25.4703 19.011 24.2Z" fill="white"/>
<defs>
<linearGradient id="paint0_linear_10186_1899" x1="20" y1="60" x2="60" y2="20" gradientUnits="userSpaceOnUse">
<stop stop-color="#0364FF"/>
<stop offset="1" stop-color="#80C7FF"/>
</linearGradient>
</defs>
</svg>
