<svg width="40" height="40" viewBox="0 0 40 40" fill="none" xmlns="http://www.w3.org/2000/svg">
<path fill-rule="evenodd" clip-rule="evenodd" d="M12 0H28C34.6274 0 40 5.37258 40 12V28C40 34.6274 34.6274 40 28 40H12C5.37258 40 0 34.6274 0 28V12C0 5.37258 5.37258 0 12 0Z" fill="url(#paint0_linear_10186_1900)"/>
<rect opacity="0.01" x="8" y="8" width="24" height="24" fill="black"/>
<path fill-rule="evenodd" clip-rule="evenodd" d="M17.3075 10.58C17.0977 10.1254 16.5758 9.89027 16.0885 10.05C15.5637 10.2221 15.2777 10.787 15.4498 11.3118L16.4326 14.3098L16.4753 14.4185C16.6851 14.8731 17.207 15.1083 17.6944 14.9486C18.2192 14.7765 18.5051 14.2116 18.3331 13.6868L17.3502 10.6888L17.3075 10.58ZM10.3143 13.8724C10.6854 13.5228 11.2532 13.512 11.6362 13.8286L11.7279 13.9146L13.8394 16.1561C14.2181 16.5581 14.1992 17.191 13.7972 17.5697C13.4261 17.9192 12.8583 17.93 12.4753 17.6134L12.3836 17.5275L10.2721 15.286C9.89341 14.8839 9.91231 14.2511 10.3143 13.8724ZM18.1 22.1003C18.1 21.0509 18.9507 20.2003 20 20.2003C21.0493 20.2003 21.9 21.0509 21.9 22.1003C21.9 22.7827 21.5402 23.3811 21 23.7161V26.0003H25L25 22.1143C24.9919 19.2893 22.7526 17.0085 20.003 17.0003C17.3199 17.0083 15.1264 19.1708 15.0052 21.8897L15 22.1114V26.0003H19V23.7161C18.4598 23.3811 18.1 22.7827 18.1 22.1003ZM13 26.0003L13 22.1085C13.0113 18.1916 16.1332 15.0118 20.003 15.0003C23.7863 15.0116 26.8583 18.0605 26.9953 21.8674L27 22.1114V26.0003H27.2C28.7713 26.0003 30 27.3655 30 29.0003V30.0003H10V29.0003C10 27.3655 11.2287 26.0003 12.8 26.0003H13ZM28.2709 13.9159C28.6488 13.5132 29.2817 13.4932 29.6844 13.8711C30.0561 14.22 30.1018 14.7861 29.8093 15.1878L29.7292 15.2846L27.6253 17.5261C27.2474 17.9288 26.6145 17.9489 26.2118 17.5709C25.8401 17.222 25.7944 16.656 26.0869 16.2542L26.167 16.1574L28.2709 13.9159ZM23.9003 10.0464C23.3735 9.88057 22.812 10.1732 22.6462 10.7L21.7023 13.698L21.6737 13.8113C21.5794 14.303 21.8666 14.7981 22.3558 14.9522C22.8826 15.118 23.4441 14.8254 23.6099 14.2986L24.5538 11.3006L24.5824 11.1873C24.6767 10.6956 24.3895 10.2004 23.9003 10.0464Z" fill="white"/>
<defs>
<linearGradient id="paint0_linear_10186_1900" x1="20" y1="60" x2="60" y2="20" gradientUnits="userSpaceOnUse">
<stop stop-color="#0364FF"/>
<stop offset="1" stop-color="#80C7FF"/>
</linearGradient>
</defs>
</svg>
