<svg width="40" height="40" viewBox="0 0 40 40" fill="none" xmlns="http://www.w3.org/2000/svg">
<path fill-rule="evenodd" clip-rule="evenodd" d="M12 0H28C34.6274 0 40 5.37258 40 12V28C40 34.6274 34.6274 40 28 40H12C5.37258 40 0 34.6274 0 28V12C0 5.37258 5.37258 0 12 0Z" fill="url(#paint0_linear_10186_1901)"/>
<path fill-rule="evenodd" clip-rule="evenodd" d="M19.8282 10.0055C18.9753 10.0601 18.2181 10.5184 17.7672 11.2082L17.69 11.335L17.6667 11.335C16.9946 11.2884 16.2714 11.5603 15.7483 12.0833C15.4855 12.3462 15.2861 12.6596 15.1589 13H13.6667L13.5229 13.0061C12.6697 13.079 12 13.7946 12 14.6667V28.3333L12.0061 28.4771C12.079 29.3303 12.7946 30 13.6667 30H26.3333L26.4771 29.9939C27.3303 29.921 28 29.2054 28 28.3333V14.6667L27.9939 14.5229C27.921 13.6697 27.2054 13 26.3333 13H24.8303C24.701 12.6675 24.5014 12.3565 24.2399 12.0951L24.0949 11.9607C23.6463 11.5755 23.0794 11.3548 22.4885 11.335L22.309 11.335L22.2328 11.2082C21.7519 10.4724 20.9223 10 20 10L19.8282 10.0055ZM22.8274 13.5112C22.7463 13.6558 22.7 13.8225 22.7 14L22.7001 14.001L17.3 14.0016L17.3 14C17.3 13.8163 17.2504 13.6441 17.164 13.4961C17.2793 13.3816 17.4384 13.3221 17.6007 13.3328L18.3667 13.335C18.8026 13.335 19.1833 13.0536 19.3166 12.6477L19.3467 12.534C19.4098 12.2233 19.683 12 20 12C20.2818 12 20.529 12.1764 20.6248 12.4339L20.6533 12.534C20.748 13.0001 21.1578 13.335 21.6333 13.335H22.3333C22.5438 13.3269 22.7069 13.3905 22.8257 13.5093L22.8274 13.5112ZM15 15L15 15.0017C15 15.554 15.4477 16.0017 16 16.0017H24C24.5523 16.0017 25 15.554 25 15.0017V15H26V28H14V15H15ZM16 20C16 19.4477 16.4477 19 17 19H23C23.5523 19 24 19.4477 24 20C24 20.5523 23.5523 21 23 21H17C16.4477 21 16 20.5523 16 20ZM17 23C16.4477 23 16 23.4477 16 24C16 24.5523 16.4477 25 17 25H19C19.5523 25 20 24.5523 20 24C20 23.4477 19.5523 23 19 23H17Z" fill="white"/>
<defs>
<linearGradient id="paint0_linear_10186_1901" x1="20" y1="60" x2="60" y2="20" gradientUnits="userSpaceOnUse">
<stop stop-color="#0364FF"/>
<stop offset="1" stop-color="#80C7FF"/>
</linearGradient>
</defs>
</svg>
