<svg width="40" height="40" viewBox="0 0 40 40" fill="none" xmlns="http://www.w3.org/2000/svg">
<circle cx="20" cy="18" r="18" fill="url(#paint0_linear_8175_1200)"/>
<g filter="url(#filter0_d_8175_1200)">
<path d="M23.6363 19.3983L24.2106 18.5797C23.9052 18.3654 23.506 18.339 23.175 18.5111C22.844 18.6832 22.6363 19.0253 22.6363 19.3983H23.6363ZM27.5823 22.1665L28.1566 21.3479L27.5823 22.1665ZM28.3355 22.2164L27.8742 21.3292L27.8742 21.3292L28.3355 22.2164ZM28.7273 14.4283H29.7273C29.7273 13.876 29.2795 13.4283 28.7273 13.4283V14.4283ZM28 14.4283L27.1813 15.0026C27.3685 15.2694 27.674 15.4283 28 15.4283V14.4283ZM27.5823 13.8329L28.4009 13.2586C28.2486 13.0415 28.0163 12.8938 27.7551 12.848C27.4938 12.8021 27.2251 12.862 27.008 13.0143L27.5823 13.8329ZM23.6363 16.6011H22.6363C22.6363 16.9742 22.844 17.3162 23.175 17.4884C23.506 17.6605 23.9052 17.634 24.2106 17.4198L23.6363 16.6011ZM27.2727 15.8269H28.2727C28.2727 15.4538 28.065 15.1118 27.7341 14.9397C27.4031 14.7676 27.0038 14.794 26.6984 15.0083L27.2727 15.8269ZM24.1754 17.9997L23.6011 17.1811C23.3343 17.3683 23.1754 17.6738 23.1754 17.9997C23.1754 18.3257 23.3343 18.6312 23.6011 18.8184L24.1754 17.9997ZM27.2727 20.1726L26.6984 20.9912C27.0038 21.2055 27.4031 21.2319 27.7341 21.0598C28.065 20.8877 28.2727 20.5456 28.2727 20.1726H27.2727ZM12.2727 14.4543C12.2727 13.8016 12.8018 13.2725 13.4545 13.2725V11.2725C11.6973 11.2725 10.2727 12.697 10.2727 14.4543H12.2727ZM12.2727 21.5452V14.4543H10.2727V21.5452H12.2727ZM13.4545 22.727C12.8018 22.727 12.2727 22.1979 12.2727 21.5452H10.2727C10.2727 23.3025 11.6973 24.727 13.4545 24.727V22.727ZM21.4545 22.727H13.4545V24.727H21.4545V22.727ZM22.6363 21.5452C22.6363 22.1979 22.1072 22.727 21.4545 22.727V24.727C23.2118 24.727 24.6363 23.3025 24.6363 21.5452H22.6363ZM22.6363 19.3983V21.5452H24.6363V19.3983H22.6363ZM28.1566 21.3479L24.2106 18.5797L23.062 20.217L27.008 22.9852L28.1566 21.3479ZM27.8742 21.3292C27.9644 21.2823 28.0733 21.2895 28.1566 21.3479L27.008 22.9852C27.5355 23.3552 28.2252 23.4009 28.7969 23.1036L27.8742 21.3292ZM27.7273 21.5712C27.7273 21.4694 27.7839 21.3761 27.8742 21.3292L28.7969 23.1036C29.3686 22.8063 29.7273 22.2155 29.7273 21.5712H27.7273ZM27.7273 14.4283V21.5712H29.7273V14.4283H27.7273ZM28 15.4283H28.7273V13.4283H28V15.4283ZM26.7637 14.4072L27.1813 15.0026L28.8186 13.854L28.4009 13.2586L26.7637 14.4072ZM24.2106 17.4198L28.1566 14.6516L27.008 13.0143L23.062 15.7825L24.2106 17.4198ZM22.6363 14.4543V16.6011H24.6363V14.4543H22.6363ZM21.4545 13.2725C22.1072 13.2725 22.6363 13.8016 22.6363 14.4543H24.6363C24.6363 12.697 23.2118 11.2725 21.4545 11.2725V13.2725ZM13.4545 13.2725H21.4545V11.2725H13.4545V13.2725ZM23.1818 17.9997V14.4543H21.1818V17.9997H23.1818ZM23.1818 14.4543C23.1818 13.5003 22.4085 12.727 21.4545 12.727V14.727C21.3039 14.727 21.1818 14.6049 21.1818 14.4543H23.1818ZM21.4545 12.727H13.4545V14.727H21.4545V12.727ZM13.4545 12.727C12.5006 12.727 11.7273 13.5003 11.7273 14.4543H13.7273C13.7273 14.6049 13.6051 14.727 13.4545 14.727V12.727ZM11.7273 14.4543V21.5452H13.7273V14.4543H11.7273ZM11.7273 21.5452C11.7273 22.4991 12.5006 23.2725 13.4545 23.2725V21.2725C13.6051 21.2725 13.7273 21.3946 13.7273 21.5452H11.7273ZM13.4545 23.2725H21.4545V21.2725H13.4545V23.2725ZM21.4545 23.2725C22.4085 23.2725 23.1818 22.4991 23.1818 21.5452H21.1818C21.1818 21.3946 21.3039 21.2725 21.4545 21.2725V23.2725ZM23.1818 21.5452V17.9997H21.1818V21.5452H23.1818ZM26.6984 15.0083L23.6011 17.1811L24.7497 18.8184L27.847 16.6455L26.6984 15.0083ZM28.2727 20.1726V15.8269H26.2727V20.1726H28.2727ZM23.6011 18.8184L26.6984 20.9912L27.847 19.3539L24.7497 17.1811L23.6011 18.8184Z" fill="url(#paint1_linear_8175_1200)"/>
</g>
<defs>
<filter id="filter0_d_8175_1200" x="0.272705" y="6.27246" width="39.4545" height="33.4541" filterUnits="userSpaceOnUse" color-interpolation-filters="sRGB">
<feFlood flood-opacity="0" result="BackgroundImageFix"/>
<feColorMatrix in="SourceAlpha" type="matrix" values="0 0 0 0 0 0 0 0 0 0 0 0 0 0 0 0 0 0 127 0" result="hardAlpha"/>
<feOffset dy="5"/>
<feGaussianBlur stdDeviation="5"/>
<feColorMatrix type="matrix" values="0 0 0 0 0.00392157 0 0 0 0 0.721569 0 0 0 0 0.74902 0 0 0 0.50484 0"/>
<feBlend mode="normal" in2="BackgroundImageFix" result="effect1_dropShadow_8175_1200"/>
<feBlend mode="normal" in="SourceGraphic" in2="effect1_dropShadow_8175_1200" result="shape"/>
</filter>
<linearGradient id="paint0_linear_8175_1200" x1="2" y1="9" x2="20" y2="45" gradientUnits="userSpaceOnUse">
<stop stop-color="#00D8D9"/>
<stop offset="1" stop-color="#00AFB1"/>
</linearGradient>
<linearGradient id="paint1_linear_8175_1200" x1="9.58117" y1="11.0716" x2="9.58117" y2="24.7463" gradientUnits="userSpaceOnUse">
<stop stop-color="white"/>
<stop offset="1" stop-color="white" stop-opacity="0.5"/>
</linearGradient>
</defs>
</svg>
